<?xml version="1.0" encoding="utf-8" standalone="no"?>
<!DOCTYPE svg PUBLIC "-//W3C//DTD SVG 1.1//EN"
  "http://www.w3.org/Graphics/SVG/1.1/DTD/svg11.dtd">
<svg height="396pt" version="1.1" viewBox="0 0 1296 396" width="1296pt" xmlns="http://www.w3.org/2000/svg" xmlns:xlink="http://www.w3.org/1999/xlink">
 <metadata>
  <rdf:RDF xmlns:cc="http://creativecommons.org/ns#" xmlns:dc="http://purl.org/dc/elements/1.1/" xmlns:rdf="http://www.w3.org/1999/02/22-rdf-syntax-ns#">
   <cc:Work>
    <dc:type rdf:resource="http://purl.org/dc/dcmitype/StillImage"/>
    <dc:date>2023-03-29T22:27:51.619975</dc:date>
    <dc:format>image/svg+xml</dc:format>
    <dc:creator>
     <cc:Agent>
      <dc:title>Matplotlib v3.4.2, https://matplotlib.org/</dc:title>
     </cc:Agent>
    </dc:creator>
   </cc:Work>
  </rdf:RDF>
 </metadata>
 <defs>
  <style type="text/css">*{stroke-linecap:butt;stroke-linejoin:round;}</style>
 </defs>
 <g id="figure_1">
  <g id="patch_1">
   <path d="M 0 396 
L 1296 396 
L 1296 0 
L 0 0 
z
" style="fill:#ffffff;"/>
  </g>
  <g id="axes_1">
   <g id="patch_2">
    <path d="M 715.885714 352.44 
L 1166.4 352.44 
L 1166.4 47.52 
L 715.885714 47.52 
z
" style="fill:#ffffff;"/>
   </g>
   <g id="patch_3">
    <path clip-path="url(#p9184f13e4c)" d="M 715.885714 61.38 
L 1144.946939 61.38 
L 1144.946939 81.913333 
L 715.885714 81.913333 
z
" style="fill:#1f77b4;"/>
   </g>
   <g id="patch_4">
    <path clip-path="url(#p9184f13e4c)" d="M 715.885714 87.046667 
L 1098.211762 87.046667 
L 1098.211762 107.58 
L 715.885714 107.58 
z
" style="fill:#1f77b4;"/>
   </g>
   <g id="patch_5">
    <path clip-path="url(#p9184f13e4c)" d="M 715.885714 112.713333 
L 1087.931345 112.713333 
L 1087.931345 133.246667 
L 715.885714 133.246667 
z
" style="fill:#1f77b4;"/>
   </g>
   <g id="patch_6">
    <path clip-path="url(#p9184f13e4c)" d="M 715.885714 138.38 
L 1085.198469 138.38 
L 1085.198469 158.913333 
L 715.885714 158.913333 
z
" style="fill:#1f77b4;"/>
   </g>
   <g id="patch_7">
    <path clip-path="url(#p9184f13e4c)" d="M 715.885714 164.046667 
L 1036.524136 164.046667 
L 1036.524136 184.58 
L 715.885714 184.58 
z
" style="fill:#1f77b4;"/>
   </g>
   <g id="patch_8">
    <path clip-path="url(#p9184f13e4c)" d="M 715.885714 189.713333 
L 1036.331433 189.713333 
L 1036.331433 210.246667 
L 715.885714 210.246667 
z
" style="fill:#1f77b4;"/>
   </g>
   <g id="patch_9">
    <path clip-path="url(#p9184f13e4c)" d="M 715.885714 215.38 
L 1029.309344 215.38 
L 1029.309344 235.913333 
L 715.885714 235.913333 
z
" style="fill:#1f77b4;"/>
   </g>
   <g id="patch_10">
    <path clip-path="url(#p9184f13e4c)" d="M 715.885714 241.046667 
L 1019.810397 241.046667 
L 1019.810397 261.58 
L 715.885714 261.58 
z
" style="fill:#1f77b4;"/>
   </g>
   <g id="patch_11">
    <path clip-path="url(#p9184f13e4c)" d="M 715.885714 266.713333 
L 1002.228567 266.713333 
L 1002.228567 287.246667 
L 715.885714 287.246667 
z
" style="fill:#1f77b4;"/>
   </g>
   <g id="patch_12">
    <path clip-path="url(#p9184f13e4c)" d="M 715.885714 292.38 
L 994.612953 292.38 
L 994.612953 312.913333 
L 715.885714 312.913333 
z
" style="fill:#1f77b4;"/>
   </g>
   <g id="patch_13">
    <path clip-path="url(#p9184f13e4c)" d="M 715.885714 318.046667 
L 989.393243 318.046667 
L 989.393243 338.58 
L 715.885714 338.58 
z
" style="fill:#1f77b4;"/>
   </g>
   <g id="matplotlib.axis_1">
    <g id="xtick_1">
     <g id="line2d_1">
      <defs>
       <path d="M 0 0 
L 0 3.5 
" id="mcb94506e8a" style="stroke:#000000;stroke-width:0.8;"/>
      </defs>
      <g>
       <use style="stroke:#000000;stroke-width:0.8;" x="715.885714" xlink:href="#mcb94506e8a" y="352.44"/>
      </g>
     </g>
     <g id="text_1">
      <!-- 0.0 -->
      <g transform="translate(707.934152 367.038437)scale(0.1 -0.1)">
       <defs>
        <path d="M 2034 4250 
Q 1547 4250 1301 3770 
Q 1056 3291 1056 2328 
Q 1056 1369 1301 889 
Q 1547 409 2034 409 
Q 2525 409 2770 889 
Q 3016 1369 3016 2328 
Q 3016 3291 2770 3770 
Q 2525 4250 2034 4250 
z
M 2034 4750 
Q 2819 4750 3233 4129 
Q 3647 3509 3647 2328 
Q 3647 1150 3233 529 
Q 2819 -91 2034 -91 
Q 1250 -91 836 529 
Q 422 1150 422 2328 
Q 422 3509 836 4129 
Q 1250 4750 2034 4750 
z
" id="DejaVuSans-30" transform="scale(0.015625)"/>
        <path d="M 684 794 
L 1344 794 
L 1344 0 
L 684 0 
L 684 794 
z
" id="DejaVuSans-2e" transform="scale(0.015625)"/>
       </defs>
       <use xlink:href="#DejaVuSans-30"/>
       <use x="63.623047" xlink:href="#DejaVuSans-2e"/>
       <use x="95.410156" xlink:href="#DejaVuSans-30"/>
      </g>
     </g>
    </g>
    <g id="xtick_2">
     <g id="line2d_2">
      <g>
       <use style="stroke:#000000;stroke-width:0.8;" x="801.697959" xlink:href="#mcb94506e8a" y="352.44"/>
      </g>
     </g>
     <g id="text_2">
      <!-- 0.2 -->
      <g transform="translate(793.746397 367.038437)scale(0.1 -0.1)">
       <defs>
        <path d="M 1228 531 
L 3431 531 
L 3431 0 
L 469 0 
L 469 531 
Q 828 903 1448 1529 
Q 2069 2156 2228 2338 
Q 2531 2678 2651 2914 
Q 2772 3150 2772 3378 
Q 2772 3750 2511 3984 
Q 2250 4219 1831 4219 
Q 1534 4219 1204 4116 
Q 875 4013 500 3803 
L 500 4441 
Q 881 4594 1212 4672 
Q 1544 4750 1819 4750 
Q 2544 4750 2975 4387 
Q 3406 4025 3406 3419 
Q 3406 3131 3298 2873 
Q 3191 2616 2906 2266 
Q 2828 2175 2409 1742 
Q 1991 1309 1228 531 
z
" id="DejaVuSans-32" transform="scale(0.015625)"/>
       </defs>
       <use xlink:href="#DejaVuSans-30"/>
       <use x="63.623047" xlink:href="#DejaVuSans-2e"/>
       <use x="95.410156" xlink:href="#DejaVuSans-32"/>
      </g>
     </g>
    </g>
    <g id="xtick_3">
     <g id="line2d_3">
      <g>
       <use style="stroke:#000000;stroke-width:0.8;" x="887.510204" xlink:href="#mcb94506e8a" y="352.44"/>
      </g>
     </g>
     <g id="text_3">
      <!-- 0.4 -->
      <g transform="translate(879.558642 367.038437)scale(0.1 -0.1)">
       <defs>
        <path d="M 2419 4116 
L 825 1625 
L 2419 1625 
L 2419 4116 
z
M 2253 4666 
L 3047 4666 
L 3047 1625 
L 3713 1625 
L 3713 1100 
L 3047 1100 
L 3047 0 
L 2419 0 
L 2419 1100 
L 313 1100 
L 313 1709 
L 2253 4666 
z
" id="DejaVuSans-34" transform="scale(0.015625)"/>
       </defs>
       <use xlink:href="#DejaVuSans-30"/>
       <use x="63.623047" xlink:href="#DejaVuSans-2e"/>
       <use x="95.410156" xlink:href="#DejaVuSans-34"/>
      </g>
     </g>
    </g>
    <g id="xtick_4">
     <g id="line2d_4">
      <g>
       <use style="stroke:#000000;stroke-width:0.8;" x="973.322449" xlink:href="#mcb94506e8a" y="352.44"/>
      </g>
     </g>
     <g id="text_4">
      <!-- 0.6 -->
      <g transform="translate(965.370886 367.038437)scale(0.1 -0.1)">
       <defs>
        <path d="M 2113 2584 
Q 1688 2584 1439 2293 
Q 1191 2003 1191 1497 
Q 1191 994 1439 701 
Q 1688 409 2113 409 
Q 2538 409 2786 701 
Q 3034 994 3034 1497 
Q 3034 2003 2786 2293 
Q 2538 2584 2113 2584 
z
M 3366 4563 
L 3366 3988 
Q 3128 4100 2886 4159 
Q 2644 4219 2406 4219 
Q 1781 4219 1451 3797 
Q 1122 3375 1075 2522 
Q 1259 2794 1537 2939 
Q 1816 3084 2150 3084 
Q 2853 3084 3261 2657 
Q 3669 2231 3669 1497 
Q 3669 778 3244 343 
Q 2819 -91 2113 -91 
Q 1303 -91 875 529 
Q 447 1150 447 2328 
Q 447 3434 972 4092 
Q 1497 4750 2381 4750 
Q 2619 4750 2861 4703 
Q 3103 4656 3366 4563 
z
" id="DejaVuSans-36" transform="scale(0.015625)"/>
       </defs>
       <use xlink:href="#DejaVuSans-30"/>
       <use x="63.623047" xlink:href="#DejaVuSans-2e"/>
       <use x="95.410156" xlink:href="#DejaVuSans-36"/>
      </g>
     </g>
    </g>
    <g id="xtick_5">
     <g id="line2d_5">
      <g>
       <use style="stroke:#000000;stroke-width:0.8;" x="1059.134694" xlink:href="#mcb94506e8a" y="352.44"/>
      </g>
     </g>
     <g id="text_5">
      <!-- 0.8 -->
      <g transform="translate(1051.183131 367.038437)scale(0.1 -0.1)">
       <defs>
        <path d="M 2034 2216 
Q 1584 2216 1326 1975 
Q 1069 1734 1069 1313 
Q 1069 891 1326 650 
Q 1584 409 2034 409 
Q 2484 409 2743 651 
Q 3003 894 3003 1313 
Q 3003 1734 2745 1975 
Q 2488 2216 2034 2216 
z
M 1403 2484 
Q 997 2584 770 2862 
Q 544 3141 544 3541 
Q 544 4100 942 4425 
Q 1341 4750 2034 4750 
Q 2731 4750 3128 4425 
Q 3525 4100 3525 3541 
Q 3525 3141 3298 2862 
Q 3072 2584 2669 2484 
Q 3125 2378 3379 2068 
Q 3634 1759 3634 1313 
Q 3634 634 3220 271 
Q 2806 -91 2034 -91 
Q 1263 -91 848 271 
Q 434 634 434 1313 
Q 434 1759 690 2068 
Q 947 2378 1403 2484 
z
M 1172 3481 
Q 1172 3119 1398 2916 
Q 1625 2713 2034 2713 
Q 2441 2713 2670 2916 
Q 2900 3119 2900 3481 
Q 2900 3844 2670 4047 
Q 2441 4250 2034 4250 
Q 1625 4250 1398 4047 
Q 1172 3844 1172 3481 
z
" id="DejaVuSans-38" transform="scale(0.015625)"/>
       </defs>
       <use xlink:href="#DejaVuSans-30"/>
       <use x="63.623047" xlink:href="#DejaVuSans-2e"/>
       <use x="95.410156" xlink:href="#DejaVuSans-38"/>
      </g>
     </g>
    </g>
    <g id="xtick_6">
     <g id="line2d_6">
      <g>
       <use style="stroke:#000000;stroke-width:0.8;" x="1144.946939" xlink:href="#mcb94506e8a" y="352.44"/>
      </g>
     </g>
     <g id="text_6">
      <!-- 1.0 -->
      <g transform="translate(1136.995376 367.038437)scale(0.1 -0.1)">
       <defs>
        <path d="M 794 531 
L 1825 531 
L 1825 4091 
L 703 3866 
L 703 4441 
L 1819 4666 
L 2450 4666 
L 2450 531 
L 3481 531 
L 3481 0 
L 794 0 
L 794 531 
z
" id="DejaVuSans-31" transform="scale(0.015625)"/>
       </defs>
       <use xlink:href="#DejaVuSans-31"/>
       <use x="63.623047" xlink:href="#DejaVuSans-2e"/>
       <use x="95.410156" xlink:href="#DejaVuSans-30"/>
      </g>
     </g>
    </g>
    <g id="text_7">
     <!-- MI correlation -->
     <g transform="translate(906.93817 380.716563)scale(0.1 -0.1)">
      <defs>
       <path d="M 628 4666 
L 1569 4666 
L 2759 1491 
L 3956 4666 
L 4897 4666 
L 4897 0 
L 4281 0 
L 4281 4097 
L 3078 897 
L 2444 897 
L 1241 4097 
L 1241 0 
L 628 0 
L 628 4666 
z
" id="DejaVuSans-4d" transform="scale(0.015625)"/>
       <path d="M 628 4666 
L 1259 4666 
L 1259 0 
L 628 0 
L 628 4666 
z
" id="DejaVuSans-49" transform="scale(0.015625)"/>
       <path id="DejaVuSans-20" transform="scale(0.015625)"/>
       <path d="M 3122 3366 
L 3122 2828 
Q 2878 2963 2633 3030 
Q 2388 3097 2138 3097 
Q 1578 3097 1268 2742 
Q 959 2388 959 1747 
Q 959 1106 1268 751 
Q 1578 397 2138 397 
Q 2388 397 2633 464 
Q 2878 531 3122 666 
L 3122 134 
Q 2881 22 2623 -34 
Q 2366 -91 2075 -91 
Q 1284 -91 818 406 
Q 353 903 353 1747 
Q 353 2603 823 3093 
Q 1294 3584 2113 3584 
Q 2378 3584 2631 3529 
Q 2884 3475 3122 3366 
z
" id="DejaVuSans-63" transform="scale(0.015625)"/>
       <path d="M 1959 3097 
Q 1497 3097 1228 2736 
Q 959 2375 959 1747 
Q 959 1119 1226 758 
Q 1494 397 1959 397 
Q 2419 397 2687 759 
Q 2956 1122 2956 1747 
Q 2956 2369 2687 2733 
Q 2419 3097 1959 3097 
z
M 1959 3584 
Q 2709 3584 3137 3096 
Q 3566 2609 3566 1747 
Q 3566 888 3137 398 
Q 2709 -91 1959 -91 
Q 1206 -91 779 398 
Q 353 888 353 1747 
Q 353 2609 779 3096 
Q 1206 3584 1959 3584 
z
" id="DejaVuSans-6f" transform="scale(0.015625)"/>
       <path d="M 2631 2963 
Q 2534 3019 2420 3045 
Q 2306 3072 2169 3072 
Q 1681 3072 1420 2755 
Q 1159 2438 1159 1844 
L 1159 0 
L 581 0 
L 581 3500 
L 1159 3500 
L 1159 2956 
Q 1341 3275 1631 3429 
Q 1922 3584 2338 3584 
Q 2397 3584 2469 3576 
Q 2541 3569 2628 3553 
L 2631 2963 
z
" id="DejaVuSans-72" transform="scale(0.015625)"/>
       <path d="M 3597 1894 
L 3597 1613 
L 953 1613 
Q 991 1019 1311 708 
Q 1631 397 2203 397 
Q 2534 397 2845 478 
Q 3156 559 3463 722 
L 3463 178 
Q 3153 47 2828 -22 
Q 2503 -91 2169 -91 
Q 1331 -91 842 396 
Q 353 884 353 1716 
Q 353 2575 817 3079 
Q 1281 3584 2069 3584 
Q 2775 3584 3186 3129 
Q 3597 2675 3597 1894 
z
M 3022 2063 
Q 3016 2534 2758 2815 
Q 2500 3097 2075 3097 
Q 1594 3097 1305 2825 
Q 1016 2553 972 2059 
L 3022 2063 
z
" id="DejaVuSans-65" transform="scale(0.015625)"/>
       <path d="M 603 4863 
L 1178 4863 
L 1178 0 
L 603 0 
L 603 4863 
z
" id="DejaVuSans-6c" transform="scale(0.015625)"/>
       <path d="M 2194 1759 
Q 1497 1759 1228 1600 
Q 959 1441 959 1056 
Q 959 750 1161 570 
Q 1363 391 1709 391 
Q 2188 391 2477 730 
Q 2766 1069 2766 1631 
L 2766 1759 
L 2194 1759 
z
M 3341 1997 
L 3341 0 
L 2766 0 
L 2766 531 
Q 2569 213 2275 61 
Q 1981 -91 1556 -91 
Q 1019 -91 701 211 
Q 384 513 384 1019 
Q 384 1609 779 1909 
Q 1175 2209 1959 2209 
L 2766 2209 
L 2766 2266 
Q 2766 2663 2505 2880 
Q 2244 3097 1772 3097 
Q 1472 3097 1187 3025 
Q 903 2953 641 2809 
L 641 3341 
Q 956 3463 1253 3523 
Q 1550 3584 1831 3584 
Q 2591 3584 2966 3190 
Q 3341 2797 3341 1997 
z
" id="DejaVuSans-61" transform="scale(0.015625)"/>
       <path d="M 1172 4494 
L 1172 3500 
L 2356 3500 
L 2356 3053 
L 1172 3053 
L 1172 1153 
Q 1172 725 1289 603 
Q 1406 481 1766 481 
L 2356 481 
L 2356 0 
L 1766 0 
Q 1100 0 847 248 
Q 594 497 594 1153 
L 594 3053 
L 172 3053 
L 172 3500 
L 594 3500 
L 594 4494 
L 1172 4494 
z
" id="DejaVuSans-74" transform="scale(0.015625)"/>
       <path d="M 603 3500 
L 1178 3500 
L 1178 0 
L 603 0 
L 603 3500 
z
M 603 4863 
L 1178 4863 
L 1178 4134 
L 603 4134 
L 603 4863 
z
" id="DejaVuSans-69" transform="scale(0.015625)"/>
       <path d="M 3513 2113 
L 3513 0 
L 2938 0 
L 2938 2094 
Q 2938 2591 2744 2837 
Q 2550 3084 2163 3084 
Q 1697 3084 1428 2787 
Q 1159 2491 1159 1978 
L 1159 0 
L 581 0 
L 581 3500 
L 1159 3500 
L 1159 2956 
Q 1366 3272 1645 3428 
Q 1925 3584 2291 3584 
Q 2894 3584 3203 3211 
Q 3513 2838 3513 2113 
z
" id="DejaVuSans-6e" transform="scale(0.015625)"/>
      </defs>
      <use xlink:href="#DejaVuSans-4d"/>
      <use x="86.279297" xlink:href="#DejaVuSans-49"/>
      <use x="115.771484" xlink:href="#DejaVuSans-20"/>
      <use x="147.558594" xlink:href="#DejaVuSans-63"/>
      <use x="202.539062" xlink:href="#DejaVuSans-6f"/>
      <use x="263.720703" xlink:href="#DejaVuSans-72"/>
      <use x="303.083984" xlink:href="#DejaVuSans-72"/>
      <use x="341.947266" xlink:href="#DejaVuSans-65"/>
      <use x="403.470703" xlink:href="#DejaVuSans-6c"/>
      <use x="431.253906" xlink:href="#DejaVuSans-61"/>
      <use x="492.533203" xlink:href="#DejaVuSans-74"/>
      <use x="531.742188" xlink:href="#DejaVuSans-69"/>
      <use x="559.525391" xlink:href="#DejaVuSans-6f"/>
      <use x="620.707031" xlink:href="#DejaVuSans-6e"/>
     </g>
    </g>
   </g>
   <g id="matplotlib.axis_2">
    <g id="ytick_1">
     <g id="line2d_7">
      <defs>
       <path d="M 0 0 
L -3.5 0 
" id="m23133dea0c" style="stroke:#000000;stroke-width:0.8;"/>
      </defs>
      <g>
       <use style="stroke:#000000;stroke-width:0.8;" x="715.885714" xlink:href="#m23133dea0c" y="71.646667"/>
      </g>
     </g>
     <g id="text_8">
      <!-- MagpieData mean MeltingT -->
      <g transform="translate(570.857589 75.445885)scale(0.1 -0.1)">
       <defs>
        <path d="M 2906 1791 
Q 2906 2416 2648 2759 
Q 2391 3103 1925 3103 
Q 1463 3103 1205 2759 
Q 947 2416 947 1791 
Q 947 1169 1205 825 
Q 1463 481 1925 481 
Q 2391 481 2648 825 
Q 2906 1169 2906 1791 
z
M 3481 434 
Q 3481 -459 3084 -895 
Q 2688 -1331 1869 -1331 
Q 1566 -1331 1297 -1286 
Q 1028 -1241 775 -1147 
L 775 -588 
Q 1028 -725 1275 -790 
Q 1522 -856 1778 -856 
Q 2344 -856 2625 -561 
Q 2906 -266 2906 331 
L 2906 616 
Q 2728 306 2450 153 
Q 2172 0 1784 0 
Q 1141 0 747 490 
Q 353 981 353 1791 
Q 353 2603 747 3093 
Q 1141 3584 1784 3584 
Q 2172 3584 2450 3431 
Q 2728 3278 2906 2969 
L 2906 3500 
L 3481 3500 
L 3481 434 
z
" id="DejaVuSans-67" transform="scale(0.015625)"/>
        <path d="M 1159 525 
L 1159 -1331 
L 581 -1331 
L 581 3500 
L 1159 3500 
L 1159 2969 
Q 1341 3281 1617 3432 
Q 1894 3584 2278 3584 
Q 2916 3584 3314 3078 
Q 3713 2572 3713 1747 
Q 3713 922 3314 415 
Q 2916 -91 2278 -91 
Q 1894 -91 1617 61 
Q 1341 213 1159 525 
z
M 3116 1747 
Q 3116 2381 2855 2742 
Q 2594 3103 2138 3103 
Q 1681 3103 1420 2742 
Q 1159 2381 1159 1747 
Q 1159 1113 1420 752 
Q 1681 391 2138 391 
Q 2594 391 2855 752 
Q 3116 1113 3116 1747 
z
" id="DejaVuSans-70" transform="scale(0.015625)"/>
        <path d="M 1259 4147 
L 1259 519 
L 2022 519 
Q 2988 519 3436 956 
Q 3884 1394 3884 2338 
Q 3884 3275 3436 3711 
Q 2988 4147 2022 4147 
L 1259 4147 
z
M 628 4666 
L 1925 4666 
Q 3281 4666 3915 4102 
Q 4550 3538 4550 2338 
Q 4550 1131 3912 565 
Q 3275 0 1925 0 
L 628 0 
L 628 4666 
z
" id="DejaVuSans-44" transform="scale(0.015625)"/>
        <path d="M 3328 2828 
Q 3544 3216 3844 3400 
Q 4144 3584 4550 3584 
Q 5097 3584 5394 3201 
Q 5691 2819 5691 2113 
L 5691 0 
L 5113 0 
L 5113 2094 
Q 5113 2597 4934 2840 
Q 4756 3084 4391 3084 
Q 3944 3084 3684 2787 
Q 3425 2491 3425 1978 
L 3425 0 
L 2847 0 
L 2847 2094 
Q 2847 2600 2669 2842 
Q 2491 3084 2119 3084 
Q 1678 3084 1418 2786 
Q 1159 2488 1159 1978 
L 1159 0 
L 581 0 
L 581 3500 
L 1159 3500 
L 1159 2956 
Q 1356 3278 1631 3431 
Q 1906 3584 2284 3584 
Q 2666 3584 2933 3390 
Q 3200 3197 3328 2828 
z
" id="DejaVuSans-6d" transform="scale(0.015625)"/>
        <path d="M -19 4666 
L 3928 4666 
L 3928 4134 
L 2272 4134 
L 2272 0 
L 1638 0 
L 1638 4134 
L -19 4134 
L -19 4666 
z
" id="DejaVuSans-54" transform="scale(0.015625)"/>
       </defs>
       <use xlink:href="#DejaVuSans-4d"/>
       <use x="86.279297" xlink:href="#DejaVuSans-61"/>
       <use x="147.558594" xlink:href="#DejaVuSans-67"/>
       <use x="211.035156" xlink:href="#DejaVuSans-70"/>
       <use x="274.511719" xlink:href="#DejaVuSans-69"/>
       <use x="302.294922" xlink:href="#DejaVuSans-65"/>
       <use x="363.818359" xlink:href="#DejaVuSans-44"/>
       <use x="440.820312" xlink:href="#DejaVuSans-61"/>
       <use x="502.099609" xlink:href="#DejaVuSans-74"/>
       <use x="541.308594" xlink:href="#DejaVuSans-61"/>
       <use x="602.587891" xlink:href="#DejaVuSans-20"/>
       <use x="634.375" xlink:href="#DejaVuSans-6d"/>
       <use x="731.787109" xlink:href="#DejaVuSans-65"/>
       <use x="793.310547" xlink:href="#DejaVuSans-61"/>
       <use x="854.589844" xlink:href="#DejaVuSans-6e"/>
       <use x="917.96875" xlink:href="#DejaVuSans-20"/>
       <use x="949.755859" xlink:href="#DejaVuSans-4d"/>
       <use x="1036.035156" xlink:href="#DejaVuSans-65"/>
       <use x="1097.558594" xlink:href="#DejaVuSans-6c"/>
       <use x="1125.341797" xlink:href="#DejaVuSans-74"/>
       <use x="1164.550781" xlink:href="#DejaVuSans-69"/>
       <use x="1192.333984" xlink:href="#DejaVuSans-6e"/>
       <use x="1255.712891" xlink:href="#DejaVuSans-67"/>
       <use x="1319.189453" xlink:href="#DejaVuSans-54"/>
      </g>
     </g>
    </g>
    <g id="ytick_2">
     <g id="line2d_8">
      <g>
       <use style="stroke:#000000;stroke-width:0.8;" x="715.885714" xlink:href="#m23133dea0c" y="97.313333"/>
      </g>
     </g>
     <g id="text_9">
      <!-- MagpieData maximum MeltingT -->
      <g transform="translate(548.832589 101.112552)scale(0.1 -0.1)">
       <defs>
        <path d="M 3513 3500 
L 2247 1797 
L 3578 0 
L 2900 0 
L 1881 1375 
L 863 0 
L 184 0 
L 1544 1831 
L 300 3500 
L 978 3500 
L 1906 2253 
L 2834 3500 
L 3513 3500 
z
" id="DejaVuSans-78" transform="scale(0.015625)"/>
        <path d="M 544 1381 
L 544 3500 
L 1119 3500 
L 1119 1403 
Q 1119 906 1312 657 
Q 1506 409 1894 409 
Q 2359 409 2629 706 
Q 2900 1003 2900 1516 
L 2900 3500 
L 3475 3500 
L 3475 0 
L 2900 0 
L 2900 538 
Q 2691 219 2414 64 
Q 2138 -91 1772 -91 
Q 1169 -91 856 284 
Q 544 659 544 1381 
z
M 1991 3584 
L 1991 3584 
z
" id="DejaVuSans-75" transform="scale(0.015625)"/>
       </defs>
       <use xlink:href="#DejaVuSans-4d"/>
       <use x="86.279297" xlink:href="#DejaVuSans-61"/>
       <use x="147.558594" xlink:href="#DejaVuSans-67"/>
       <use x="211.035156" xlink:href="#DejaVuSans-70"/>
       <use x="274.511719" xlink:href="#DejaVuSans-69"/>
       <use x="302.294922" xlink:href="#DejaVuSans-65"/>
       <use x="363.818359" xlink:href="#DejaVuSans-44"/>
       <use x="440.820312" xlink:href="#DejaVuSans-61"/>
       <use x="502.099609" xlink:href="#DejaVuSans-74"/>
       <use x="541.308594" xlink:href="#DejaVuSans-61"/>
       <use x="602.587891" xlink:href="#DejaVuSans-20"/>
       <use x="634.375" xlink:href="#DejaVuSans-6d"/>
       <use x="731.787109" xlink:href="#DejaVuSans-61"/>
       <use x="793.066406" xlink:href="#DejaVuSans-78"/>
       <use x="852.246094" xlink:href="#DejaVuSans-69"/>
       <use x="880.029297" xlink:href="#DejaVuSans-6d"/>
       <use x="977.441406" xlink:href="#DejaVuSans-75"/>
       <use x="1040.820312" xlink:href="#DejaVuSans-6d"/>
       <use x="1138.232422" xlink:href="#DejaVuSans-20"/>
       <use x="1170.019531" xlink:href="#DejaVuSans-4d"/>
       <use x="1256.298828" xlink:href="#DejaVuSans-65"/>
       <use x="1317.822266" xlink:href="#DejaVuSans-6c"/>
       <use x="1345.605469" xlink:href="#DejaVuSans-74"/>
       <use x="1384.814453" xlink:href="#DejaVuSans-69"/>
       <use x="1412.597656" xlink:href="#DejaVuSans-6e"/>
       <use x="1475.976562" xlink:href="#DejaVuSans-67"/>
       <use x="1539.453125" xlink:href="#DejaVuSans-54"/>
      </g>
     </g>
    </g>
    <g id="ytick_3">
     <g id="line2d_9">
      <g>
       <use style="stroke:#000000;stroke-width:0.8;" x="715.885714" xlink:href="#m23133dea0c" y="122.98"/>
      </g>
     </g>
     <g id="text_10">
      <!-- MagpieData mode MeltingT -->
      <g transform="translate(570.856027 126.779219)scale(0.1 -0.1)">
       <defs>
        <path d="M 2906 2969 
L 2906 4863 
L 3481 4863 
L 3481 0 
L 2906 0 
L 2906 525 
Q 2725 213 2448 61 
Q 2172 -91 1784 -91 
Q 1150 -91 751 415 
Q 353 922 353 1747 
Q 353 2572 751 3078 
Q 1150 3584 1784 3584 
Q 2172 3584 2448 3432 
Q 2725 3281 2906 2969 
z
M 947 1747 
Q 947 1113 1208 752 
Q 1469 391 1925 391 
Q 2381 391 2643 752 
Q 2906 1113 2906 1747 
Q 2906 2381 2643 2742 
Q 2381 3103 1925 3103 
Q 1469 3103 1208 2742 
Q 947 2381 947 1747 
z
" id="DejaVuSans-64" transform="scale(0.015625)"/>
       </defs>
       <use xlink:href="#DejaVuSans-4d"/>
       <use x="86.279297" xlink:href="#DejaVuSans-61"/>
       <use x="147.558594" xlink:href="#DejaVuSans-67"/>
       <use x="211.035156" xlink:href="#DejaVuSans-70"/>
       <use x="274.511719" xlink:href="#DejaVuSans-69"/>
       <use x="302.294922" xlink:href="#DejaVuSans-65"/>
       <use x="363.818359" xlink:href="#DejaVuSans-44"/>
       <use x="440.820312" xlink:href="#DejaVuSans-61"/>
       <use x="502.099609" xlink:href="#DejaVuSans-74"/>
       <use x="541.308594" xlink:href="#DejaVuSans-61"/>
       <use x="602.587891" xlink:href="#DejaVuSans-20"/>
       <use x="634.375" xlink:href="#DejaVuSans-6d"/>
       <use x="731.787109" xlink:href="#DejaVuSans-6f"/>
       <use x="792.96875" xlink:href="#DejaVuSans-64"/>
       <use x="856.445312" xlink:href="#DejaVuSans-65"/>
       <use x="917.96875" xlink:href="#DejaVuSans-20"/>
       <use x="949.755859" xlink:href="#DejaVuSans-4d"/>
       <use x="1036.035156" xlink:href="#DejaVuSans-65"/>
       <use x="1097.558594" xlink:href="#DejaVuSans-6c"/>
       <use x="1125.341797" xlink:href="#DejaVuSans-74"/>
       <use x="1164.550781" xlink:href="#DejaVuSans-69"/>
       <use x="1192.333984" xlink:href="#DejaVuSans-6e"/>
       <use x="1255.712891" xlink:href="#DejaVuSans-67"/>
       <use x="1319.189453" xlink:href="#DejaVuSans-54"/>
      </g>
     </g>
    </g>
    <g id="ytick_4">
     <g id="line2d_10">
      <g>
       <use style="stroke:#000000;stroke-width:0.8;" x="715.885714" xlink:href="#m23133dea0c" y="148.646667"/>
      </g>
     </g>
     <g id="text_11">
      <!-- MagpieData minimum MeltingT -->
      <g transform="translate(551.763839 152.445885)scale(0.1 -0.1)">
       <use xlink:href="#DejaVuSans-4d"/>
       <use x="86.279297" xlink:href="#DejaVuSans-61"/>
       <use x="147.558594" xlink:href="#DejaVuSans-67"/>
       <use x="211.035156" xlink:href="#DejaVuSans-70"/>
       <use x="274.511719" xlink:href="#DejaVuSans-69"/>
       <use x="302.294922" xlink:href="#DejaVuSans-65"/>
       <use x="363.818359" xlink:href="#DejaVuSans-44"/>
       <use x="440.820312" xlink:href="#DejaVuSans-61"/>
       <use x="502.099609" xlink:href="#DejaVuSans-74"/>
       <use x="541.308594" xlink:href="#DejaVuSans-61"/>
       <use x="602.587891" xlink:href="#DejaVuSans-20"/>
       <use x="634.375" xlink:href="#DejaVuSans-6d"/>
       <use x="731.787109" xlink:href="#DejaVuSans-69"/>
       <use x="759.570312" xlink:href="#DejaVuSans-6e"/>
       <use x="822.949219" xlink:href="#DejaVuSans-69"/>
       <use x="850.732422" xlink:href="#DejaVuSans-6d"/>
       <use x="948.144531" xlink:href="#DejaVuSans-75"/>
       <use x="1011.523438" xlink:href="#DejaVuSans-6d"/>
       <use x="1108.935547" xlink:href="#DejaVuSans-20"/>
       <use x="1140.722656" xlink:href="#DejaVuSans-4d"/>
       <use x="1227.001953" xlink:href="#DejaVuSans-65"/>
       <use x="1288.525391" xlink:href="#DejaVuSans-6c"/>
       <use x="1316.308594" xlink:href="#DejaVuSans-74"/>
       <use x="1355.517578" xlink:href="#DejaVuSans-69"/>
       <use x="1383.300781" xlink:href="#DejaVuSans-6e"/>
       <use x="1446.679688" xlink:href="#DejaVuSans-67"/>
       <use x="1510.15625" xlink:href="#DejaVuSans-54"/>
      </g>
     </g>
    </g>
    <g id="ytick_5">
     <g id="line2d_11">
      <g>
       <use style="stroke:#000000;stroke-width:0.8;" x="715.885714" xlink:href="#m23133dea0c" y="174.313333"/>
      </g>
     </g>
     <g id="text_12">
      <!-- MagpieData minimum SpaceGroupNumber -->
      <g transform="translate(493.727902 178.112552)scale(0.1 -0.1)">
       <defs>
        <path d="M 3425 4513 
L 3425 3897 
Q 3066 4069 2747 4153 
Q 2428 4238 2131 4238 
Q 1616 4238 1336 4038 
Q 1056 3838 1056 3469 
Q 1056 3159 1242 3001 
Q 1428 2844 1947 2747 
L 2328 2669 
Q 3034 2534 3370 2195 
Q 3706 1856 3706 1288 
Q 3706 609 3251 259 
Q 2797 -91 1919 -91 
Q 1588 -91 1214 -16 
Q 841 59 441 206 
L 441 856 
Q 825 641 1194 531 
Q 1563 422 1919 422 
Q 2459 422 2753 634 
Q 3047 847 3047 1241 
Q 3047 1584 2836 1778 
Q 2625 1972 2144 2069 
L 1759 2144 
Q 1053 2284 737 2584 
Q 422 2884 422 3419 
Q 422 4038 858 4394 
Q 1294 4750 2059 4750 
Q 2388 4750 2728 4690 
Q 3069 4631 3425 4513 
z
" id="DejaVuSans-53" transform="scale(0.015625)"/>
        <path d="M 3809 666 
L 3809 1919 
L 2778 1919 
L 2778 2438 
L 4434 2438 
L 4434 434 
Q 4069 175 3628 42 
Q 3188 -91 2688 -91 
Q 1594 -91 976 548 
Q 359 1188 359 2328 
Q 359 3472 976 4111 
Q 1594 4750 2688 4750 
Q 3144 4750 3555 4637 
Q 3966 4525 4313 4306 
L 4313 3634 
Q 3963 3931 3569 4081 
Q 3175 4231 2741 4231 
Q 1884 4231 1454 3753 
Q 1025 3275 1025 2328 
Q 1025 1384 1454 906 
Q 1884 428 2741 428 
Q 3075 428 3337 486 
Q 3600 544 3809 666 
z
" id="DejaVuSans-47" transform="scale(0.015625)"/>
        <path d="M 628 4666 
L 1478 4666 
L 3547 763 
L 3547 4666 
L 4159 4666 
L 4159 0 
L 3309 0 
L 1241 3903 
L 1241 0 
L 628 0 
L 628 4666 
z
" id="DejaVuSans-4e" transform="scale(0.015625)"/>
        <path d="M 3116 1747 
Q 3116 2381 2855 2742 
Q 2594 3103 2138 3103 
Q 1681 3103 1420 2742 
Q 1159 2381 1159 1747 
Q 1159 1113 1420 752 
Q 1681 391 2138 391 
Q 2594 391 2855 752 
Q 3116 1113 3116 1747 
z
M 1159 2969 
Q 1341 3281 1617 3432 
Q 1894 3584 2278 3584 
Q 2916 3584 3314 3078 
Q 3713 2572 3713 1747 
Q 3713 922 3314 415 
Q 2916 -91 2278 -91 
Q 1894 -91 1617 61 
Q 1341 213 1159 525 
L 1159 0 
L 581 0 
L 581 4863 
L 1159 4863 
L 1159 2969 
z
" id="DejaVuSans-62" transform="scale(0.015625)"/>
       </defs>
       <use xlink:href="#DejaVuSans-4d"/>
       <use x="86.279297" xlink:href="#DejaVuSans-61"/>
       <use x="147.558594" xlink:href="#DejaVuSans-67"/>
       <use x="211.035156" xlink:href="#DejaVuSans-70"/>
       <use x="274.511719" xlink:href="#DejaVuSans-69"/>
       <use x="302.294922" xlink:href="#DejaVuSans-65"/>
       <use x="363.818359" xlink:href="#DejaVuSans-44"/>
       <use x="440.820312" xlink:href="#DejaVuSans-61"/>
       <use x="502.099609" xlink:href="#DejaVuSans-74"/>
       <use x="541.308594" xlink:href="#DejaVuSans-61"/>
       <use x="602.587891" xlink:href="#DejaVuSans-20"/>
       <use x="634.375" xlink:href="#DejaVuSans-6d"/>
       <use x="731.787109" xlink:href="#DejaVuSans-69"/>
       <use x="759.570312" xlink:href="#DejaVuSans-6e"/>
       <use x="822.949219" xlink:href="#DejaVuSans-69"/>
       <use x="850.732422" xlink:href="#DejaVuSans-6d"/>
       <use x="948.144531" xlink:href="#DejaVuSans-75"/>
       <use x="1011.523438" xlink:href="#DejaVuSans-6d"/>
       <use x="1108.935547" xlink:href="#DejaVuSans-20"/>
       <use x="1140.722656" xlink:href="#DejaVuSans-53"/>
       <use x="1204.199219" xlink:href="#DejaVuSans-70"/>
       <use x="1267.675781" xlink:href="#DejaVuSans-61"/>
       <use x="1328.955078" xlink:href="#DejaVuSans-63"/>
       <use x="1383.935547" xlink:href="#DejaVuSans-65"/>
       <use x="1445.458984" xlink:href="#DejaVuSans-47"/>
       <use x="1522.949219" xlink:href="#DejaVuSans-72"/>
       <use x="1561.8125" xlink:href="#DejaVuSans-6f"/>
       <use x="1622.994141" xlink:href="#DejaVuSans-75"/>
       <use x="1686.373047" xlink:href="#DejaVuSans-70"/>
       <use x="1749.849609" xlink:href="#DejaVuSans-4e"/>
       <use x="1824.654297" xlink:href="#DejaVuSans-75"/>
       <use x="1888.033203" xlink:href="#DejaVuSans-6d"/>
       <use x="1985.445312" xlink:href="#DejaVuSans-62"/>
       <use x="2048.921875" xlink:href="#DejaVuSans-65"/>
       <use x="2110.445312" xlink:href="#DejaVuSans-72"/>
      </g>
     </g>
    </g>
    <g id="ytick_6">
     <g id="line2d_12">
      <g>
       <use style="stroke:#000000;stroke-width:0.8;" x="715.885714" xlink:href="#m23133dea0c" y="199.98"/>
      </g>
     </g>
     <g id="text_13">
      <!-- MagpieData mean SpaceGroupNumber -->
      <g transform="translate(512.821652 203.779219)scale(0.1 -0.1)">
       <use xlink:href="#DejaVuSans-4d"/>
       <use x="86.279297" xlink:href="#DejaVuSans-61"/>
       <use x="147.558594" xlink:href="#DejaVuSans-67"/>
       <use x="211.035156" xlink:href="#DejaVuSans-70"/>
       <use x="274.511719" xlink:href="#DejaVuSans-69"/>
       <use x="302.294922" xlink:href="#DejaVuSans-65"/>
       <use x="363.818359" xlink:href="#DejaVuSans-44"/>
       <use x="440.820312" xlink:href="#DejaVuSans-61"/>
       <use x="502.099609" xlink:href="#DejaVuSans-74"/>
       <use x="541.308594" xlink:href="#DejaVuSans-61"/>
       <use x="602.587891" xlink:href="#DejaVuSans-20"/>
       <use x="634.375" xlink:href="#DejaVuSans-6d"/>
       <use x="731.787109" xlink:href="#DejaVuSans-65"/>
       <use x="793.310547" xlink:href="#DejaVuSans-61"/>
       <use x="854.589844" xlink:href="#DejaVuSans-6e"/>
       <use x="917.96875" xlink:href="#DejaVuSans-20"/>
       <use x="949.755859" xlink:href="#DejaVuSans-53"/>
       <use x="1013.232422" xlink:href="#DejaVuSans-70"/>
       <use x="1076.708984" xlink:href="#DejaVuSans-61"/>
       <use x="1137.988281" xlink:href="#DejaVuSans-63"/>
       <use x="1192.96875" xlink:href="#DejaVuSans-65"/>
       <use x="1254.492188" xlink:href="#DejaVuSans-47"/>
       <use x="1331.982422" xlink:href="#DejaVuSans-72"/>
       <use x="1370.845703" xlink:href="#DejaVuSans-6f"/>
       <use x="1432.027344" xlink:href="#DejaVuSans-75"/>
       <use x="1495.40625" xlink:href="#DejaVuSans-70"/>
       <use x="1558.882812" xlink:href="#DejaVuSans-4e"/>
       <use x="1633.6875" xlink:href="#DejaVuSans-75"/>
       <use x="1697.066406" xlink:href="#DejaVuSans-6d"/>
       <use x="1794.478516" xlink:href="#DejaVuSans-62"/>
       <use x="1857.955078" xlink:href="#DejaVuSans-65"/>
       <use x="1919.478516" xlink:href="#DejaVuSans-72"/>
      </g>
     </g>
    </g>
    <g id="ytick_7">
     <g id="line2d_13">
      <g>
       <use style="stroke:#000000;stroke-width:0.8;" x="715.885714" xlink:href="#m23133dea0c" y="225.646667"/>
      </g>
     </g>
     <g id="text_14">
      <!-- MagpieData mode SpaceGroupNumber -->
      <g transform="translate(512.820089 229.445885)scale(0.1 -0.1)">
       <use xlink:href="#DejaVuSans-4d"/>
       <use x="86.279297" xlink:href="#DejaVuSans-61"/>
       <use x="147.558594" xlink:href="#DejaVuSans-67"/>
       <use x="211.035156" xlink:href="#DejaVuSans-70"/>
       <use x="274.511719" xlink:href="#DejaVuSans-69"/>
       <use x="302.294922" xlink:href="#DejaVuSans-65"/>
       <use x="363.818359" xlink:href="#DejaVuSans-44"/>
       <use x="440.820312" xlink:href="#DejaVuSans-61"/>
       <use x="502.099609" xlink:href="#DejaVuSans-74"/>
       <use x="541.308594" xlink:href="#DejaVuSans-61"/>
       <use x="602.587891" xlink:href="#DejaVuSans-20"/>
       <use x="634.375" xlink:href="#DejaVuSans-6d"/>
       <use x="731.787109" xlink:href="#DejaVuSans-6f"/>
       <use x="792.96875" xlink:href="#DejaVuSans-64"/>
       <use x="856.445312" xlink:href="#DejaVuSans-65"/>
       <use x="917.96875" xlink:href="#DejaVuSans-20"/>
       <use x="949.755859" xlink:href="#DejaVuSans-53"/>
       <use x="1013.232422" xlink:href="#DejaVuSans-70"/>
       <use x="1076.708984" xlink:href="#DejaVuSans-61"/>
       <use x="1137.988281" xlink:href="#DejaVuSans-63"/>
       <use x="1192.96875" xlink:href="#DejaVuSans-65"/>
       <use x="1254.492188" xlink:href="#DejaVuSans-47"/>
       <use x="1331.982422" xlink:href="#DejaVuSans-72"/>
       <use x="1370.845703" xlink:href="#DejaVuSans-6f"/>
       <use x="1432.027344" xlink:href="#DejaVuSans-75"/>
       <use x="1495.40625" xlink:href="#DejaVuSans-70"/>
       <use x="1558.882812" xlink:href="#DejaVuSans-4e"/>
       <use x="1633.6875" xlink:href="#DejaVuSans-75"/>
       <use x="1697.066406" xlink:href="#DejaVuSans-6d"/>
       <use x="1794.478516" xlink:href="#DejaVuSans-62"/>
       <use x="1857.955078" xlink:href="#DejaVuSans-65"/>
       <use x="1919.478516" xlink:href="#DejaVuSans-72"/>
      </g>
     </g>
    </g>
    <g id="ytick_8">
     <g id="line2d_14">
      <g>
       <use style="stroke:#000000;stroke-width:0.8;" x="715.885714" xlink:href="#m23133dea0c" y="251.313333"/>
      </g>
     </g>
     <g id="text_15">
      <!-- Concentration -->
      <g transform="translate(638.143527 255.112552)scale(0.1 -0.1)">
       <defs>
        <path d="M 4122 4306 
L 4122 3641 
Q 3803 3938 3442 4084 
Q 3081 4231 2675 4231 
Q 1875 4231 1450 3742 
Q 1025 3253 1025 2328 
Q 1025 1406 1450 917 
Q 1875 428 2675 428 
Q 3081 428 3442 575 
Q 3803 722 4122 1019 
L 4122 359 
Q 3791 134 3420 21 
Q 3050 -91 2638 -91 
Q 1578 -91 968 557 
Q 359 1206 359 2328 
Q 359 3453 968 4101 
Q 1578 4750 2638 4750 
Q 3056 4750 3426 4639 
Q 3797 4528 4122 4306 
z
" id="DejaVuSans-43" transform="scale(0.015625)"/>
       </defs>
       <use xlink:href="#DejaVuSans-43"/>
       <use x="69.824219" xlink:href="#DejaVuSans-6f"/>
       <use x="131.005859" xlink:href="#DejaVuSans-6e"/>
       <use x="194.384766" xlink:href="#DejaVuSans-63"/>
       <use x="249.365234" xlink:href="#DejaVuSans-65"/>
       <use x="310.888672" xlink:href="#DejaVuSans-6e"/>
       <use x="374.267578" xlink:href="#DejaVuSans-74"/>
       <use x="413.476562" xlink:href="#DejaVuSans-72"/>
       <use x="454.589844" xlink:href="#DejaVuSans-61"/>
       <use x="515.869141" xlink:href="#DejaVuSans-74"/>
       <use x="555.078125" xlink:href="#DejaVuSans-69"/>
       <use x="582.861328" xlink:href="#DejaVuSans-6f"/>
       <use x="644.042969" xlink:href="#DejaVuSans-6e"/>
      </g>
     </g>
    </g>
    <g id="ytick_9">
     <g id="line2d_15">
      <g>
       <use style="stroke:#000000;stroke-width:0.8;" x="715.885714" xlink:href="#m23133dea0c" y="276.98"/>
      </g>
     </g>
     <g id="text_16">
      <!-- MagpieData mode GSvolume_pa -->
      <g transform="translate(545.287277 280.779219)scale(0.1 -0.1)">
       <defs>
        <path d="M 191 3500 
L 800 3500 
L 1894 563 
L 2988 3500 
L 3597 3500 
L 2284 0 
L 1503 0 
L 191 3500 
z
" id="DejaVuSans-76" transform="scale(0.015625)"/>
        <path d="M 3263 -1063 
L 3263 -1509 
L -63 -1509 
L -63 -1063 
L 3263 -1063 
z
" id="DejaVuSans-5f" transform="scale(0.015625)"/>
       </defs>
       <use xlink:href="#DejaVuSans-4d"/>
       <use x="86.279297" xlink:href="#DejaVuSans-61"/>
       <use x="147.558594" xlink:href="#DejaVuSans-67"/>
       <use x="211.035156" xlink:href="#DejaVuSans-70"/>
       <use x="274.511719" xlink:href="#DejaVuSans-69"/>
       <use x="302.294922" xlink:href="#DejaVuSans-65"/>
       <use x="363.818359" xlink:href="#DejaVuSans-44"/>
       <use x="440.820312" xlink:href="#DejaVuSans-61"/>
       <use x="502.099609" xlink:href="#DejaVuSans-74"/>
       <use x="541.308594" xlink:href="#DejaVuSans-61"/>
       <use x="602.587891" xlink:href="#DejaVuSans-20"/>
       <use x="634.375" xlink:href="#DejaVuSans-6d"/>
       <use x="731.787109" xlink:href="#DejaVuSans-6f"/>
       <use x="792.96875" xlink:href="#DejaVuSans-64"/>
       <use x="856.445312" xlink:href="#DejaVuSans-65"/>
       <use x="917.96875" xlink:href="#DejaVuSans-20"/>
       <use x="949.755859" xlink:href="#DejaVuSans-47"/>
       <use x="1027.246094" xlink:href="#DejaVuSans-53"/>
       <use x="1090.722656" xlink:href="#DejaVuSans-76"/>
       <use x="1149.902344" xlink:href="#DejaVuSans-6f"/>
       <use x="1211.083984" xlink:href="#DejaVuSans-6c"/>
       <use x="1238.867188" xlink:href="#DejaVuSans-75"/>
       <use x="1302.246094" xlink:href="#DejaVuSans-6d"/>
       <use x="1399.658203" xlink:href="#DejaVuSans-65"/>
       <use x="1461.181641" xlink:href="#DejaVuSans-5f"/>
       <use x="1511.181641" xlink:href="#DejaVuSans-70"/>
       <use x="1574.658203" xlink:href="#DejaVuSans-61"/>
      </g>
     </g>
    </g>
    <g id="ytick_10">
     <g id="line2d_16">
      <g>
       <use style="stroke:#000000;stroke-width:0.8;" x="715.885714" xlink:href="#m23133dea0c" y="302.646667"/>
      </g>
     </g>
     <g id="text_17">
      <!-- MagpieData mean GSvolume_pa -->
      <g transform="translate(545.288839 306.445885)scale(0.1 -0.1)">
       <use xlink:href="#DejaVuSans-4d"/>
       <use x="86.279297" xlink:href="#DejaVuSans-61"/>
       <use x="147.558594" xlink:href="#DejaVuSans-67"/>
       <use x="211.035156" xlink:href="#DejaVuSans-70"/>
       <use x="274.511719" xlink:href="#DejaVuSans-69"/>
       <use x="302.294922" xlink:href="#DejaVuSans-65"/>
       <use x="363.818359" xlink:href="#DejaVuSans-44"/>
       <use x="440.820312" xlink:href="#DejaVuSans-61"/>
       <use x="502.099609" xlink:href="#DejaVuSans-74"/>
       <use x="541.308594" xlink:href="#DejaVuSans-61"/>
       <use x="602.587891" xlink:href="#DejaVuSans-20"/>
       <use x="634.375" xlink:href="#DejaVuSans-6d"/>
       <use x="731.787109" xlink:href="#DejaVuSans-65"/>
       <use x="793.310547" xlink:href="#DejaVuSans-61"/>
       <use x="854.589844" xlink:href="#DejaVuSans-6e"/>
       <use x="917.96875" xlink:href="#DejaVuSans-20"/>
       <use x="949.755859" xlink:href="#DejaVuSans-47"/>
       <use x="1027.246094" xlink:href="#DejaVuSans-53"/>
       <use x="1090.722656" xlink:href="#DejaVuSans-76"/>
       <use x="1149.902344" xlink:href="#DejaVuSans-6f"/>
       <use x="1211.083984" xlink:href="#DejaVuSans-6c"/>
       <use x="1238.867188" xlink:href="#DejaVuSans-75"/>
       <use x="1302.246094" xlink:href="#DejaVuSans-6d"/>
       <use x="1399.658203" xlink:href="#DejaVuSans-65"/>
       <use x="1461.181641" xlink:href="#DejaVuSans-5f"/>
       <use x="1511.181641" xlink:href="#DejaVuSans-70"/>
       <use x="1574.658203" xlink:href="#DejaVuSans-61"/>
      </g>
     </g>
    </g>
    <g id="ytick_11">
     <g id="line2d_17">
      <g>
       <use style="stroke:#000000;stroke-width:0.8;" x="715.885714" xlink:href="#m23133dea0c" y="328.313333"/>
      </g>
     </g>
     <g id="text_18">
      <!-- MagpieData maximum SpaceGroupNumber -->
      <g transform="translate(490.796652 332.112552)scale(0.1 -0.1)">
       <use xlink:href="#DejaVuSans-4d"/>
       <use x="86.279297" xlink:href="#DejaVuSans-61"/>
       <use x="147.558594" xlink:href="#DejaVuSans-67"/>
       <use x="211.035156" xlink:href="#DejaVuSans-70"/>
       <use x="274.511719" xlink:href="#DejaVuSans-69"/>
       <use x="302.294922" xlink:href="#DejaVuSans-65"/>
       <use x="363.818359" xlink:href="#DejaVuSans-44"/>
       <use x="440.820312" xlink:href="#DejaVuSans-61"/>
       <use x="502.099609" xlink:href="#DejaVuSans-74"/>
       <use x="541.308594" xlink:href="#DejaVuSans-61"/>
       <use x="602.587891" xlink:href="#DejaVuSans-20"/>
       <use x="634.375" xlink:href="#DejaVuSans-6d"/>
       <use x="731.787109" xlink:href="#DejaVuSans-61"/>
       <use x="793.066406" xlink:href="#DejaVuSans-78"/>
       <use x="852.246094" xlink:href="#DejaVuSans-69"/>
       <use x="880.029297" xlink:href="#DejaVuSans-6d"/>
       <use x="977.441406" xlink:href="#DejaVuSans-75"/>
       <use x="1040.820312" xlink:href="#DejaVuSans-6d"/>
       <use x="1138.232422" xlink:href="#DejaVuSans-20"/>
       <use x="1170.019531" xlink:href="#DejaVuSans-53"/>
       <use x="1233.496094" xlink:href="#DejaVuSans-70"/>
       <use x="1296.972656" xlink:href="#DejaVuSans-61"/>
       <use x="1358.251953" xlink:href="#DejaVuSans-63"/>
       <use x="1413.232422" xlink:href="#DejaVuSans-65"/>
       <use x="1474.755859" xlink:href="#DejaVuSans-47"/>
       <use x="1552.246094" xlink:href="#DejaVuSans-72"/>
       <use x="1591.109375" xlink:href="#DejaVuSans-6f"/>
       <use x="1652.291016" xlink:href="#DejaVuSans-75"/>
       <use x="1715.669922" xlink:href="#DejaVuSans-70"/>
       <use x="1779.146484" xlink:href="#DejaVuSans-4e"/>
       <use x="1853.951172" xlink:href="#DejaVuSans-75"/>
       <use x="1917.330078" xlink:href="#DejaVuSans-6d"/>
       <use x="2014.742188" xlink:href="#DejaVuSans-62"/>
       <use x="2078.21875" xlink:href="#DejaVuSans-65"/>
       <use x="2139.742188" xlink:href="#DejaVuSans-72"/>
      </g>
     </g>
    </g>
   </g>
   <g id="patch_14">
    <path d="M 715.885714 352.44 
L 715.885714 47.52 
" style="fill:none;stroke:#000000;stroke-linecap:square;stroke-linejoin:miter;stroke-width:0.8;"/>
   </g>
   <g id="patch_15">
    <path d="M 1166.4 352.44 
L 1166.4 47.52 
" style="fill:none;stroke:#000000;stroke-linecap:square;stroke-linejoin:miter;stroke-width:0.8;"/>
   </g>
   <g id="patch_16">
    <path d="M 715.885714 352.44 
L 1166.4 352.44 
" style="fill:none;stroke:#000000;stroke-linecap:square;stroke-linejoin:miter;stroke-width:0.8;"/>
   </g>
   <g id="patch_17">
    <path d="M 715.885714 47.52 
L 1166.4 47.52 
" style="fill:none;stroke:#000000;stroke-linecap:square;stroke-linejoin:miter;stroke-width:0.8;"/>
   </g>
  </g>
 </g>
 <defs>
  <clipPath id="p9184f13e4c">
   <rect height="304.92" width="450.514286" x="715.885714" y="47.52"/>
  </clipPath>
 </defs>
</svg>
