<svg width="3333" height="983" xmlns="http://www.w3.org/2000/svg" xmlns:xlink="http://www.w3.org/1999/xlink" xml:space="preserve" overflow="hidden"><defs><clipPath id="clip0"><rect x="2109" y="318" width="3333" height="983"/></clipPath><clipPath id="clip1"><rect x="2108" y="324" width="1702" height="976"/></clipPath><clipPath id="clip2"><rect x="2108" y="324" width="1702" height="976"/></clipPath><clipPath id="clip3"><rect x="2348" y="490" width="1089" height="619"/></clipPath><clipPath id="clip4"><rect x="2348" y="490" width="1089" height="619"/></clipPath><clipPath id="clip5"><rect x="2348" y="490" width="1089" height="616"/></clipPath><clipPath id="clip6"><rect x="2348" y="490" width="1089" height="616"/></clipPath><clipPath id="clip7"><rect x="2348" y="490" width="1089" height="616"/></clipPath><clipPath id="clip8"><rect x="2348" y="490" width="1089" height="616"/></clipPath><clipPath id="clip9"><rect x="2348" y="490" width="1089" height="616"/></clipPath><clipPath id="clip10"><rect x="2348" y="490" width="1089" height="616"/></clipPath><clipPath id="clip11"><rect x="2348" y="490" width="1089" height="616"/></clipPath><clipPath id="clip12"><rect x="2348" y="490" width="1089" height="616"/></clipPath><clipPath id="clip13"><rect x="2108" y="324" width="1702" height="976"/></clipPath><clipPath id="clip14"><rect x="2348" y="490" width="1086" height="616"/></clipPath><clipPath id="clip15"><rect x="2108" y="324" width="1702" height="976"/></clipPath><clipPath id="clip16"><rect x="2108" y="324" width="1702" height="976"/></clipPath><clipPath id="clip17"><rect x="2108" y="324" width="1702" height="976"/></clipPath><clipPath id="clip18"><rect x="2108" y="324" width="1702" height="976"/></clipPath><clipPath id="clip19"><rect x="2108" y="324" width="1702" height="976"/></clipPath><clipPath id="clip20"><rect x="2108" y="324" width="1702" height="976"/></clipPath><clipPath id="clip21"><rect x="2108" y="324" width="1702" height="976"/></clipPath><clipPath id="clip22"><rect x="2108" y="324" width="1702" height="976"/></clipPath><clipPath id="clip23"><rect x="2108" y="324" width="1702" height="976"/></clipPath><clipPath id="clip24"><rect x="2108" y="324" width="1702" height="976"/></clipPath><clipPath id="clip25"><rect x="2108" y="324" width="1702" height="976"/></clipPath><clipPath id="clip26"><rect x="2108" y="324" width="1702" height="976"/></clipPath><clipPath id="clip27"><rect x="2108" y="324" width="1702" height="976"/></clipPath><clipPath id="clip28"><rect x="2108" y="324" width="1702" height="976"/></clipPath><clipPath id="clip29"><rect x="2108" y="324" width="1702" height="976"/></clipPath><clipPath id="clip30"><rect x="2108" y="324" width="1702" height="976"/></clipPath><clipPath id="clip31"><rect x="2108" y="324" width="1702" height="976"/></clipPath><clipPath id="clip32"><rect x="2108" y="324" width="1702" height="976"/></clipPath><clipPath id="clip33"><rect x="2108" y="324" width="1702" height="976"/></clipPath><clipPath id="clip34"><rect x="2108" y="324" width="1702" height="976"/></clipPath><clipPath id="clip35"><rect x="2108" y="324" width="1702" height="976"/></clipPath><clipPath id="clip36"><rect x="2108" y="324" width="1702" height="976"/></clipPath><clipPath id="clip37"><rect x="3786" y="317" width="1655" height="978"/></clipPath><clipPath id="clip38"><rect x="3786" y="317" width="1655" height="978"/></clipPath><clipPath id="clip39"><rect x="4002" y="483" width="1067" height="621"/></clipPath><clipPath id="clip40"><rect x="4002" y="483" width="1067" height="621"/></clipPath><clipPath id="clip41"><rect x="4002" y="483" width="1067" height="617"/></clipPath><clipPath id="clip42"><rect x="4002" y="483" width="1067" height="617"/></clipPath><clipPath id="clip43"><rect x="4002" y="483" width="1067" height="617"/></clipPath><clipPath id="clip44"><rect x="4002" y="483" width="1067" height="617"/></clipPath><clipPath id="clip45"><rect x="4002" y="483" width="1067" height="617"/></clipPath><clipPath id="clip46"><rect x="4002" y="483" width="1067" height="617"/></clipPath><clipPath id="clip47"><rect x="4002" y="483" width="1067" height="617"/></clipPath><clipPath id="clip48"><rect x="4002" y="483" width="1067" height="617"/></clipPath><clipPath id="clip49"><rect x="3786" y="317" width="1655" height="978"/></clipPath><clipPath id="clip50"><rect x="4002" y="483" width="1063" height="617"/></clipPath><clipPath id="clip51"><rect x="3786" y="317" width="1655" height="978"/></clipPath><clipPath id="clip52"><rect x="3786" y="317" width="1655" height="978"/></clipPath><clipPath id="clip53"><rect x="3786" y="317" width="1655" height="978"/></clipPath><clipPath id="clip54"><rect x="3786" y="317" width="1655" height="978"/></clipPath><clipPath id="clip55"><rect x="3786" y="317" width="1655" height="978"/></clipPath><clipPath id="clip56"><rect x="3786" y="317" width="1655" height="978"/></clipPath><clipPath id="clip57"><rect x="3786" y="317" width="1655" height="978"/></clipPath><clipPath id="clip58"><rect x="3786" y="317" width="1655" height="978"/></clipPath><clipPath id="clip59"><rect x="3786" y="317" width="1655" height="978"/></clipPath><clipPath id="clip60"><rect x="3786" y="317" width="1655" height="978"/></clipPath><clipPath id="clip61"><rect x="3786" y="317" width="1655" height="978"/></clipPath><clipPath id="clip62"><rect x="3786" y="317" width="1655" height="978"/></clipPath><clipPath id="clip63"><rect x="3786" y="317" width="1655" height="978"/></clipPath><clipPath id="clip64"><rect x="3786" y="317" width="1655" height="978"/></clipPath><clipPath id="clip65"><rect x="3786" y="317" width="1655" height="978"/></clipPath><clipPath id="clip66"><rect x="3786" y="317" width="1655" height="978"/></clipPath><clipPath id="clip67"><rect x="3786" y="317" width="1655" height="978"/></clipPath><clipPath id="clip68"><rect x="3786" y="317" width="1655" height="978"/></clipPath><clipPath id="clip69"><rect x="3786" y="317" width="1655" height="978"/></clipPath><clipPath id="clip70"><rect x="3786" y="317" width="1655" height="978"/></clipPath><clipPath id="clip71"><rect x="3786" y="317" width="1655" height="978"/></clipPath></defs><g clip-path="url(#clip0)" transform="translate(-2109 -318)"><rect x="2109" y="325" width="1701" height="976" fill="#FFFFFF"/><g clip-path="url(#clip1)"><path d="M2348.5 1093.54 3434.5 1093.54M2348.5 1081.54 3434.5 1081.54M2348.5 1069.54 3434.5 1069.54M2348.5 1056.53 3434.5 1056.53M2348.5 1032.53 3434.5 1032.53M2348.5 1019.53 3434.5 1019.53M2348.5 1007.53 3434.5 1007.53M2348.5 995.533 3434.5 995.533M2348.5 970.532 3434.5 970.532M2348.5 958.532 3434.5 958.532M2348.5 946.531 3434.5 946.531M2348.5 933.531 3434.5 933.531M2348.5 909.53 3434.5 909.53M2348.5 896.53 3434.5 896.53M2348.5 884.529 3434.5 884.529M2348.5 872.529 3434.5 872.529M2348.5 847.528 3434.5 847.528M2348.5 835.528 3434.5 835.528M2348.5 822.527 3434.5 822.527M2348.5 810.527 3434.5 810.527M2348.5 785.526 3434.5 785.526M2348.5 773.526 3434.5 773.526M2348.5 761.525 3434.5 761.525M2348.5 748.525 3434.5 748.525M2348.5 724.524 3434.5 724.524M2348.5 711.523 3434.5 711.523M2348.5 699.523 3434.5 699.523M2348.5 687.523 3434.5 687.523M2348.5 662.522 3434.5 662.522M2348.5 650.521 3434.5 650.521M2348.5 637.521 3434.5 637.521M2348.5 625.521 3434.5 625.521M2348.5 600.52 3434.5 600.52M2348.5 588.519 3434.5 588.519M2348.5 576.519 3434.5 576.519M2348.5 564.519 3434.5 564.519M2348.5 539.518 3434.5 539.518M2348.5 527.517 3434.5 527.517M2348.5 514.517 3434.5 514.517M2348.5 502.517 3434.5 502.517" stroke="#F2F2F2" stroke-width="3.4375" stroke-linejoin="round" stroke-miterlimit="10" fill="none"/></g><g clip-path="url(#clip2)"><path d="M2348.5 1044.53 3434.5 1044.53M2348.5 983.532 3434.5 983.532M2348.5 921.53 3434.5 921.53M2348.5 859.528 3434.5 859.528M2348.5 798.526 3434.5 798.526M2348.5 736.524 3434.5 736.524M2348.5 674.522 3434.5 674.522M2348.5 613.52 3434.5 613.52M2348.5 551.518 3434.5 551.518M2348.5 490.5 3434.5 490.5" stroke="#D9D9D9" stroke-width="3.4375" stroke-linejoin="round" stroke-miterlimit="10" fill="none"/></g><g clip-path="url(#clip3)"><path d="M2406.08 536.018 2484.08 536.018 2484.08 1106 2406.08 1106ZM2678.09 544.018 2755.09 544.018 2755.09 1106 2678.09 1106ZM2949.1 564.018 3027.1 564.018 3027.1 1106 2949.1 1106ZM3221.11 576.019 3298.11 576.019 3298.11 1106 3221.11 1106Z" fill="#4472C4"/></g><g clip-path="url(#clip4)"><path d="M2484.08 693.023 2561.08 693.023 2561.08 1106 2484.08 1106ZM2755.09 705.023 2833.09 705.023 2833.09 1106 2755.09 1106ZM3027.1 694.023 3104.1 694.023 3104.1 1106 3027.1 1106ZM3298.11 710.023 3376.11 710.023 3376.11 1106 3298.11 1106Z" fill="#ED7D31"/></g><g clip-path="url(#clip5)"><path d="M2445.58 536.518 2445.58 573.5M2445.58 536.518 2445.58 498.5M2434.5 573.5 2455.5 573.5M2434.5 498.5 2455.5 498.5" stroke="#595959" stroke-width="3.4375" stroke-linejoin="round" stroke-miterlimit="10" fill="none"/></g><g clip-path="url(#clip6)"><path d="M2716.59 544.518 2716.59 580.5M2716.59 544.518 2716.59 507.5M2706.5 580.5 2726.5 580.5M2706.5 507.5 2726.5 507.5" stroke="#595959" stroke-width="3.4375" stroke-linejoin="round" stroke-miterlimit="10" fill="none"/></g><g clip-path="url(#clip7)"><path d="M2988.6 563.519 2988.6 607.5M2988.6 563.519 2988.6 520.5M2977.5 607.5 2998.5 607.5M2977.5 520.5 2998.5 520.5" stroke="#595959" stroke-width="3.4375" stroke-linejoin="round" stroke-miterlimit="10" fill="none"/></g><g clip-path="url(#clip8)"><path d="M3259.61 576.519 3259.61 623.5M3259.61 576.519 3259.61 528.5M3249.5 623.5 3269.5 623.5M3249.5 528.5 3269.5 528.5" stroke="#595959" stroke-width="3.4375" stroke-linejoin="round" stroke-miterlimit="10" fill="none"/></g><g clip-path="url(#clip9)"><path d="M2522.58 692.523 2522.58 716.5M2522.58 692.523 2522.58 668.5M2512.5 716.5 2533.5 716.5M2512.5 668.5 2533.5 668.5" stroke="#595959" stroke-width="3.4375" stroke-linejoin="round" stroke-miterlimit="10" fill="none"/></g><g clip-path="url(#clip10)"><path d="M2794.59 704.523 2794.59 748.5M2794.59 704.523 2794.59 660.5M2783.5 748.5 2804.5 748.5M2783.5 660.5 2804.5 660.5" stroke="#595959" stroke-width="3.4375" stroke-linejoin="round" stroke-miterlimit="10" fill="none"/></g><g clip-path="url(#clip11)"><path d="M3065.6 693.523 3065.6 722.5M3065.6 693.523 3065.6 665.5M3055.5 722.5 3076.5 722.5M3055.5 665.5 3076.5 665.5" stroke="#595959" stroke-width="3.4375" stroke-linejoin="round" stroke-miterlimit="10" fill="none"/></g><g clip-path="url(#clip12)"><path d="M3337.61 710.523 3337.61 735.5M3337.61 710.523 3337.61 684.5M3326.5 735.5 3347.5 735.5M3326.5 684.5 3347.5 684.5" stroke="#595959" stroke-width="3.4375" stroke-linejoin="round" stroke-miterlimit="10" fill="none"/></g><g clip-path="url(#clip13)"><path d="M2348.5 1106.5 3434.5 1106.5" stroke="#D9D9D9" stroke-width="3.4375" stroke-linejoin="round" stroke-miterlimit="10" fill="none" fill-rule="evenodd"/></g><g clip-path="url(#clip14)"><path d="M2483.5 692.5 2486.58 693.523 2488.58 693.523 2491.58 693.523 2494.58 694.523 2496.58 694.523 2499.58 694.523 2501.58 695.523 2504.58 695.523 2507.58 695.523 2509.58 696.523 2512.58 696.523 2514.58 696.523 2517.58 697.523 2520.58 697.523 2522.58 697.523 2525.58 698.523 2527.58 698.523 2530.58 698.523 2532.58 698.523 2535.58 699.523 2538.58 699.523 2540.58 699.523 2543.58 699.523 2545.58 700.523 2548.58 700.523 2551.58 700.523 2553.58 700.523 2556.58 701.523 2558.58 701.523 2561.58 701.523 2563.58 701.523 2566.58 701.523 2569.58 702.523 2571.58 702.523 2574.58 702.523 2576.58 702.523 2579.58 702.523 2582.58 702.523 2584.58 703.523 2587.58 703.523 2589.58 703.523 2592.59 703.523 2595.59 703.523 2597.59 703.523 2600.59 703.523 2602.59 704.523 2605.59 704.523 2607.59 704.523 2610.59 704.523 2613.59 704.523 2615.59 704.523 2618.59 704.523 2620.59 704.523 2623.59 704.523 2626.59 705.523 2628.59 705.523 2631.59 705.523 2633.59 705.523 2636.59 705.523 2638.59 705.523 2641.59 705.523 2644.59 705.523 2646.59 705.523 2649.59 705.523 2651.59 705.523 2654.59 705.523 2657.59 705.523 2659.59 705.523 2662.59 705.523 2664.59 705.523 2667.59 705.523 2670.59 705.523 2672.59 705.523 2675.59 705.523 2677.59 705.523 2680.59 705.523 2682.59 705.523 2685.59 705.523 2688.59 705.523 2690.59 705.523 2693.59 705.523 2695.59 705.523 2698.59 705.523 2701.59 705.523 2703.59 705.523 2706.59 705.523 2708.59 705.523 2711.59 705.523 2713.59 705.523 2716.59 705.523 2719.59 705.523 2721.59 705.523 2724.59 705.523 2726.59 705.523 2729.59 705.523 2732.59 705.523 2734.59 705.523 2737.59 705.523 2739.59 705.523 2742.59 705.523 2744.59 705.523 2747.59 704.523 2750.59 704.523 2752.59 704.523 2755.59 704.523 2757.59 704.523 2760.59 704.523 2763.59 704.523 2765.59 704.523 2768.59 704.523 2770.59 704.523 2773.59 704.523 2776.59 704.523 2778.59 703.523 2781.59 703.523 2783.59 703.523 2786.59 703.523 2788.59 703.523 2791.59 703.523 2794.59 703.523 2796.59 703.523 2799.59 703.523 2801.59 703.523 2804.59 702.523 2807.59 702.523 2809.59 702.523 2812.59 702.523 2814.59 702.523 2817.59 702.523 2819.59 702.523 2822.59 702.523 2825.59 702.523 2827.59 701.523 2830.59 701.523 2832.59 701.523 2835.59 701.523 2838.59 701.523 2840.59 701.523 2843.59 701.523 2845.59 701.523 2848.59 700.523 2851.59 700.523 2853.59 700.523 2856.59 700.523 2858.59 700.523 2861.59 700.523 2863.59 700.523 2866.59 700.523 2869.59 699.523 2871.59 699.523 2874.59 699.523 2876.59 699.523 2879.59 699.523 2882.59 699.523 2884.59 699.523 2887.59 699.523 2889.59 698.523 2892.59 698.523 2894.59 698.523 2897.6 698.523 2900.6 698.523 2902.6 698.523 2905.6 698.523 2907.6 698.523 2910.6 697.523 2913.6 697.523 2915.6 697.523 2918.6 697.523 2920.6 697.523 2923.6 697.523 2925.6 697.523 2928.6 697.523 2931.6 696.523 2933.6 696.523 2936.6 696.523 2938.6 696.523 2941.6 696.523 2944.6 696.523 2946.6 696.523 2949.6 696.523 2951.6 696.523 2954.6 695.523 2957.6 695.523 2959.6 695.523 2962.6 695.523 2964.6 695.523 2967.6 695.523 2969.6 695.523 2972.6 695.523 2975.6 695.523 2977.6 695.523 2980.6 694.523 2982.6 694.523 2985.6 694.523 2988.6 694.523 2990.6 694.523 2993.6 694.523 2995.6 694.523 2998.6 694.523 3000.6 694.523 3003.6 694.523 3006.6 694.523 3008.6 694.523 3011.6 693.523 3013.6 693.523 3016.6 693.523 3019.6 693.523 3021.6 693.523 3024.6 693.523 3026.6 693.523 3029.6 693.523 3032.6 693.523 3034.6 693.523 3037.6 693.523 3039.6 693.523 3042.6 693.523 3044.6 693.523 3047.6 693.523 3050.6 693.523 3052.6 693.523 3055.6 693.523 3057.6 693.523 3060.6 693.523 3063.6 693.523 3065.6 693.523 3068.6 693.523 3070.6 693.523 3073.6 693.523 3075.6 693.523 3078.6 693.523 3081.6 693.523 3083.6 693.523 3086.6 693.523 3088.6 693.523 3091.6 693.523 3094.6 693.523 3096.6 693.523 3099.6 693.523 3101.6 693.523 3104.6 693.523 3106.6 693.523 3109.6 693.523 3112.6 693.523 3114.6 693.523 3117.6 693.523 3119.6 693.523 3122.6 693.523 3125.6 693.523 3127.6 693.523 3130.6 693.523 3132.6 693.523 3135.6 693.523 3138.6 694.523 3140.6 694.523 3143.6 694.523 3145.6 694.523 3148.6 694.523 3150.6 694.523 3153.6 694.523 3156.6 694.523 3158.6 694.523 3161.6 695.523 3163.6 695.523 3166.6 695.523 3169.6 695.523 3171.6 695.523 3174.6 695.523 3176.6 695.523 3179.6 696.523 3181.6 696.523 3184.6 696.523 3187.6 696.523 3189.6 696.523 3192.6 697.523 3194.6 697.523 3197.6 697.523 3200.6 697.523 3202.61 697.523 3205.61 698.523 3207.61 698.523 3210.61 698.523 3213.61 698.523 3215.61 699.523 3218.61 699.523 3220.61 699.523 3223.61 699.523 3225.61 700.523 3228.61 700.523 3231.61 700.523 3233.61 700.523 3236.61 701.523 3238.61 701.523 3241.61 701.523 3244.61 702.523 3246.61 702.523 3249.61 702.523 3251.61 703.523 3254.61 703.523 3256.61 703.523 3259.61 704.523 3262.61 704.523 3264.61 704.523 3267.61 705.523 3269.61 705.523 3272.61 705.523 3275.61 706.523 3277.61 706.523 3280.61 707.523 3282.61 707.523 3285.61 707.523 3287.61 708.523 3290.61 708.523 3293.61 709.523 3295.61 709.523 3298.5 710.5" stroke="#ED7D31" stroke-width="6.875" stroke-linecap="round" stroke-linejoin="round" stroke-miterlimit="10" stroke-dasharray="0 13.75" fill="none"/></g><g clip-path="url(#clip15)"><text fill="#595959" font-family="Arial,Arial_MSFontService,sans-serif" font-weight="400" font-size="41" transform="matrix(1 0 0 1 2255.34 1119)">0.4</text></g><g clip-path="url(#clip16)"><text fill="#595959" font-family="Arial,Arial_MSFontService,sans-serif" font-weight="400" font-size="41" transform="matrix(1 0 0 1 2232.4 1057)">0.45</text></g><g clip-path="url(#clip17)"><text fill="#595959" font-family="Arial,Arial_MSFontService,sans-serif" font-weight="400" font-size="41" transform="matrix(1 0 0 1 2255.34 996)">0.5</text></g><g clip-path="url(#clip18)"><text fill="#595959" font-family="Arial,Arial_MSFontService,sans-serif" font-weight="400" font-size="41" transform="matrix(1 0 0 1 2232.4 934)">0.55</text></g><g clip-path="url(#clip19)"><text fill="#595959" font-family="Arial,Arial_MSFontService,sans-serif" font-weight="400" font-size="41" transform="matrix(1 0 0 1 2255.34 873)">0.6</text></g><g clip-path="url(#clip20)"><text fill="#595959" font-family="Arial,Arial_MSFontService,sans-serif" font-weight="400" font-size="41" transform="matrix(1 0 0 1 2232.4 811)">0.65</text></g><g clip-path="url(#clip21)"><text fill="#595959" font-family="Arial,Arial_MSFontService,sans-serif" font-weight="400" font-size="41" transform="matrix(1 0 0 1 2255.34 749)">0.7</text></g><g clip-path="url(#clip22)"><text fill="#595959" font-family="Arial,Arial_MSFontService,sans-serif" font-weight="400" font-size="41" transform="matrix(1 0 0 1 2232.4 688)">0.75</text></g><g clip-path="url(#clip23)"><text fill="#595959" font-family="Arial,Arial_MSFontService,sans-serif" font-weight="400" font-size="41" transform="matrix(1 0 0 1 2255.34 626)">0.8</text></g><g clip-path="url(#clip24)"><text fill="#595959" font-family="Arial,Arial_MSFontService,sans-serif" font-weight="400" font-size="41" transform="matrix(1 0 0 1 2232.4 564)">0.85</text></g><g clip-path="url(#clip25)"><text fill="#595959" font-family="Arial,Arial_MSFontService,sans-serif" font-weight="400" font-size="41" transform="matrix(1 0 0 1 2255.34 503)">0.9</text></g><g clip-path="url(#clip26)"><text fill="#595959" font-family="Arial,Arial_MSFontService,sans-serif" font-weight="400" font-size="41" transform="matrix(1 0 0 1 2460.97 1168)">10</text></g><g clip-path="url(#clip27)"><text fill="#595959" font-family="Arial,Arial_MSFontService,sans-serif" font-weight="400" font-size="41" transform="matrix(1 0 0 1 2732.48 1168)">15</text></g><g clip-path="url(#clip28)"><text fill="#595959" font-family="Arial,Arial_MSFontService,sans-serif" font-weight="400" font-size="41" transform="matrix(1 0 0 1 3003.99 1168)">25</text></g><g clip-path="url(#clip29)"><text fill="#595959" font-family="Arial,Arial_MSFontService,sans-serif" font-weight="400" font-size="41" transform="matrix(1 0 0 1 3275.51 1168)">50</text></g><g clip-path="url(#clip30)"><text fill="#595959" font-family="Arial,Arial_MSFontService,sans-serif" font-weight="400" font-size="46" transform="matrix(6.12323e-17 -1 1 6.12323e-17 2208.93 1018)">Pearson's Correlation</text></g><g clip-path="url(#clip31)"><text fill="#595959" font-family="Arial,Arial_MSFontService,sans-serif" font-weight="400" font-size="46" transform="matrix(1 0 0 1 2590.6 1234)">Kernal lengthscale upper limit</text></g><g clip-path="url(#clip32)"><text fill="#595959" font-family="Arial,Arial_MSFontService,sans-serif" font-weight="400" font-size="64" transform="matrix(1 0 0 1 2778.81 419)">Train Scores</text></g><g clip-path="url(#clip33)"><rect x="3505" y="823" width="21" height="20.9999" fill="#4472C4"/></g><g clip-path="url(#clip34)"><text fill="#595959" font-family="Arial,Arial_MSFontService,sans-serif" font-weight="400" font-size="41" transform="matrix(1 0 0 1 3534.67 847)">Slope</text></g><g clip-path="url(#clip35)"><rect x="3505" y="897" width="21" height="20.0003" fill="#ED7D31"/></g><g clip-path="url(#clip36)"><text fill="#595959" font-family="Arial,Arial_MSFontService,sans-serif" font-weight="400" font-size="41" transform="matrix(1 0 0 1 3534.67 920)">MassActivity</text></g><rect x="3786" y="318" width="1656" height="977" fill="#FFFFFF"/><g clip-path="url(#clip37)"><path d="M4002.5 1086.54 5065.5 1086.54M4002.5 1073.54 5065.5 1073.54M4002.5 1059.53 5065.5 1059.53M4002.5 1045.53 5065.5 1045.53M4002.5 1018.53 5065.5 1018.53M4002.5 1004.53 5065.5 1004.53M4002.5 990.533 5065.5 990.533M4002.5 977.532 5065.5 977.532M4002.5 949.531 5065.5 949.531M4002.5 936.531 5065.5 936.531M4002.5 922.53 5065.5 922.53M4002.5 908.53 5065.5 908.53M4002.5 881.529 5065.5 881.529M4002.5 867.529 5065.5 867.529M4002.5 853.528 5065.5 853.528M4002.5 840.528 5065.5 840.528M4002.5 812.527 5065.5 812.527M4002.5 798.526 5065.5 798.526M4002.5 785.526 5065.5 785.526M4002.5 771.526 5065.5 771.526M4002.5 743.525 5065.5 743.525M4002.5 730.524 5065.5 730.524M4002.5 716.524 5065.5 716.524M4002.5 702.523 5065.5 702.523M4002.5 675.522 5065.5 675.522M4002.5 661.522 5065.5 661.522M4002.5 647.521 5065.5 647.521M4002.5 634.521 5065.5 634.521M4002.5 606.52 5065.5 606.52M4002.5 593.52 5065.5 593.52M4002.5 579.519 5065.5 579.519M4002.5 565.519 5065.5 565.519M4002.5 538.518 5065.5 538.518M4002.5 524.517 5065.5 524.517M4002.5 510.517 5065.5 510.517M4002.5 497.516 5065.5 497.516" stroke="#F2F2F2" stroke-width="3.4375" stroke-linejoin="round" stroke-miterlimit="10" fill="none"/></g><g clip-path="url(#clip38)"><path d="M4002.5 1032.53 5065.5 1032.53M4002.5 963.532 5065.5 963.532M4002.5 894.53 5065.5 894.53M4002.5 826.527 5065.5 826.527M4002.5 757.525 5065.5 757.525M4002.5 689.523 5065.5 689.523M4002.5 620.521 5065.5 620.521M4002.5 551.518 5065.5 551.518M4002.5 483.5 5065.5 483.5" stroke="#D9D9D9" stroke-width="3.4375" stroke-linejoin="round" stroke-miterlimit="10" fill="none"/></g><g clip-path="url(#clip39)"><path d="M4060.13 871.029 4136.14 871.029 4136.14 1101 4060.13 1101ZM4325.14 875.029 4401.14 875.029 4401.14 1101 4325.14 1101ZM4591.15 898.029 4667.15 898.029 4667.15 1101 4591.15 1101ZM4857.16 905.03 4933.16 905.03 4933.16 1101 4857.16 1101Z" fill="#4472C4"/></g><g clip-path="url(#clip40)"><path d="M4136.14 866.028 4212.14 866.028 4212.14 1101 4136.14 1101ZM4401.14 849.028 4477.15 849.028 4477.15 1101 4401.14 1101ZM4667.15 843.028 4743.16 843.028 4743.16 1101 4667.15 1101ZM4933.16 817.027 5009.16 817.027 5009.16 1101 4933.16 1101Z" fill="#ED7D31"/></g><g clip-path="url(#clip41)"><path d="M4097.63 871.529 4097.63 1006.5M4097.63 871.529 4097.63 735.5M4087.5 1006.5 4108.5 1006.5M4087.5 735.5 4108.5 735.5" stroke="#595959" stroke-width="3.4375" stroke-linejoin="round" stroke-miterlimit="10" fill="none"/></g><g clip-path="url(#clip42)"><path d="M4363.64 875.529 4363.64 1008.5M4363.64 875.529 4363.64 742.5M4353.5 1008.5 4373.5 1008.5M4353.5 742.5 4373.5 742.5" stroke="#595959" stroke-width="3.4375" stroke-linejoin="round" stroke-miterlimit="10" fill="none"/></g><g clip-path="url(#clip43)"><path d="M4629.65 898.53 4629.65 1020.5M4629.65 898.53 4629.65 776.5M4618.5 1020.5 4639.5 1020.5M4618.5 776.5 4639.5 776.5" stroke="#595959" stroke-width="3.4375" stroke-linejoin="round" stroke-miterlimit="10" fill="none"/></g><g clip-path="url(#clip44)"><path d="M4894.66 904.53 4894.66 1036.5M4894.66 904.53 4894.66 772.5M4884.5 1036.5 4905.5 1036.5M4884.5 772.5 4905.5 772.5" stroke="#595959" stroke-width="3.4375" stroke-linejoin="round" stroke-miterlimit="10" fill="none"/></g><g clip-path="url(#clip45)"><path d="M4173.64 865.529 4173.64 1051.5M4173.64 865.529 4173.64 679.5M4163.5 1051.5 4184.5 1051.5M4163.5 679.5 4184.5 679.5" stroke="#595959" stroke-width="3.4375" stroke-linejoin="round" stroke-miterlimit="10" fill="none"/></g><g clip-path="url(#clip46)"><path d="M4439.65 848.528 4439.65 990.5M4439.65 848.528 4439.65 707.5M4429.5 990.5 4449.5 990.5M4429.5 707.5 4449.5 707.5" stroke="#595959" stroke-width="3.4375" stroke-linejoin="round" stroke-miterlimit="10" fill="none"/></g><g clip-path="url(#clip47)"><path d="M4705.65 842.528 4705.65 968.5M4705.65 842.528 4705.65 716.5M4694.5 968.5 4715.5 968.5M4694.5 716.5 4715.5 716.5" stroke="#595959" stroke-width="3.4375" stroke-linejoin="round" stroke-miterlimit="10" fill="none"/></g><g clip-path="url(#clip48)"><path d="M4970.66 817.527 4970.66 970.5M4970.66 817.527 4970.66 664.5M4960.5 970.5 4981.5 970.5M4960.5 664.5 4981.5 664.5" stroke="#595959" stroke-width="3.4375" stroke-linejoin="round" stroke-miterlimit="10" fill="none"/></g><g clip-path="url(#clip49)"><path d="M4002.5 1100.5 5065.5 1100.5" stroke="#D9D9D9" stroke-width="3.4375" stroke-linejoin="round" stroke-miterlimit="10" fill="none" fill-rule="evenodd"/></g><g clip-path="url(#clip50)"><path d="M4135.5 865.5 4138.64 865.529 4140.64 864.529 4143.64 864.529 4145.64 864.529 4148.64 864.529 4151.64 863.529 4153.64 863.529 4156.64 863.529 4158.64 862.529 4161.64 862.529 4163.64 862.529 4166.64 862.529 4169.64 861.528 4171.64 861.528 4174.64 861.528 4176.64 861.528 4179.64 860.528 4182.64 860.528 4184.64 860.528 4187.64 860.528 4189.64 859.528 4192.64 859.528 4194.64 859.528 4197.64 859.528 4200.64 858.528 4202.64 858.528 4205.64 858.528 4207.64 858.528 4210.64 858.528 4213.64 857.528 4215.64 857.528 4218.64 857.528 4220.64 857.528 4223.64 857.528 4225.64 856.528 4228.64 856.528 4231.64 856.528 4233.64 856.528 4236.64 856.528 4238.64 855.528 4241.64 855.528 4243.64 855.528 4246.64 855.528 4249.64 855.528 4251.64 855.528 4254.64 854.528 4256.64 854.528 4259.64 854.528 4262.64 854.528 4264.64 854.528 4267.64 854.528 4269.64 854.528 4272.64 853.528 4274.64 853.528 4277.64 853.528 4280.64 853.528 4282.64 853.528 4285.64 853.528 4287.64 853.528 4290.64 852.528 4292.64 852.528 4295.64 852.528 4298.64 852.528 4300.64 852.528 4303.64 852.528 4305.64 852.528 4308.64 852.528 4311.64 851.528 4313.64 851.528 4316.64 851.528 4318.64 851.528 4321.64 851.528 4323.64 851.528 4326.64 851.528 4329.64 851.528 4331.64 851.528 4334.64 850.528 4336.64 850.528 4339.64 850.528 4342.64 850.528 4344.64 850.528 4347.64 850.528 4349.64 850.528 4352.64 850.528 4354.64 850.528 4357.64 850.528 4360.64 850.528 4362.64 849.528 4365.64 849.528 4367.64 849.528 4370.64 849.528 4372.64 849.528 4375.64 849.528 4378.64 849.528 4380.64 849.528 4383.64 849.528 4385.64 849.528 4388.64 849.528 4391.64 849.528 4393.64 849.528 4396.64 849.528 4398.64 848.528 4401.64 848.528 4403.64 848.528 4406.64 848.528 4409.64 848.528 4411.64 848.528 4414.65 848.528 4416.65 848.528 4419.65 848.528 4422.65 848.528 4424.65 848.528 4427.65 848.528 4429.65 848.528 4432.65 848.528 4434.65 848.528 4437.65 848.528 4440.65 848.528 4442.65 847.528 4445.65 847.528 4447.65 847.528 4450.65 847.528 4452.65 847.528 4455.65 847.528 4458.65 847.528 4460.65 847.528 4463.65 847.528 4465.65 847.528 4468.65 847.528 4471.65 847.528 4473.65 847.528 4476.65 847.528 4478.65 847.528 4481.65 847.528 4483.65 847.528 4486.65 847.528 4489.65 847.528 4491.65 847.528 4494.65 846.528 4496.65 846.528 4499.65 846.528 4501.65 846.528 4504.65 846.528 4507.65 846.528 4509.65 846.528 4512.65 846.528 4514.65 846.528 4517.65 846.528 4520.65 846.528 4522.65 846.528 4525.65 846.528 4527.65 846.528 4530.65 846.528 4532.65 846.528 4535.65 846.528 4538.65 846.528 4540.65 846.528 4543.65 846.528 4545.65 846.528 4548.65 845.528 4551.65 845.528 4553.65 845.528 4556.65 845.528 4558.65 845.528 4561.65 845.528 4563.65 845.528 4566.65 845.528 4569.65 845.528 4571.65 845.528 4574.65 845.528 4576.65 845.528 4579.65 845.528 4581.65 845.528 4584.65 845.528 4587.65 845.528 4589.65 845.528 4592.65 844.528 4594.65 844.528 4597.65 844.528 4600.65 844.528 4602.65 844.528 4605.65 844.528 4607.65 844.528 4610.65 844.528 4612.65 844.528 4615.65 844.528 4618.65 844.528 4620.65 844.528 4623.65 844.528 4625.65 844.528 4628.65 843.528 4630.65 843.528 4633.65 843.528 4636.65 843.528 4638.65 843.528 4641.65 843.528 4643.65 843.528 4646.65 843.528 4649.65 843.528 4651.65 843.528 4654.65 843.528 4656.65 842.528 4659.65 842.528 4661.65 842.528 4664.65 842.528 4667.65 842.528 4669.65 842.528 4672.65 842.528 4674.65 842.528 4677.65 842.528 4680.65 842.528 4682.65 841.528 4685.65 841.528 4687.65 841.528 4690.65 841.528 4692.65 841.528 4695.65 841.528 4698.65 841.528 4700.65 841.528 4703.65 840.528 4705.65 840.528 4708.65 840.528 4710.65 840.528 4713.65 840.528 4716.65 840.528 4718.65 840.528 4721.65 839.528 4723.65 839.528 4726.66 839.528 4729.66 839.528 4731.66 839.528 4734.66 839.528 4736.66 838.528 4739.66 838.528 4741.66 838.528 4744.66 838.528 4747.66 838.528 4749.66 838.528 4752.66 837.528 4754.66 837.528 4757.66 837.528 4759.66 837.528 4762.66 837.528 4765.66 837.528 4767.66 836.528 4770.66 836.528 4772.66 836.528 4775.66 836.528 4778.66 836.528 4780.66 835.528 4783.66 835.528 4785.66 835.528 4788.66 835.528 4790.66 834.528 4793.66 834.528 4796.66 834.528 4798.66 834.528 4801.66 834.528 4803.66 833.528 4806.66 833.528 4809.66 833.528 4811.66 833.528 4814.66 832.528 4816.66 832.528 4819.66 832.528 4821.66 832.528 4824.66 831.527 4827.66 831.527 4829.66 831.527 4832.66 831.527 4834.66 830.527 4837.66 830.527 4839.66 830.527 4842.66 829.527 4845.66 829.527 4847.66 829.527 4850.66 829.527 4852.66 828.527 4855.66 828.527 4858.66 828.527 4860.66 827.527 4863.66 827.527 4865.66 827.527 4868.66 826.527 4870.66 826.527 4873.66 826.527 4876.66 825.527 4878.66 825.527 4881.66 825.527 4883.66 824.527 4886.66 824.527 4889.66 824.527 4891.66 823.527 4894.66 823.527 4896.66 823.527 4899.66 822.527 4901.66 822.527 4904.66 821.527 4907.66 821.527 4909.66 821.527 4912.66 820.527 4914.66 820.527 4917.66 819.527 4919.66 819.527 4922.66 819.527 4925.66 818.527 4927.66 818.527 4930.66 817.527 4933.5 817.5" stroke="#ED7D31" stroke-width="6.875" stroke-linecap="round" stroke-linejoin="round" stroke-miterlimit="10" stroke-dasharray="0 13.75" fill="none"/></g><g clip-path="url(#clip51)"><text fill="#595959" font-family="Arial,Arial_MSFontService,sans-serif" font-weight="400" font-size="41" transform="matrix(1 0 0 1 3944.45 1113)">0</text></g><g clip-path="url(#clip52)"><text fill="#595959" font-family="Arial,Arial_MSFontService,sans-serif" font-weight="400" font-size="41" transform="matrix(1 0 0 1 3910.05 1045)">0.1</text></g><g clip-path="url(#clip53)"><text fill="#595959" font-family="Arial,Arial_MSFontService,sans-serif" font-weight="400" font-size="41" transform="matrix(1 0 0 1 3910.05 976)">0.2</text></g><g clip-path="url(#clip54)"><text fill="#595959" font-family="Arial,Arial_MSFontService,sans-serif" font-weight="400" font-size="41" transform="matrix(1 0 0 1 3910.05 908)">0.3</text></g><g clip-path="url(#clip55)"><text fill="#595959" font-family="Arial,Arial_MSFontService,sans-serif" font-weight="400" font-size="41" transform="matrix(1 0 0 1 3910.05 839)">0.4</text></g><g clip-path="url(#clip56)"><text fill="#595959" font-family="Arial,Arial_MSFontService,sans-serif" font-weight="400" font-size="41" transform="matrix(1 0 0 1 3910.05 770)">0.5</text></g><g clip-path="url(#clip57)"><text fill="#595959" font-family="Arial,Arial_MSFontService,sans-serif" font-weight="400" font-size="41" transform="matrix(1 0 0 1 3910.05 702)">0.6</text></g><g clip-path="url(#clip58)"><text fill="#595959" font-family="Arial,Arial_MSFontService,sans-serif" font-weight="400" font-size="41" transform="matrix(1 0 0 1 3910.05 633)">0.7</text></g><g clip-path="url(#clip59)"><text fill="#595959" font-family="Arial,Arial_MSFontService,sans-serif" font-weight="400" font-size="41" transform="matrix(1 0 0 1 3910.05 565)">0.8</text></g><g clip-path="url(#clip60)"><text fill="#595959" font-family="Arial,Arial_MSFontService,sans-serif" font-weight="400" font-size="41" transform="matrix(1 0 0 1 3910.05 496)">0.9</text></g><g clip-path="url(#clip61)"><text fill="#595959" font-family="Arial,Arial_MSFontService,sans-serif" font-weight="400" font-size="41" transform="matrix(1 0 0 1 4112.81 1163)">10</text></g><g clip-path="url(#clip62)"><text fill="#595959" font-family="Arial,Arial_MSFontService,sans-serif" font-weight="400" font-size="41" transform="matrix(1 0 0 1 4378.57 1163)">15</text></g><g clip-path="url(#clip63)"><text fill="#595959" font-family="Arial,Arial_MSFontService,sans-serif" font-weight="400" font-size="41" transform="matrix(1 0 0 1 4644.33 1163)">25</text></g><g clip-path="url(#clip64)"><text fill="#595959" font-family="Arial,Arial_MSFontService,sans-serif" font-weight="400" font-size="41" transform="matrix(1 0 0 1 4910.08 1163)">50</text></g><g clip-path="url(#clip65)"><text fill="#595959" font-family="Arial,Arial_MSFontService,sans-serif" font-weight="400" font-size="46" transform="matrix(6.12323e-17 -1 1 6.12323e-17 3886.59 1012)">Pearson's Correlation</text></g><g clip-path="url(#clip66)"><text fill="#595959" font-family="Arial,Arial_MSFontService,sans-serif" font-weight="400" font-size="46" transform="matrix(1 0 0 1 4233.81 1228)">Kernal lengthscale upper limit</text></g><g clip-path="url(#clip67)"><text fill="#595959" font-family="Arial,Arial_MSFontService,sans-serif" font-weight="400" font-size="64" transform="matrix(1 0 0 1 4446.53 412)">Test Scores</text></g><g clip-path="url(#clip68)"><rect x="5137" y="817" width="21" height="20.9999" fill="#4472C4"/></g><g clip-path="url(#clip69)"><text fill="#595959" font-family="Arial,Arial_MSFontService,sans-serif" font-weight="400" font-size="41" transform="matrix(1 0 0 1 5166.37 840)">Slope</text></g><g clip-path="url(#clip70)"><rect x="5137" y="890" width="21" height="20.9999" fill="#ED7D31"/></g><g clip-path="url(#clip71)"><text fill="#595959" font-family="Arial,Arial_MSFontService,sans-serif" font-weight="400" font-size="41" transform="matrix(1 0 0 1 5166.37 913)">MassActivity</text></g></g></svg>