<svg width="3302" height="970" xmlns="http://www.w3.org/2000/svg" xmlns:xlink="http://www.w3.org/1999/xlink" xml:space="preserve" overflow="hidden"><defs><clipPath id="clip0"><rect x="2444" y="2633" width="3302" height="970"/></clipPath><clipPath id="clip1"><rect x="2443" y="2632" width="1654" height="970"/></clipPath><clipPath id="clip2"><rect x="2443" y="2632" width="1654" height="970"/></clipPath><clipPath id="clip3"><rect x="2660" y="2798" width="1065" height="612"/></clipPath><clipPath id="clip4"><rect x="2660" y="2798" width="1065" height="612"/></clipPath><clipPath id="clip5"><rect x="2660" y="2798" width="1065" height="609"/></clipPath><clipPath id="clip6"><rect x="2660" y="2798" width="1065" height="609"/></clipPath><clipPath id="clip7"><rect x="2660" y="2798" width="1065" height="609"/></clipPath><clipPath id="clip8"><rect x="2660" y="2798" width="1065" height="609"/></clipPath><clipPath id="clip9"><rect x="2660" y="2798" width="1065" height="609"/></clipPath><clipPath id="clip10"><rect x="2660" y="2798" width="1065" height="609"/></clipPath><clipPath id="clip11"><rect x="2660" y="2798" width="1065" height="609"/></clipPath><clipPath id="clip12"><rect x="2660" y="2798" width="1065" height="609"/></clipPath><clipPath id="clip13"><rect x="2443" y="2632" width="1654" height="970"/></clipPath><clipPath id="clip14"><rect x="2660" y="2798" width="1061" height="609"/></clipPath><clipPath id="clip15"><rect x="2443" y="2632" width="1654" height="970"/></clipPath><clipPath id="clip16"><rect x="2443" y="2632" width="1654" height="970"/></clipPath><clipPath id="clip17"><rect x="2443" y="2632" width="1654" height="970"/></clipPath><clipPath id="clip18"><rect x="2443" y="2632" width="1654" height="970"/></clipPath><clipPath id="clip19"><rect x="2443" y="2632" width="1654" height="970"/></clipPath><clipPath id="clip20"><rect x="2443" y="2632" width="1654" height="970"/></clipPath><clipPath id="clip21"><rect x="2443" y="2632" width="1654" height="970"/></clipPath><clipPath id="clip22"><rect x="2443" y="2632" width="1654" height="970"/></clipPath><clipPath id="clip23"><rect x="2443" y="2632" width="1654" height="970"/></clipPath><clipPath id="clip24"><rect x="2443" y="2632" width="1654" height="970"/></clipPath><clipPath id="clip25"><rect x="2443" y="2632" width="1654" height="970"/></clipPath><clipPath id="clip26"><rect x="2443" y="2632" width="1654" height="970"/></clipPath><clipPath id="clip27"><rect x="2443" y="2632" width="1654" height="970"/></clipPath><clipPath id="clip28"><rect x="2443" y="2632" width="1654" height="970"/></clipPath><clipPath id="clip29"><rect x="2443" y="2632" width="1654" height="970"/></clipPath><clipPath id="clip30"><rect x="2443" y="2632" width="1654" height="970"/></clipPath><clipPath id="clip31"><rect x="2443" y="2632" width="1654" height="970"/></clipPath><clipPath id="clip32"><rect x="2443" y="2632" width="1654" height="970"/></clipPath><clipPath id="clip33"><rect x="4094" y="2632" width="1651" height="971"/></clipPath><clipPath id="clip34"><rect x="4094" y="2632" width="1651" height="971"/></clipPath><clipPath id="clip35"><rect x="4310" y="2798" width="1063" height="614"/></clipPath><clipPath id="clip36"><rect x="4310" y="2798" width="1063" height="614"/></clipPath><clipPath id="clip37"><rect x="4310" y="2798" width="1063" height="610"/></clipPath><clipPath id="clip38"><rect x="4310" y="2798" width="1063" height="610"/></clipPath><clipPath id="clip39"><rect x="4310" y="2798" width="1063" height="610"/></clipPath><clipPath id="clip40"><rect x="4310" y="2798" width="1063" height="610"/></clipPath><clipPath id="clip41"><rect x="4310" y="2798" width="1063" height="610"/></clipPath><clipPath id="clip42"><rect x="4310" y="2798" width="1063" height="610"/></clipPath><clipPath id="clip43"><rect x="4310" y="2798" width="1063" height="610"/></clipPath><clipPath id="clip44"><rect x="4310" y="2798" width="1063" height="610"/></clipPath><clipPath id="clip45"><rect x="4094" y="2632" width="1651" height="971"/></clipPath><clipPath id="clip46"><rect x="4310" y="2798" width="1059" height="610"/></clipPath><clipPath id="clip47"><rect x="4094" y="2632" width="1651" height="971"/></clipPath><clipPath id="clip48"><rect x="4094" y="2632" width="1651" height="971"/></clipPath><clipPath id="clip49"><rect x="4094" y="2632" width="1651" height="971"/></clipPath><clipPath id="clip50"><rect x="4094" y="2632" width="1651" height="971"/></clipPath><clipPath id="clip51"><rect x="4094" y="2632" width="1651" height="971"/></clipPath><clipPath id="clip52"><rect x="4094" y="2632" width="1651" height="971"/></clipPath><clipPath id="clip53"><rect x="4094" y="2632" width="1651" height="971"/></clipPath><clipPath id="clip54"><rect x="4094" y="2632" width="1651" height="971"/></clipPath><clipPath id="clip55"><rect x="4094" y="2632" width="1651" height="971"/></clipPath><clipPath id="clip56"><rect x="4094" y="2632" width="1651" height="971"/></clipPath><clipPath id="clip57"><rect x="4094" y="2632" width="1651" height="971"/></clipPath><clipPath id="clip58"><rect x="4094" y="2632" width="1651" height="971"/></clipPath><clipPath id="clip59"><rect x="4094" y="2632" width="1651" height="971"/></clipPath><clipPath id="clip60"><rect x="4094" y="2632" width="1651" height="971"/></clipPath><clipPath id="clip61"><rect x="4094" y="2632" width="1651" height="971"/></clipPath><clipPath id="clip62"><rect x="4094" y="2632" width="1651" height="971"/></clipPath><clipPath id="clip63"><rect x="4094" y="2632" width="1651" height="971"/></clipPath><clipPath id="clip64"><rect x="4094" y="2632" width="1651" height="971"/></clipPath><clipPath id="clip65"><rect x="4094" y="2632" width="1651" height="971"/></clipPath><clipPath id="clip66"><rect x="4094" y="2632" width="1651" height="971"/></clipPath><clipPath id="clip67"><rect x="4094" y="2632" width="1651" height="971"/></clipPath></defs><g clip-path="url(#clip0)" transform="translate(-2444 -2633)"><rect x="2444" y="2633" width="1654" height="969" fill="#FFFFFF"/><g clip-path="url(#clip1)"><path d="M2660.5 3386.61 3721.5 3386.61M2660.5 3366.61 3721.5 3366.61M2660.5 3346.61 3721.5 3346.61M2660.5 3325.61 3721.5 3325.61M2660.5 3285.61 3721.5 3285.61M2660.5 3265.61 3721.5 3265.61M2660.5 3244.61 3721.5 3244.61M2660.5 3224.61 3721.5 3224.61M2660.5 3183.6 3721.5 3183.6M2660.5 3163.6 3721.5 3163.6M2660.5 3143.6 3721.5 3143.6M2660.5 3123.6 3721.5 3123.6M2660.5 3082.6 3721.5 3082.6M2660.5 3062.6 3721.5 3062.6M2660.5 3041.6 3721.5 3041.6M2660.5 3021.6 3721.5 3021.6M2660.5 2980.6 3721.5 2980.6M2660.5 2960.6 3721.5 2960.6M2660.5 2940.6 3721.5 2940.6M2660.5 2920.6 3721.5 2920.6M2660.5 2879.59 3721.5 2879.59M2660.5 2859.59 3721.5 2859.59M2660.5 2838.59 3721.5 2838.59M2660.5 2818.59 3721.5 2818.59" stroke="#F2F2F2" stroke-width="3.4375" stroke-linejoin="round" stroke-miterlimit="10" fill="none"/></g><g clip-path="url(#clip2)"><path d="M2660.5 3305.61 3721.5 3305.61M2660.5 3204.61 3721.5 3204.61M2660.5 3102.6 3721.5 3102.6M2660.5 3001.6 3721.5 3001.6M2660.5 2899.6 3721.5 2899.6M2660.5 2798.5 3721.5 2798.5" stroke="#D9D9D9" stroke-width="3.4375" stroke-linejoin="round" stroke-miterlimit="10" fill="none"/></g><g clip-path="url(#clip3)"><path d="M2717.09 2895.1 2793.09 2895.1 2793.09 3407 2717.09 3407ZM2983.1 2921.1 3058.1 2921.1 3058.1 3407 2983.1 3407ZM3248.11 2956.1 3324.11 2956.1 3324.11 3407 3248.11 3407ZM3513.12 2971.1 3589.12 2971.1 3589.12 3407 3513.12 3407Z" fill="#4472C4"/></g><g clip-path="url(#clip4)"><path d="M2793.09 3015.1 2869.09 3015.1 2869.09 3407 2793.09 3407ZM3058.1 3064.1 3134.1 3064.1 3134.1 3407 3058.1 3407ZM3324.11 3098.1 3400.11 3098.1 3400.11 3407 3324.11 3407ZM3589.12 3118.1 3665.12 3118.1 3665.12 3407 3589.12 3407Z" fill="#ED7D31"/></g><g clip-path="url(#clip5)"><path d="M2755.59 2894.59 2755.59 2910.5M2755.59 2894.59 2755.59 2878.5M2744.5 2910.5 2765.5 2910.5M2744.5 2878.5 2765.5 2878.5" stroke="#595959" stroke-width="3.4375" stroke-linejoin="round" stroke-miterlimit="10" fill="none"/></g><g clip-path="url(#clip6)"><path d="M3020.6 2920.6 3020.6 2951.5M3020.6 2920.6 3020.6 2890.5M3010.5 2951.5 3030.5 2951.5M3010.5 2890.5 3030.5 2890.5" stroke="#595959" stroke-width="3.4375" stroke-linejoin="round" stroke-miterlimit="10" fill="none"/></g><g clip-path="url(#clip7)"><path d="M3285.61 2955.6 3285.61 3014.5M3285.61 2955.6 3285.61 2897.5M3275.5 3014.5 3296.5 3014.5M3275.5 2897.5 3296.5 2897.5" stroke="#595959" stroke-width="3.4375" stroke-linejoin="round" stroke-miterlimit="10" fill="none"/></g><g clip-path="url(#clip8)"><path d="M3551.62 2971.6 3551.62 3031.5M3551.62 2971.6 3551.62 2911.5M3540.5 3031.5 3561.5 3031.5M3540.5 2911.5 3561.5 2911.5" stroke="#595959" stroke-width="3.4375" stroke-linejoin="round" stroke-miterlimit="10" fill="none"/></g><g clip-path="url(#clip9)"><path d="M2830.59 3015.6 2830.59 3032.5M2830.59 3015.6 2830.59 2998.5M2820.5 3032.5 2841.5 3032.5M2820.5 2998.5 2841.5 2998.5" stroke="#595959" stroke-width="3.4375" stroke-linejoin="round" stroke-miterlimit="10" fill="none"/></g><g clip-path="url(#clip10)"><path d="M3096.6 3063.6 3096.6 3082.5M3096.6 3063.6 3096.6 3045.5M3086.5 3082.5 3106.5 3082.5M3086.5 3045.5 3106.5 3045.5" stroke="#595959" stroke-width="3.4375" stroke-linejoin="round" stroke-miterlimit="10" fill="none"/></g><g clip-path="url(#clip11)"><path d="M3361.61 3098.6 3361.61 3118.5M3361.61 3098.6 3361.61 3078.5M3351.5 3118.5 3372.5 3118.5M3351.5 3078.5 3372.5 3078.5" stroke="#595959" stroke-width="3.4375" stroke-linejoin="round" stroke-miterlimit="10" fill="none"/></g><g clip-path="url(#clip12)"><path d="M3626.62 3118.6 3626.62 3143.5M3626.62 3118.6 3626.62 3093.5M3616.5 3143.5 3637.5 3143.5M3616.5 3093.5 3637.5 3093.5" stroke="#595959" stroke-width="3.4375" stroke-linejoin="round" stroke-miterlimit="10" fill="none"/></g><g clip-path="url(#clip13)"><path d="M2660.5 3407.5 3721.5 3407.5" stroke="#D9D9D9" stroke-width="3.4375" stroke-linejoin="round" stroke-miterlimit="10" fill="none" fill-rule="evenodd"/></g><g clip-path="url(#clip14)"><path d="M2793.5 3015.5 2795.59 3015.6 2798.59 3016.6 2800.59 3016.6 2803.59 3017.6 2806.59 3018.6 2808.59 3018.6 2811.59 3019.6 2813.59 3019.6 2816.59 3020.6 2818.59 3020.6 2821.59 3021.6 2824.59 3021.6 2826.59 3022.6 2829.59 3022.6 2831.59 3023.6 2834.59 3023.6 2837.59 3024.6 2839.59 3024.6 2842.59 3025.6 2844.59 3025.6 2847.59 3026.6 2849.59 3026.6 2852.59 3027.6 2855.59 3027.6 2857.59 3028.6 2860.59 3028.6 2862.59 3029.6 2865.59 3029.6 2868.59 3030.6 2870.59 3030.6 2873.59 3031.6 2875.59 3031.6 2878.59 3032.6 2880.59 3032.6 2883.59 3033.6 2886.59 3033.6 2888.59 3034.6 2891.6 3034.6 2893.6 3035.6 2896.6 3035.6 2899.6 3036.6 2901.6 3036.6 2904.6 3037.6 2906.6 3037.6 2909.6 3038.6 2911.6 3038.6 2914.6 3039.6 2917.6 3039.6 2919.6 3040.6 2922.6 3040.6 2924.6 3041.6 2927.6 3041.6 2930.6 3041.6 2932.6 3042.6 2935.6 3042.6 2937.6 3043.6 2940.6 3043.6 2942.6 3044.6 2945.6 3044.6 2948.6 3045.6 2950.6 3045.6 2953.6 3046.6 2955.6 3046.6 2958.6 3047.6 2961.6 3047.6 2963.6 3047.6 2966.6 3048.6 2968.6 3048.6 2971.6 3049.6 2973.6 3049.6 2976.6 3050.6 2979.6 3050.6 2981.6 3051.6 2984.6 3051.6 2986.6 3052.6 2989.6 3052.6 2992.6 3052.6 2994.6 3053.6 2997.6 3053.6 2999.6 3054.6 3002.6 3054.6 3005.6 3055.6 3007.6 3055.6 3010.6 3055.6 3012.6 3056.6 3015.6 3056.6 3017.6 3057.6 3020.6 3057.6 3023.6 3058.6 3025.6 3058.6 3028.6 3058.6 3030.6 3059.6 3033.6 3059.6 3036.6 3060.6 3038.6 3060.6 3041.6 3061.6 3043.6 3061.6 3046.6 3061.6 3048.6 3062.6 3051.6 3062.6 3054.6 3063.6 3056.6 3063.6 3059.6 3063.6 3061.6 3064.6 3064.6 3064.6 3067.6 3065.6 3069.6 3065.6 3072.6 3065.6 3074.6 3066.6 3077.6 3066.6 3079.6 3067.6 3082.6 3067.6 3085.6 3067.6 3087.6 3068.6 3090.6 3068.6 3092.6 3069.6 3095.6 3069.6 3098.6 3069.6 3100.6 3070.6 3103.6 3070.6 3105.6 3070.6 3108.6 3071.6 3110.6 3071.6 3113.6 3072.6 3116.6 3072.6 3118.6 3072.6 3121.6 3073.6 3123.6 3073.6 3126.6 3074.6 3129.6 3074.6 3131.6 3074.6 3134.6 3075.6 3136.6 3075.6 3139.6 3075.6 3141.6 3076.6 3144.6 3076.6 3147.6 3076.6 3149.6 3077.6 3152.6 3077.6 3154.6 3078.6 3157.6 3078.6 3160.6 3078.6 3162.6 3079.6 3165.6 3079.6 3167.6 3079.6 3170.6 3080.6 3172.6 3080.6 3175.6 3080.6 3178.6 3081.6 3180.6 3081.6 3183.6 3081.6 3185.6 3082.6 3188.6 3082.6 3191.6 3082.6 3193.6 3083.6 3196.61 3083.6 3198.61 3083.6 3201.61 3084.6 3203.61 3084.6 3206.61 3084.6 3209.61 3085.6 3211.61 3085.6 3214.61 3085.6 3216.61 3086.6 3219.61 3086.6 3222.61 3086.6 3224.61 3087.6 3227.61 3087.6 3229.61 3087.6 3232.61 3088.6 3235.61 3088.6 3237.61 3088.6 3240.61 3089.6 3242.61 3089.6 3245.61 3089.6 3247.61 3090.6 3250.61 3090.6 3253.61 3090.6 3255.61 3090.6 3258.61 3091.6 3260.61 3091.6 3263.61 3091.6 3266.61 3092.6 3268.61 3092.6 3271.61 3092.6 3273.61 3093.6 3276.61 3093.6 3278.61 3093.6 3281.61 3093.6 3284.61 3094.6 3286.61 3094.6 3289.61 3094.6 3291.61 3095.6 3294.61 3095.6 3297.61 3095.6 3299.61 3095.6 3302.61 3096.6 3304.61 3096.6 3307.61 3096.6 3309.61 3097.6 3312.61 3097.6 3315.61 3097.6 3317.61 3097.6 3320.61 3098.6 3322.61 3098.6 3325.61 3098.6 3328.61 3098.6 3330.61 3099.6 3333.61 3099.6 3335.61 3099.6 3338.61 3099.6 3340.61 3100.6 3343.61 3100.6 3346.61 3100.6 3348.61 3100.6 3351.61 3101.6 3353.61 3101.6 3356.61 3101.6 3359.61 3101.6 3361.61 3102.6 3364.61 3102.6 3366.61 3102.6 3369.61 3102.6 3371.61 3103.6 3374.61 3103.6 3377.61 3103.6 3379.61 3103.6 3382.61 3104.6 3384.61 3104.6 3387.61 3104.6 3390.61 3104.6 3392.61 3105.6 3395.61 3105.6 3397.61 3105.6 3400.61 3105.6 3402.61 3106.6 3405.61 3106.6 3408.61 3106.6 3410.61 3106.6 3413.61 3106.6 3415.61 3107.6 3418.61 3107.6 3421.61 3107.6 3423.61 3107.6 3426.61 3107.6 3428.61 3108.6 3431.61 3108.6 3434.61 3108.6 3436.61 3108.6 3439.61 3109.6 3441.61 3109.6 3444.61 3109.6 3446.61 3109.6 3449.61 3109.6 3452.61 3110.6 3454.61 3110.6 3457.61 3110.6 3459.61 3110.6 3462.61 3110.6 3465.61 3110.6 3467.61 3111.6 3470.61 3111.6 3472.61 3111.6 3475.61 3111.6 3477.61 3111.6 3480.61 3112.6 3483.61 3112.6 3485.61 3112.6 3488.61 3112.6 3490.61 3112.6 3493.61 3112.6 3496.61 3113.6 3498.61 3113.6 3501.62 3113.6 3503.62 3113.6 3506.62 3113.6 3508.62 3113.6 3511.62 3114.6 3514.62 3114.6 3516.62 3114.6 3519.62 3114.6 3521.62 3114.6 3524.62 3114.6 3527.62 3115.6 3529.62 3115.6 3532.62 3115.6 3534.62 3115.6 3537.62 3115.6 3539.62 3115.6 3542.62 3115.6 3545.62 3116.6 3547.62 3116.6 3550.62 3116.6 3552.62 3116.6 3555.62 3116.6 3558.62 3116.6 3560.62 3116.6 3563.62 3117.6 3565.62 3117.6 3568.62 3117.6 3570.62 3117.6 3573.62 3117.6 3576.62 3117.6 3578.62 3117.6 3581.62 3117.6 3583.62 3118.6 3586.62 3118.6 3589.5 3118.5" stroke="#ED7D31" stroke-width="6.875" stroke-linecap="round" stroke-linejoin="round" stroke-miterlimit="10" stroke-dasharray="0 13.75" fill="none"/></g><g clip-path="url(#clip15)"><text fill="#595959" font-family="Arial,Arial_MSFontService,sans-serif" font-weight="400" font-size="41" transform="matrix(1 0 0 1 2567.7 3420)">0.4</text></g><g clip-path="url(#clip16)"><text fill="#595959" font-family="Arial,Arial_MSFontService,sans-serif" font-weight="400" font-size="41" transform="matrix(1 0 0 1 2567.7 3319)">0.5</text></g><g clip-path="url(#clip17)"><text fill="#595959" font-family="Arial,Arial_MSFontService,sans-serif" font-weight="400" font-size="41" transform="matrix(1 0 0 1 2567.7 3217)">0.6</text></g><g clip-path="url(#clip18)"><text fill="#595959" font-family="Arial,Arial_MSFontService,sans-serif" font-weight="400" font-size="41" transform="matrix(1 0 0 1 2567.7 3116)">0.7</text></g><g clip-path="url(#clip19)"><text fill="#595959" font-family="Arial,Arial_MSFontService,sans-serif" font-weight="400" font-size="41" transform="matrix(1 0 0 1 2567.7 3014)">0.8</text></g><g clip-path="url(#clip20)"><text fill="#595959" font-family="Arial,Arial_MSFontService,sans-serif" font-weight="400" font-size="41" transform="matrix(1 0 0 1 2567.7 2913)">0.9</text></g><g clip-path="url(#clip21)"><text fill="#595959" font-family="Arial,Arial_MSFontService,sans-serif" font-weight="400" font-size="41" transform="matrix(1 0 0 1 2602.1 2811)">1</text></g><g clip-path="url(#clip22)"><text fill="#595959" font-family="Arial,Arial_MSFontService,sans-serif" font-weight="400" font-size="41" transform="matrix(1 0 0 1 2770.24 3469)">10</text></g><g clip-path="url(#clip23)"><text fill="#595959" font-family="Arial,Arial_MSFontService,sans-serif" font-weight="400" font-size="41" transform="matrix(1 0 0 1 3035.57 3469)">15</text></g><g clip-path="url(#clip24)"><text fill="#595959" font-family="Arial,Arial_MSFontService,sans-serif" font-weight="400" font-size="41" transform="matrix(1 0 0 1 3300.91 3469)">25</text></g><g clip-path="url(#clip25)"><text fill="#595959" font-family="Arial,Arial_MSFontService,sans-serif" font-weight="400" font-size="41" transform="matrix(1 0 0 1 3566.25 3469)">50</text></g><g clip-path="url(#clip26)"><text fill="#595959" font-family="Arial,Arial_MSFontService,sans-serif" font-weight="400" font-size="46" transform="matrix(6.12323e-17 -1 1 6.12323e-17 2544.23 3343)">Spearman’s Correlation</text></g><g clip-path="url(#clip27)"><text fill="#595959" font-family="Arial,Arial_MSFontService,sans-serif" font-weight="400" font-size="46" transform="matrix(1 0 0 1 2890.61 3535)">Kernal lengthscale upper limit</text></g><g clip-path="url(#clip28)"><text fill="#595959" font-family="Arial,Arial_MSFontService,sans-serif" font-weight="400" font-size="64" transform="matrix(1 0 0 1 3090.28 2727)">Train Scores</text></g><g clip-path="url(#clip29)"><rect x="3793" y="3128" width="21" height="21" fill="#4472C4"/></g><g clip-path="url(#clip30)"><text fill="#595959" font-family="Arial,Arial_MSFontService,sans-serif" font-weight="400" font-size="41" transform="matrix(1 0 0 1 3822.32 3151)">Slope</text></g><g clip-path="url(#clip31)"><rect x="3793" y="3201" width="21" height="21" fill="#ED7D31"/></g><g clip-path="url(#clip32)"><text fill="#595959" font-family="Arial,Arial_MSFontService,sans-serif" font-weight="400" font-size="41" transform="matrix(1 0 0 1 3822.32 3224)">MassActivity</text></g><rect x="4094" y="2633" width="1652" height="970" fill="#FFFFFF"/><g clip-path="url(#clip33)"><path d="M4310.5 3394.61 5369.5 3394.61M4310.5 3381.61 5369.5 3381.61M4310.5 3367.61 5369.5 3367.61M4310.5 3354.61 5369.5 3354.61M4310.5 3327.61 5369.5 3327.61M4310.5 3313.61 5369.5 3313.61M4310.5 3299.61 5369.5 3299.61M4310.5 3286.61 5369.5 3286.61M4310.5 3259.61 5369.5 3259.61M4310.5 3245.61 5369.5 3245.61M4310.5 3232.61 5369.5 3232.61M4310.5 3218.61 5369.5 3218.61M4310.5 3191.6 5369.5 3191.6M4310.5 3177.6 5369.5 3177.6M4310.5 3164.6 5369.5 3164.6M4310.5 3150.6 5369.5 3150.6M4310.5 3123.6 5369.5 3123.6M4310.5 3110.6 5369.5 3110.6M4310.5 3096.6 5369.5 3096.6M4310.5 3083.6 5369.5 3083.6M4310.5 3055.6 5369.5 3055.6M4310.5 3042.6 5369.5 3042.6M4310.5 3028.6 5369.5 3028.6M4310.5 3015.6 5369.5 3015.6M4310.5 2988.6 5369.5 2988.6M4310.5 2974.6 5369.5 2974.6M4310.5 2961.6 5369.5 2961.6M4310.5 2947.6 5369.5 2947.6M4310.5 2920.6 5369.5 2920.6M4310.5 2906.6 5369.5 2906.6M4310.5 2893.6 5369.5 2893.6M4310.5 2879.59 5369.5 2879.59M4310.5 2852.59 5369.5 2852.59M4310.5 2839.59 5369.5 2839.59M4310.5 2825.59 5369.5 2825.59M4310.5 2811.59 5369.5 2811.59" stroke="#F2F2F2" stroke-width="3.4375" stroke-linejoin="round" stroke-miterlimit="10" fill="none"/></g><g clip-path="url(#clip34)"><path d="M4310.5 3340.61 5369.5 3340.61M4310.5 3272.61 5369.5 3272.61M4310.5 3205.61 5369.5 3205.61M4310.5 3137.6 5369.5 3137.6M4310.5 3069.6 5369.5 3069.6M4310.5 3001.6 5369.5 3001.6M4310.5 2933.6 5369.5 2933.6M4310.5 2866.59 5369.5 2866.59M4310.5 2798.5 5369.5 2798.5" stroke="#D9D9D9" stroke-width="3.4375" stroke-linejoin="round" stroke-miterlimit="10" fill="none"/></g><g clip-path="url(#clip35)"><path d="M4368.14 3189.1 4443.15 3189.1 4443.15 3409 4368.14 3409ZM4632.15 3217.11 4708.15 3217.11 4708.15 3409 4632.15 3409ZM4897.16 3205.11 4973.16 3205.11 4973.16 3409 4897.16 3409ZM5162.17 3216.11 5237.17 3216.11 5237.17 3409 5162.17 3409Z" fill="#4472C4"/></g><g clip-path="url(#clip36)"><path d="M4443.15 3158.1 4519.15 3158.1 4519.15 3409 4443.15 3409ZM4708.15 3160.1 4784.16 3160.1 4784.16 3409 4708.15 3409ZM4973.16 3171.1 5048.17 3171.1 5048.17 3409 4973.16 3409ZM5237.17 3174.1 5313.17 3174.1 5313.17 3409 5237.17 3409Z" fill="#ED7D31"/></g><g clip-path="url(#clip37)"><path d="M4405.64 3189.6 4405.64 3332.5M4405.64 3189.6 4405.64 3046.5M4395.5 3332.5 4415.5 3332.5M4395.5 3046.5 4415.5 3046.5" stroke="#595959" stroke-width="3.4375" stroke-linejoin="round" stroke-miterlimit="10" fill="none"/></g><g clip-path="url(#clip38)"><path d="M4670.65 3216.61 4670.65 3372.5M4670.65 3216.61 4670.65 3060.5M4659.5 3372.5 4680.5 3372.5M4659.5 3060.5 4680.5 3060.5" stroke="#595959" stroke-width="3.4375" stroke-linejoin="round" stroke-miterlimit="10" fill="none"/></g><g clip-path="url(#clip39)"><path d="M4934.66 3205.61 4934.66 3366.5M4934.66 3205.61 4934.66 3044.5M4924.5 3366.5 4945.5 3366.5M4924.5 3044.5 4945.5 3044.5" stroke="#595959" stroke-width="3.4375" stroke-linejoin="round" stroke-miterlimit="10" fill="none"/></g><g clip-path="url(#clip40)"><path d="M5199.67 3216.61 5199.67 3351.5M5199.67 3216.61 5199.67 3081.5M5189.5 3351.5 5209.5 3351.5M5189.5 3081.5 5209.5 3081.5" stroke="#595959" stroke-width="3.4375" stroke-linejoin="round" stroke-miterlimit="10" fill="none"/></g><g clip-path="url(#clip41)"><path d="M4481.65 3157.6 4481.65 3275.5M4481.65 3157.6 4481.65 3040.5M4470.5 3275.5 4491.5 3275.5M4470.5 3040.5 4491.5 3040.5" stroke="#595959" stroke-width="3.4375" stroke-linejoin="round" stroke-miterlimit="10" fill="none"/></g><g clip-path="url(#clip42)"><path d="M4745.66 3160.6 4745.66 3296.5M4745.66 3160.6 4745.66 3023.5M4735.5 3296.5 4756.5 3296.5M4735.5 3023.5 4756.5 3023.5" stroke="#595959" stroke-width="3.4375" stroke-linejoin="round" stroke-miterlimit="10" fill="none"/></g><g clip-path="url(#clip43)"><path d="M5010.66 3170.6 5010.66 3334.5M5010.66 3170.6 5010.66 3006.5M5000.5 3334.5 5020.5 3334.5M5000.5 3006.5 5020.5 3006.5" stroke="#595959" stroke-width="3.4375" stroke-linejoin="round" stroke-miterlimit="10" fill="none"/></g><g clip-path="url(#clip44)"><path d="M5275.67 3173.6 5275.67 3314.5M5275.67 3173.6 5275.67 3033.5M5264.5 3314.5 5285.5 3314.5M5264.5 3033.5 5285.5 3033.5" stroke="#595959" stroke-width="3.4375" stroke-linejoin="round" stroke-miterlimit="10" fill="none"/></g><g clip-path="url(#clip45)"><path d="M4310.5 3408.5 5369.5 3408.5" stroke="#D9D9D9" stroke-width="3.4375" stroke-linejoin="round" stroke-miterlimit="10" fill="none" fill-rule="evenodd"/></g><g clip-path="url(#clip46)"><path d="M4443.5 3157.6 4445.65 3157.6 4448.65 3157.6 4450.65 3157.6 4453.65 3157.6 4456.65 3157.6 4458.65 3157.6 4461.65 3157.6 4463.65 3157.6 4466.65 3157.6 4468.65 3157.6 4471.65 3157.6 4474.65 3157.6 4476.65 3157.6 4479.65 3157.6 4481.65 3157.6 4484.65 3157.6 4487.65 3157.6 4489.65 3157.6 4492.65 3157.6 4494.65 3157.6 4497.65 3157.6 4499.65 3156.6 4502.65 3156.6 4505.65 3156.6 4507.65 3156.6 4510.65 3156.6 4512.65 3156.6 4515.65 3156.6 4517.65 3156.6 4520.65 3156.6 4523.65 3156.6 4525.65 3156.6 4528.65 3156.5 4530.65 3156.6 4533.65 3156.6 4536.65 3156.6 4538.65 3156.6 4541.65 3156.6 4543.65 3156.6 4546.65 3156.6 4548.65 3156.6 4551.65 3156.6 4554.65 3156.6 4556.65 3156.6 4559.65 3157.6 4561.65 3157.6 4564.65 3157.6 4566.65 3157.6 4569.65 3157.6 4572.65 3157.6 4574.65 3157.6 4577.65 3157.6 4579.65 3157.6 4582.65 3157.6 4584.65 3157.6 4587.65 3157.6 4590.65 3157.6 4592.65 3157.6 4595.65 3157.6 4597.65 3157.6 4600.65 3157.6 4603.65 3157.6 4605.65 3157.6 4608.65 3157.6 4610.65 3157.6 4613.65 3157.6 4615.65 3157.6 4618.65 3157.6 4621.65 3157.6 4623.65 3157.6 4626.65 3158.6 4628.65 3158.6 4631.65 3158.6 4633.65 3158.6 4636.65 3158.6 4639.65 3158.6 4641.65 3158.6 4644.65 3158.6 4646.65 3158.6 4649.65 3158.6 4652.65 3158.6 4654.65 3158.6 4657.65 3158.6 4659.65 3158.6 4662.65 3158.6 4664.65 3158.6 4667.65 3159.6 4670.65 3159.6 4672.65 3159.6 4675.65 3159.6 4677.65 3159.6 4680.65 3159.6 4682.65 3159.6 4685.65 3159.6 4688.65 3159.6 4690.65 3159.6 4693.65 3159.6 4695.65 3159.6 4698.65 3159.6 4701.65 3160.6 4703.65 3160.6 4706.65 3160.6 4708.65 3160.6 4711.65 3160.6 4713.65 3160.6 4716.65 3160.6 4719.65 3160.6 4721.65 3160.6 4724.66 3160.6 4726.66 3160.6 4729.66 3161.6 4731.66 3161.6 4734.66 3161.6 4737.66 3161.6 4739.66 3161.6 4742.66 3161.6 4744.66 3161.6 4747.66 3161.6 4750.66 3161.6 4752.66 3161.6 4755.66 3161.6 4757.66 3162.6 4760.66 3162.6 4762.66 3162.6 4765.66 3162.6 4768.66 3162.6 4770.66 3162.6 4773.66 3162.6 4775.66 3162.6 4778.66 3162.6 4780.66 3162.6 4783.66 3163.6 4786.66 3163.6 4788.66 3163.6 4791.66 3163.6 4793.66 3163.6 4796.66 3163.6 4798.66 3163.6 4801.66 3163.6 4804.66 3163.6 4806.66 3163.6 4809.66 3164.6 4811.66 3164.6 4814.66 3164.6 4817.66 3164.6 4819.66 3164.6 4822.66 3164.6 4824.66 3164.6 4827.66 3164.6 4829.66 3164.6 4832.66 3165.6 4835.66 3165.6 4837.66 3165.6 4840.66 3165.6 4842.66 3165.6 4845.66 3165.6 4847.66 3165.6 4850.66 3165.6 4853.66 3165.6 4855.66 3166.6 4858.66 3166.6 4860.66 3166.6 4863.66 3166.6 4866.66 3166.6 4868.66 3166.6 4871.66 3166.6 4873.66 3166.6 4876.66 3166.6 4878.66 3166.6 4881.66 3167.6 4884.66 3167.6 4886.66 3167.6 4889.66 3167.6 4891.66 3167.6 4894.66 3167.6 4896.66 3167.6 4899.66 3167.6 4902.66 3167.6 4904.66 3167.6 4907.66 3168.6 4909.66 3168.6 4912.66 3168.6 4915.66 3168.6 4917.66 3168.6 4920.66 3168.6 4922.66 3168.6 4925.66 3168.6 4927.66 3168.6 4930.66 3169.6 4933.66 3169.6 4935.66 3169.6 4938.66 3169.6 4940.66 3169.6 4943.66 3169.6 4945.66 3169.6 4948.66 3169.6 4951.66 3169.6 4953.66 3169.6 4956.66 3169.6 4958.66 3170.6 4961.66 3170.6 4963.66 3170.6 4966.66 3170.6 4969.66 3170.6 4971.66 3170.6 4974.66 3170.6 4976.66 3170.6 4979.66 3170.6 4982.66 3170.6 4984.66 3170.6 4987.66 3171.6 4989.66 3171.6 4992.66 3171.6 4994.66 3171.6 4997.66 3171.6 5000.66 3171.6 5002.66 3171.6 5005.66 3171.6 5007.66 3171.6 5010.66 3171.6 5012.66 3171.6 5015.66 3171.6 5018.66 3172.6 5020.66 3172.6 5023.67 3172.6 5025.67 3172.6 5028.67 3172.6 5031.67 3172.6 5033.67 3172.6 5036.67 3172.6 5038.67 3172.6 5041.67 3172.6 5043.67 3172.6 5046.67 3172.6 5049.67 3172.6 5051.67 3172.6 5054.67 3172.6 5056.67 3173.6 5059.67 3173.6 5061.67 3173.6 5064.67 3173.6 5067.67 3173.6 5069.67 3173.6 5072.67 3173.6 5074.67 3173.6 5077.67 3173.6 5080.67 3173.6 5082.67 3173.6 5085.67 3173.6 5087.67 3173.6 5090.67 3173.6 5092.67 3173.6 5095.67 3173.6 5098.67 3173.6 5100.67 3173.6 5103.67 3173.6 5105.67 3173.6 5108.67 3174.6 5110.67 3174.6 5113.67 3174.6 5116.67 3174.6 5118.67 3174.6 5121.67 3174.6 5123.67 3174.6 5126.67 3174.6 5129.67 3174.6 5131.67 3174.6 5134.67 3174.6 5136.67 3174.6 5139.67 3174.6 5141.67 3174.6 5144.67 3174.6 5147.67 3174.6 5149.67 3174.6 5152.67 3174.6 5154.67 3174.6 5157.67 3174.6 5159.67 3174.6 5162.67 3174.6 5165.67 3174.5 5167.67 3174.6 5170.67 3174.6 5172.67 3174.6 5175.67 3174.6 5177.67 3174.6 5180.67 3174.6 5183.67 3174.6 5185.67 3174.6 5188.67 3174.6 5190.67 3174.6 5193.67 3174.6 5196.67 3174.6 5198.67 3174.6 5201.67 3174.6 5203.67 3174.6 5206.67 3174.6 5208.67 3174.6 5211.67 3174.6 5214.67 3174.6 5216.67 3174.6 5219.67 3174.6 5221.67 3173.6 5224.67 3173.6 5226.67 3173.6 5229.67 3173.6 5232.67 3173.6 5234.67 3173.6 5237.5 3173.6" stroke="#ED7D31" stroke-width="6.875" stroke-linecap="round" stroke-linejoin="round" stroke-miterlimit="10" stroke-dasharray="0 13.75" fill="none"/></g><g clip-path="url(#clip47)"><text fill="#595959" font-family="Arial,Arial_MSFontService,sans-serif" font-weight="400" font-size="41" transform="matrix(1 0 0 1 4252.58 3421)">0</text></g><g clip-path="url(#clip48)"><text fill="#595959" font-family="Arial,Arial_MSFontService,sans-serif" font-weight="400" font-size="41" transform="matrix(1 0 0 1 4218.18 3354)">0.1</text></g><g clip-path="url(#clip49)"><text fill="#595959" font-family="Arial,Arial_MSFontService,sans-serif" font-weight="400" font-size="41" transform="matrix(1 0 0 1 4218.18 3286)">0.2</text></g><g clip-path="url(#clip50)"><text fill="#595959" font-family="Arial,Arial_MSFontService,sans-serif" font-weight="400" font-size="41" transform="matrix(1 0 0 1 4218.18 3218)">0.3</text></g><g clip-path="url(#clip51)"><text fill="#595959" font-family="Arial,Arial_MSFontService,sans-serif" font-weight="400" font-size="41" transform="matrix(1 0 0 1 4218.18 3150)">0.4</text></g><g clip-path="url(#clip52)"><text fill="#595959" font-family="Arial,Arial_MSFontService,sans-serif" font-weight="400" font-size="41" transform="matrix(1 0 0 1 4218.18 3082)">0.5</text></g><g clip-path="url(#clip53)"><text fill="#595959" font-family="Arial,Arial_MSFontService,sans-serif" font-weight="400" font-size="41" transform="matrix(1 0 0 1 4218.18 3015)">0.6</text></g><g clip-path="url(#clip54)"><text fill="#595959" font-family="Arial,Arial_MSFontService,sans-serif" font-weight="400" font-size="41" transform="matrix(1 0 0 1 4218.18 2947)">0.7</text></g><g clip-path="url(#clip55)"><text fill="#595959" font-family="Arial,Arial_MSFontService,sans-serif" font-weight="400" font-size="41" transform="matrix(1 0 0 1 4218.18 2879)">0.8</text></g><g clip-path="url(#clip56)"><text fill="#595959" font-family="Arial,Arial_MSFontService,sans-serif" font-weight="400" font-size="41" transform="matrix(1 0 0 1 4218.18 2811)">0.9</text></g><g clip-path="url(#clip57)"><text fill="#595959" font-family="Arial,Arial_MSFontService,sans-serif" font-weight="400" font-size="41" transform="matrix(1 0 0 1 4420.4 3470)">10</text></g><g clip-path="url(#clip58)"><text fill="#595959" font-family="Arial,Arial_MSFontService,sans-serif" font-weight="400" font-size="41" transform="matrix(1 0 0 1 4685.11 3470)">15</text></g><g clip-path="url(#clip59)"><text fill="#595959" font-family="Arial,Arial_MSFontService,sans-serif" font-weight="400" font-size="41" transform="matrix(1 0 0 1 4949.81 3470)">25</text></g><g clip-path="url(#clip60)"><text fill="#595959" font-family="Arial,Arial_MSFontService,sans-serif" font-weight="400" font-size="41" transform="matrix(1 0 0 1 5214.52 3470)">50</text></g><g clip-path="url(#clip61)"><text fill="#595959" font-family="Arial,Arial_MSFontService,sans-serif" font-weight="400" font-size="46" transform="matrix(6.12323e-17 -1 1 6.12323e-17 4194.71 3344)">Spearman’s Correlation</text></g><g clip-path="url(#clip62)"><text fill="#595959" font-family="Arial,Arial_MSFontService,sans-serif" font-weight="400" font-size="46" transform="matrix(1 0 0 1 4539.83 3536)">Kernal lengthscale upper limit</text></g><g clip-path="url(#clip63)"><text fill="#595959" font-family="Arial,Arial_MSFontService,sans-serif" font-weight="400" font-size="64" transform="matrix(1 0 0 1 4752.55 2727)">Test Scores</text></g><g clip-path="url(#clip64)"><rect x="5441" y="3129" width="21" height="20" fill="#4472C4"/></g><g clip-path="url(#clip65)"><text fill="#595959" font-family="Arial,Arial_MSFontService,sans-serif" font-weight="400" font-size="41" transform="matrix(1 0 0 1 5470.28 3152)">Slope</text></g><g clip-path="url(#clip66)"><rect x="5441" y="3202" width="21" height="21" fill="#ED7D31"/></g><g clip-path="url(#clip67)"><text fill="#595959" font-family="Arial,Arial_MSFontService,sans-serif" font-weight="400" font-size="41" transform="matrix(1 0 0 1 5470.28 3225)">MassActivity</text></g></g></svg>