<svg width="1652" height="971" xmlns="http://www.w3.org/2000/svg" xmlns:xlink="http://www.w3.org/1999/xlink" xml:space="preserve" overflow="hidden"><defs><clipPath id="clip0"><rect x="2392" y="4265" width="1652" height="971"/></clipPath><clipPath id="clip1"><rect x="2392" y="4265" width="1651" height="970"/></clipPath><clipPath id="clip2"><rect x="2392" y="4265" width="1651" height="970"/></clipPath><clipPath id="clip3"><rect x="2392" y="4265" width="1651" height="970"/></clipPath><clipPath id="clip4"><rect x="2392" y="4265" width="1651" height="970"/></clipPath><clipPath id="clip5"><rect x="2392" y="4265" width="1651" height="970"/></clipPath><clipPath id="clip6"><rect x="2392" y="4265" width="1651" height="970"/></clipPath><clipPath id="clip7"><rect x="2618" y="4421" width="1378" height="615"/></clipPath><clipPath id="clip8"><rect x="2392" y="4265" width="1651" height="970"/></clipPath><clipPath id="clip9"><rect x="2618" y="4421" width="1378" height="615"/></clipPath><clipPath id="clip10"><rect x="2392" y="4265" width="1651" height="970"/></clipPath><clipPath id="clip11"><rect x="2618" y="4421" width="1378" height="615"/></clipPath><clipPath id="clip12"><rect x="2392" y="4265" width="1651" height="970"/></clipPath><clipPath id="clip13"><rect x="2392" y="4265" width="1651" height="970"/></clipPath><clipPath id="clip14"><rect x="2392" y="4265" width="1651" height="970"/></clipPath><clipPath id="clip15"><rect x="2392" y="4265" width="1651" height="970"/></clipPath><clipPath id="clip16"><rect x="2392" y="4265" width="1651" height="970"/></clipPath><clipPath id="clip17"><rect x="2392" y="4265" width="1651" height="970"/></clipPath><clipPath id="clip18"><rect x="2392" y="4265" width="1651" height="970"/></clipPath><clipPath id="clip19"><rect x="2392" y="4265" width="1651" height="970"/></clipPath><clipPath id="clip20"><rect x="2392" y="4265" width="1651" height="970"/></clipPath><clipPath id="clip21"><rect x="2392" y="4265" width="1651" height="970"/></clipPath><clipPath id="clip22"><rect x="2392" y="4265" width="1651" height="970"/></clipPath><clipPath id="clip23"><rect x="2392" y="4265" width="1651" height="970"/></clipPath><clipPath id="clip24"><rect x="2392" y="4265" width="1651" height="970"/></clipPath><clipPath id="clip25"><rect x="2392" y="4265" width="1651" height="970"/></clipPath><clipPath id="clip26"><rect x="2392" y="4265" width="1651" height="970"/></clipPath><clipPath id="clip27"><rect x="2392" y="4265" width="1651" height="970"/></clipPath><clipPath id="clip28"><rect x="2392" y="4265" width="1651" height="970"/></clipPath><clipPath id="clip29"><rect x="2392" y="4265" width="1651" height="970"/></clipPath><clipPath id="clip30"><rect x="2392" y="4265" width="1651" height="970"/></clipPath><clipPath id="clip31"><rect x="2392" y="4265" width="1651" height="970"/></clipPath><clipPath id="clip32"><rect x="2392" y="4265" width="1651" height="970"/></clipPath><clipPath id="clip33"><rect x="2392" y="4265" width="1651" height="970"/></clipPath><clipPath id="clip34"><rect x="2392" y="4265" width="1651" height="970"/></clipPath><clipPath id="clip35"><rect x="2392" y="4265" width="1651" height="970"/></clipPath><clipPath id="clip36"><rect x="2392" y="4265" width="1651" height="970"/></clipPath><clipPath id="clip37"><rect x="2392" y="4265" width="1651" height="970"/></clipPath><clipPath id="clip38"><rect x="2392" y="4265" width="1651" height="970"/></clipPath><clipPath id="clip39"><rect x="2392" y="4265" width="1651" height="970"/></clipPath><clipPath id="clip40"><rect x="2392" y="4265" width="1651" height="970"/></clipPath><clipPath id="clip41"><rect x="2392" y="4265" width="1651" height="970"/></clipPath><clipPath id="clip42"><rect x="2392" y="4265" width="1651" height="970"/></clipPath><clipPath id="clip43"><rect x="2392" y="4265" width="1651" height="970"/></clipPath><clipPath id="clip44"><rect x="2392" y="4265" width="1651" height="970"/></clipPath><clipPath id="clip45"><rect x="2392" y="4265" width="1651" height="970"/></clipPath><clipPath id="clip46"><rect x="2392" y="4265" width="1651" height="970"/></clipPath><clipPath id="clip47"><rect x="2392" y="4265" width="1651" height="970"/></clipPath></defs><g clip-path="url(#clip0)" transform="translate(-2392 -4265)"><rect x="2392" y="4265" width="1652" height="971" fill="#FFFFFF"/><g clip-path="url(#clip1)"><rect x="2619" y="4421" width="1374" height="612" fill="#FFFFFF"/></g><g clip-path="url(#clip2)"><path d="M2618.5 4981.66 3993.5 4981.66M2618.5 4930.66 3993.5 4930.66M2618.5 4879.66 3993.5 4879.66M2618.5 4828.66 3993.5 4828.66M2618.5 4777.66 3993.5 4777.66M2618.5 4727.66 3993.5 4727.66M2618.5 4676.65 3993.5 4676.65M2618.5 4625.65 3993.5 4625.65M2618.5 4574.65 3993.5 4574.65M2618.5 4523.65 3993.5 4523.65M2618.5 4472.65 3993.5 4472.65M2618.5 4421.5 3993.5 4421.5" stroke="#D9D9D9" stroke-width="3.4375" stroke-linejoin="round" stroke-miterlimit="10" stroke-opacity="0.701961" fill="none"/></g><g clip-path="url(#clip3)"><path d="M0 0 0.000360892 612" stroke="#767171" stroke-width="2.29167" stroke-linejoin="round" stroke-miterlimit="10" fill="none" fill-rule="evenodd" transform="matrix(1 0 0 -1 2619 5033)"/></g><g clip-path="url(#clip4)"><path d="M2619 5033 2627.09 5033M2619 5023.17 2627.09 5023.17M2619 5012.16 2627.09 5012.16M2619 5002.16 2627.09 5002.16M2619 4992.16 2627.09 4992.16M2619 4982.16 2627.09 4982.16M2619 4972.16 2627.09 4972.16M2619 4961.16 2627.09 4961.16M2619 4951.16 2627.09 4951.16M2619 4941.16 2627.09 4941.16M2619 4931.16 2627.09 4931.16M2619 4921.16 2627.09 4921.16M2619 4910.16 2627.09 4910.16M2619 4900.16 2627.09 4900.16M2619 4890.16 2627.09 4890.16M2619 4880.16 2627.09 4880.16M2619 4870.16 2627.09 4870.16M2619 4859.16 2627.09 4859.16M2619 4849.16 2627.09 4849.16M2619 4839.16 2627.09 4839.16M2619 4829.16 2627.09 4829.16M2619 4819.16 2627.09 4819.16M2619 4809.16 2627.09 4809.16M2619 4798.16 2627.09 4798.16M2619 4788.16 2627.09 4788.16M2619 4778.16 2627.09 4778.16M2619 4768.16 2627.09 4768.16M2619 4758.16 2627.09 4758.16M2619 4747.16 2627.09 4747.16M2619 4737.16 2627.09 4737.16M2619 4727.16 2627.09 4727.16M2619 4717.15 2627.09 4717.15M2619 4707.15 2627.09 4707.15M2619 4696.15 2627.09 4696.15M2619 4686.15 2627.09 4686.15M2619 4676.15 2627.09 4676.15M2619 4666.15 2627.09 4666.15M2619 4656.15 2627.09 4656.15M2619 4645.15 2627.09 4645.15M2619 4635.15 2627.09 4635.15M2619 4625.15 2627.09 4625.15M2619 4615.15 2627.09 4615.15M2619 4605.15 2627.09 4605.15M2619 4595.15 2627.09 4595.15M2619 4584.15 2627.09 4584.15M2619 4574.15 2627.09 4574.15M2619 4564.15 2627.09 4564.15M2619 4554.15 2627.09 4554.15M2619 4544.15 2627.09 4544.15M2619 4533.15 2627.09 4533.15M2619 4523.15 2627.09 4523.15M2619 4513.15 2627.09 4513.15M2619 4503.15 2627.09 4503.15M2619 4493.15 2627.09 4493.15M2619 4482.15 2627.09 4482.15M2619 4472.15 2627.09 4472.15M2619 4462.15 2627.09 4462.15M2619 4452.15 2627.09 4452.15M2619 4442.15 2627.09 4442.15M2619 4431.15 2627.09 4431.15M2619 4421 2627.09 4421M2619 5033 2630 5033M2619 4982.16 2630 4982.16M2619 4931.16 2630 4931.16M2619 4880.16 2630 4880.16M2619 4829.16 2630 4829.16M2619 4778.16 2630 4778.16M2619 4727.16 2630 4727.16M2619 4676.15 2630 4676.15M2619 4625.15 2630 4625.15M2619 4574.15 2630 4574.15M2619 4523.15 2630 4523.15M2619 4472.15 2630 4472.15M2619 4421 2630 4421" stroke="#767171" stroke-width="2.29167" stroke-linejoin="round" stroke-miterlimit="10" fill="none"/></g><g clip-path="url(#clip5)"><path d="M2618.5 5032.5 3993.5 5032.5" stroke="#D9D9D9" stroke-width="3.4375" stroke-linejoin="round" stroke-miterlimit="10" fill="none" fill-rule="evenodd"/></g><g clip-path="url(#clip6)"><path d="M2756.59 5022.67 2756.59 5032.5M3031.6 5022.67 3031.6 5032.5M3306.61 5022.67 3306.61 5032.5M3580.62 5022.67 3580.62 5032.5M3855.63 5022.67 3855.63 5032.5M3993.5 5022.67 3993.5 5032.5M2618.5 5019.5 2618.5 5032.5M2893.59 5019.5 2893.59 5032.5M3168.6 5019.5 3168.6 5032.5M3443.61 5019.5 3443.61 5032.5M3718.62 5019.5 3718.62 5032.5M3993.5 5019.5 3993.5 5032.5" stroke="#D9D9D9" stroke-width="3.4375" stroke-linejoin="round" stroke-miterlimit="10" fill="none"/></g><g clip-path="url(#clip7)"><path d="M2756 4869.16 3031.1 4852 3306.11 4877.16 3581.12 4907.16 3856 4915" stroke="#5089BC" stroke-width="5.72917" stroke-linecap="round" stroke-linejoin="round" stroke-miterlimit="10" stroke-dasharray="11.4583 11.4583" fill="none"/></g><g clip-path="url(#clip8)"><path d="M2767.28 4880.26 2745.28 4858.26M2756.28 4858.26 2756.28 4880.26M2745.28 4880.26 2767.28 4858.26" stroke="#5089BC" stroke-width="2.29167" stroke-linejoin="round" stroke-miterlimit="10" fill="#5089BC"/><path d="M3042.28 4863.26 3020.28 4841.26M3031.28 4841.26 3031.28 4863.26M3020.28 4863.26 3042.28 4841.26" stroke="#5089BC" stroke-width="2.29167" stroke-linejoin="round" stroke-miterlimit="10" fill="#5089BC"/><path d="M3317.28 4888.26 3295.28 4866.26M3306.28 4866.26 3306.28 4888.26M3295.28 4888.26 3317.28 4866.26" stroke="#5089BC" stroke-width="2.29167" stroke-linejoin="round" stroke-miterlimit="10" fill="#5089BC"/><path d="M3592.28 4918.26 3570.28 4896.26M3581.28 4896.26 3581.28 4918.26M3570.28 4918.26 3592.28 4896.26" stroke="#5089BC" stroke-width="2.29167" stroke-linejoin="round" stroke-miterlimit="10" fill="#5089BC"/><path d="M3867.28 4926.26 3845.28 4904.26M3856.28 4904.26 3856.28 4926.26M3845.28 4926.26 3867.28 4904.26" stroke="#5089BC" stroke-width="2.29167" stroke-linejoin="round" stroke-miterlimit="10" fill="#5089BC"/></g><g clip-path="url(#clip9)"><path d="M2756 4871.16 3031.1 4875 3306.11 4833 3581.12 4860.16 3856 4857.16" stroke="#7030A0" stroke-width="5.72917" stroke-linecap="round" stroke-linejoin="round" stroke-miterlimit="10" stroke-dasharray="17.1875 22.9167" fill="none"/></g><g clip-path="url(#clip10)"><path d="M2768.28 4872.76C2768.28 4879.11 2763.13 4884.26 2756.78 4884.26 2750.43 4884.26 2745.28 4879.11 2745.28 4872.76 2745.28 4866.41 2750.43 4861.26 2756.78 4861.26 2763.13 4861.26 2768.28 4866.41 2768.28 4872.76Z" stroke="#62993E" stroke-width="2.29167" stroke-linejoin="round" stroke-miterlimit="10" fill="#62993E"/><path d="M3043.28 4875.76C3043.28 4882.11 3038.13 4887.26 3031.78 4887.26 3025.43 4887.26 3020.28 4882.11 3020.28 4875.76 3020.28 4869.41 3025.43 4864.26 3031.78 4864.26 3038.13 4864.26 3043.28 4869.41 3043.28 4875.76Z" stroke="#62993E" stroke-width="2.29167" stroke-linejoin="round" stroke-miterlimit="10" fill="#62993E"/><path d="M3318.28 4833.76C3318.28 4840.11 3313.13 4845.26 3306.78 4845.26 3300.43 4845.26 3295.28 4840.11 3295.28 4833.76 3295.28 4827.41 3300.43 4822.26 3306.78 4822.26 3313.13 4822.26 3318.28 4827.41 3318.28 4833.76Z" stroke="#62993E" stroke-width="2.29167" stroke-linejoin="round" stroke-miterlimit="10" fill="#62993E"/><path d="M3593.28 4860.76C3593.28 4867.11 3588.13 4872.26 3581.78 4872.26 3575.43 4872.26 3570.28 4867.11 3570.28 4860.76 3570.28 4854.41 3575.43 4849.26 3581.78 4849.26 3588.13 4849.26 3593.28 4854.41 3593.28 4860.76Z" stroke="#62993E" stroke-width="2.29167" stroke-linejoin="round" stroke-miterlimit="10" fill="#62993E"/><path d="M3868.28 4857.76C3868.28 4864.11 3863.13 4869.26 3856.78 4869.26 3850.43 4869.26 3845.28 4864.11 3845.28 4857.76 3845.28 4851.41 3850.43 4846.26 3856.78 4846.26 3863.13 4846.26 3868.28 4851.41 3868.28 4857.76Z" stroke="#62993E" stroke-width="2.29167" stroke-linejoin="round" stroke-miterlimit="10" fill="#62993E"/></g><g clip-path="url(#clip11)"><path d="M2756.5 4503.65 3031.6 4490.65 3306.61 4473.5 3580.62 4530.65 3855.5 4534.5" stroke="#2E75B6" stroke-width="6.875" stroke-linecap="round" stroke-linejoin="round" stroke-miterlimit="10" fill="none"/></g><g clip-path="url(#clip12)"><path d="M2742.28 4490.26 2769.28 4490.26 2769.28 4517.26 2742.28 4517.26Z" stroke="#BFBFBF" stroke-width="2.29167" stroke-linejoin="round" stroke-miterlimit="10" fill="#BFBFBF"/><path d="M3017.28 4477.26 3044.28 4477.26 3044.28 4504.26 3017.28 4504.26Z" stroke="#BFBFBF" stroke-width="2.29167" stroke-linejoin="round" stroke-miterlimit="10" fill="#BFBFBF"/><path d="M3292.28 4459.26 3319.28 4459.26 3319.28 4486.26 3292.28 4486.26Z" stroke="#BFBFBF" stroke-width="2.29167" stroke-linejoin="round" stroke-miterlimit="10" fill="#BFBFBF"/><path d="M3567.28 4517.26 3594.28 4517.26 3594.28 4544.26 3567.28 4544.26Z" stroke="#BFBFBF" stroke-width="2.29167" stroke-linejoin="round" stroke-miterlimit="10" fill="#BFBFBF"/><path d="M3842.28 4521.26 3869.28 4521.26 3869.28 4548.26 3842.28 4548.26Z" stroke="#BFBFBF" stroke-width="2.29167" stroke-linejoin="round" stroke-miterlimit="10" fill="#BFBFBF"/></g><g clip-path="url(#clip13)"><text font-family="Arial,Arial_MSFontService,sans-serif" font-weight="400" font-size="46" transform="matrix(1 0 0 1 2699.05 4581)">0.719 </text></g><g clip-path="url(#clip14)"><text font-family="Arial,Arial_MSFontService,sans-serif" font-weight="400" font-size="46" transform="matrix(1 0 0 1 2973.92 4568)">0.732 </text></g><g clip-path="url(#clip15)"><text font-family="Arial,Arial_MSFontService,sans-serif" font-weight="400" font-size="46" transform="matrix(1 0 0 1 3248.79 4551)">0.749 </text></g><g clip-path="url(#clip16)"><text font-family="Arial,Arial_MSFontService,sans-serif" font-weight="400" font-size="46" transform="matrix(1 0 0 1 3523.66 4608)">0.693 </text></g><g clip-path="url(#clip17)"><text font-family="Arial,Arial_MSFontService,sans-serif" font-weight="400" font-size="46" transform="matrix(1 0 0 1 3798.53 4612)">0.689 </text></g><g clip-path="url(#clip18)"><text font-family="Arial,Arial_MSFontService,sans-serif" font-weight="400" font-size="37" transform="matrix(1 0 0 1 2536.43 5044)">0.2</text></g><g clip-path="url(#clip19)"><text font-family="Arial,Arial_MSFontService,sans-serif" font-weight="400" font-size="37" transform="matrix(1 0 0 1 2516.03 4993)">0.25</text></g><g clip-path="url(#clip20)"><text font-family="Arial,Arial_MSFontService,sans-serif" font-weight="400" font-size="37" transform="matrix(1 0 0 1 2536.43 4942)">0.3</text></g><g clip-path="url(#clip21)"><text font-family="Arial,Arial_MSFontService,sans-serif" font-weight="400" font-size="37" transform="matrix(1 0 0 1 2516.03 4891)">0.35</text></g><g clip-path="url(#clip22)"><text font-family="Arial,Arial_MSFontService,sans-serif" font-weight="400" font-size="37" transform="matrix(1 0 0 1 2536.43 4841)">0.4</text></g><g clip-path="url(#clip23)"><text font-family="Arial,Arial_MSFontService,sans-serif" font-weight="400" font-size="37" transform="matrix(1 0 0 1 2516.03 4790)">0.45</text></g><g clip-path="url(#clip24)"><text font-family="Arial,Arial_MSFontService,sans-serif" font-weight="400" font-size="37" transform="matrix(1 0 0 1 2536.43 4739)">0.5</text></g><g clip-path="url(#clip25)"><text font-family="Arial,Arial_MSFontService,sans-serif" font-weight="400" font-size="37" transform="matrix(1 0 0 1 2516.03 4688)">0.55</text></g><g clip-path="url(#clip26)"><text font-family="Arial,Arial_MSFontService,sans-serif" font-weight="400" font-size="37" transform="matrix(1 0 0 1 2536.43 4637)">0.6</text></g><g clip-path="url(#clip27)"><text font-family="Arial,Arial_MSFontService,sans-serif" font-weight="400" font-size="37" transform="matrix(1 0 0 1 2516.03 4586)">0.65</text></g><g clip-path="url(#clip28)"><text font-family="Arial,Arial_MSFontService,sans-serif" font-weight="400" font-size="37" transform="matrix(1 0 0 1 2536.43 4535)">0.7</text></g><g clip-path="url(#clip29)"><text font-family="Arial,Arial_MSFontService,sans-serif" font-weight="400" font-size="37" transform="matrix(1 0 0 1 2516.03 4484)">0.75</text></g><g clip-path="url(#clip30)"><text font-family="Arial,Arial_MSFontService,sans-serif" font-weight="400" font-size="37" transform="matrix(1 0 0 1 2536.43 4433)">0.8</text></g><g clip-path="url(#clip31)"><text font-family="Arial,Arial_MSFontService,sans-serif" font-weight="400" font-size="46" transform="matrix(1 0 0 1 2743.65 5103)">5</text></g><g clip-path="url(#clip32)"><text font-family="Arial,Arial_MSFontService,sans-serif" font-weight="400" font-size="46" transform="matrix(1 0 0 1 3005.77 5103)">10</text></g><g clip-path="url(#clip33)"><text font-family="Arial,Arial_MSFontService,sans-serif" font-weight="400" font-size="46" transform="matrix(1 0 0 1 3280.65 5103)">15</text></g><g clip-path="url(#clip34)"><text font-family="Arial,Arial_MSFontService,sans-serif" font-weight="400" font-size="46" transform="matrix(1 0 0 1 3555.52 5103)">22</text></g><g clip-path="url(#clip35)"><text font-family="Arial,Arial_MSFontService,sans-serif" font-weight="400" font-size="46" transform="matrix(1 0 0 1 3830.39 5103)">30</text></g><g clip-path="url(#clip36)"><text font-family="Arial,Arial_MSFontService,sans-serif" font-weight="400" font-size="46" transform="matrix(6.12323e-17 -1 1 6.12323e-17 2492.56 4968)">Spearman’s Correlation</text></g><g clip-path="url(#clip37)"><text font-family="Arial,Arial_MSFontService,sans-serif" font-weight="400" font-size="46" transform="matrix(1 0 0 1 2936.8 5169)">Dimensions of descriptors after </text></g><g clip-path="url(#clip38)"><text font-family="Arial,Arial_MSFontService,sans-serif" font-weight="400" font-size="46" transform="matrix(1 0 0 1 3581.22 5169)">PCA </text></g><g clip-path="url(#clip39)"><path d="M2852 4360 2967 4360" stroke="#5089BC" stroke-width="5.72917" stroke-linecap="round" stroke-linejoin="round" stroke-miterlimit="10" stroke-dasharray="11.4583 11.4583" fill="none" fill-rule="evenodd"/></g><g clip-path="url(#clip40)"><path d="M2920 4370 2898 4348M2909.1 4348 2909.1 4370M2898 4370 2920 4348" stroke="#5089BC" stroke-width="2.29167" stroke-linejoin="round" stroke-miterlimit="10" fill="#5089BC"/></g><g clip-path="url(#clip41)"><text font-family="Arial,Arial_MSFontService,sans-serif" font-weight="400" font-size="46" transform="matrix(1 0 0 1 2979.76 4375)">Slope</text></g><g clip-path="url(#clip42)"><path d="M3165 4360 3281 4360" stroke="#7030A0" stroke-width="5.72917" stroke-linecap="round" stroke-linejoin="round" stroke-miterlimit="10" stroke-dasharray="17.1875 22.9167" fill="none" fill-rule="evenodd"/></g><g clip-path="url(#clip43)"><path d="M3235 4359.5C3235 4365.85 3229.85 4371 3223.5 4371 3217.15 4371 3212 4365.85 3212 4359.5 3212 4353.15 3217.15 4348 3223.5 4348 3229.85 4348 3235 4353.15 3235 4359.5Z" stroke="#62993E" stroke-width="2.29167" stroke-linejoin="round" stroke-miterlimit="10" fill="#62993E"/></g><g clip-path="url(#clip44)"><text font-family="Arial,Arial_MSFontService,sans-serif" font-weight="400" font-size="46" transform="matrix(1 0 0 1 3293.68 4375)">MassActivity</text></g><g clip-path="url(#clip45)"><path d="M3616.5 4359.5 3732.5 4359.5" stroke="#2E75B6" stroke-width="6.875" stroke-linecap="round" stroke-linejoin="round" stroke-miterlimit="10" fill="none" fill-rule="evenodd"/></g><g clip-path="url(#clip46)"><path d="M3660 4345 3687 4345 3687 4372 3660 4372Z" stroke="#BFBFBF" stroke-width="2.29167" stroke-linejoin="round" stroke-miterlimit="10" fill="#BFBFBF"/></g><g clip-path="url(#clip47)"><text font-family="Arial,Arial_MSFontService,sans-serif" font-weight="400" font-size="46" transform="matrix(1 0 0 1 3745.05 4375)">Sum scores</text></g></g></svg>