<svg width="3328" height="1001" xmlns="http://www.w3.org/2000/svg" xmlns:xlink="http://www.w3.org/1999/xlink" xml:space="preserve" overflow="hidden"><defs><clipPath id="clip0"><rect x="2108" y="326" width="3328" height="1001"/></clipPath><clipPath id="clip1"><rect x="2107" y="326" width="1692" height="1000"/></clipPath><clipPath id="clip2"><rect x="2107" y="326" width="1692" height="1000"/></clipPath><clipPath id="clip3"><rect x="2347" y="491" width="1155" height="644"/></clipPath><clipPath id="clip4"><rect x="2347" y="491" width="1155" height="644"/></clipPath><clipPath id="clip5"><rect x="2347" y="491" width="1155" height="640"/></clipPath><clipPath id="clip6"><rect x="2347" y="491" width="1155" height="640"/></clipPath><clipPath id="clip7"><rect x="2347" y="491" width="1155" height="640"/></clipPath><clipPath id="clip8"><rect x="2347" y="491" width="1155" height="640"/></clipPath><clipPath id="clip9"><rect x="2347" y="491" width="1155" height="640"/></clipPath><clipPath id="clip10"><rect x="2347" y="491" width="1155" height="640"/></clipPath><clipPath id="clip11"><rect x="2347" y="491" width="1155" height="640"/></clipPath><clipPath id="clip12"><rect x="2347" y="491" width="1155" height="640"/></clipPath><clipPath id="clip13"><rect x="2107" y="326" width="1692" height="1000"/></clipPath><clipPath id="clip14"><rect x="2347" y="491" width="1151" height="640"/></clipPath><clipPath id="clip15"><rect x="2107" y="326" width="1692" height="1000"/></clipPath><clipPath id="clip16"><rect x="2107" y="326" width="1692" height="1000"/></clipPath><clipPath id="clip17"><rect x="2107" y="326" width="1692" height="1000"/></clipPath><clipPath id="clip18"><rect x="2107" y="326" width="1692" height="1000"/></clipPath><clipPath id="clip19"><rect x="2107" y="326" width="1692" height="1000"/></clipPath><clipPath id="clip20"><rect x="2107" y="326" width="1692" height="1000"/></clipPath><clipPath id="clip21"><rect x="2107" y="326" width="1692" height="1000"/></clipPath><clipPath id="clip22"><rect x="2107" y="326" width="1692" height="1000"/></clipPath><clipPath id="clip23"><rect x="2107" y="326" width="1692" height="1000"/></clipPath><clipPath id="clip24"><rect x="2107" y="326" width="1692" height="1000"/></clipPath><clipPath id="clip25"><rect x="2107" y="326" width="1692" height="1000"/></clipPath><clipPath id="clip26"><rect x="2107" y="326" width="1692" height="1000"/></clipPath><clipPath id="clip27"><rect x="2107" y="326" width="1692" height="1000"/></clipPath><clipPath id="clip28"><rect x="2107" y="326" width="1692" height="1000"/></clipPath><clipPath id="clip29"><rect x="2107" y="326" width="1692" height="1000"/></clipPath><clipPath id="clip30"><rect x="2107" y="326" width="1692" height="1000"/></clipPath><clipPath id="clip31"><rect x="2107" y="326" width="1692" height="1000"/></clipPath><clipPath id="clip32"><rect x="2107" y="326" width="1692" height="1000"/></clipPath><clipPath id="clip33"><rect x="2107" y="326" width="1692" height="1000"/></clipPath><clipPath id="clip34"><rect x="2107" y="326" width="1692" height="1000"/></clipPath><clipPath id="clip35"><rect x="2107" y="326" width="1692" height="1000"/></clipPath><clipPath id="clip36"><rect x="2107" y="326" width="1692" height="1000"/></clipPath><clipPath id="clip37"><rect x="3790" y="325" width="1646" height="1002"/></clipPath><clipPath id="clip38"><rect x="3790" y="325" width="1646" height="1002"/></clipPath><clipPath id="clip39"><rect x="4029" y="491" width="1110" height="644"/></clipPath><clipPath id="clip40"><rect x="4029" y="491" width="1110" height="644"/></clipPath><clipPath id="clip41"><rect x="4029" y="491" width="1110" height="641"/></clipPath><clipPath id="clip42"><rect x="4029" y="491" width="1110" height="641"/></clipPath><clipPath id="clip43"><rect x="4029" y="491" width="1110" height="641"/></clipPath><clipPath id="clip44"><rect x="4029" y="491" width="1110" height="641"/></clipPath><clipPath id="clip45"><rect x="4029" y="491" width="1110" height="641"/></clipPath><clipPath id="clip46"><rect x="4029" y="491" width="1110" height="641"/></clipPath><clipPath id="clip47"><rect x="4029" y="491" width="1110" height="641"/></clipPath><clipPath id="clip48"><rect x="4029" y="491" width="1110" height="641"/></clipPath><clipPath id="clip49"><rect x="3790" y="325" width="1646" height="1002"/></clipPath><clipPath id="clip50"><rect x="4029" y="491" width="1106" height="641"/></clipPath><clipPath id="clip51"><rect x="3790" y="325" width="1646" height="1002"/></clipPath><clipPath id="clip52"><rect x="3790" y="325" width="1646" height="1002"/></clipPath><clipPath id="clip53"><rect x="3790" y="325" width="1646" height="1002"/></clipPath><clipPath id="clip54"><rect x="3790" y="325" width="1646" height="1002"/></clipPath><clipPath id="clip55"><rect x="3790" y="325" width="1646" height="1002"/></clipPath><clipPath id="clip56"><rect x="3790" y="325" width="1646" height="1002"/></clipPath><clipPath id="clip57"><rect x="3790" y="325" width="1646" height="1002"/></clipPath><clipPath id="clip58"><rect x="3790" y="325" width="1646" height="1002"/></clipPath><clipPath id="clip59"><rect x="3790" y="325" width="1646" height="1002"/></clipPath><clipPath id="clip60"><rect x="3790" y="325" width="1646" height="1002"/></clipPath><clipPath id="clip61"><rect x="3790" y="325" width="1646" height="1002"/></clipPath><clipPath id="clip62"><rect x="3790" y="325" width="1646" height="1002"/></clipPath><clipPath id="clip63"><rect x="3790" y="325" width="1646" height="1002"/></clipPath><clipPath id="clip64"><rect x="3790" y="325" width="1646" height="1002"/></clipPath><clipPath id="clip65"><rect x="3790" y="325" width="1646" height="1002"/></clipPath><clipPath id="clip66"><rect x="3790" y="325" width="1646" height="1002"/></clipPath><clipPath id="clip67"><rect x="3790" y="325" width="1646" height="1002"/></clipPath><clipPath id="clip68"><rect x="3790" y="325" width="1646" height="1002"/></clipPath><clipPath id="clip69"><rect x="3790" y="325" width="1646" height="1002"/></clipPath><clipPath id="clip70"><rect x="3790" y="325" width="1646" height="1002"/></clipPath><clipPath id="clip71"><rect x="3790" y="325" width="1646" height="1002"/></clipPath><clipPath id="clip72"><rect x="3790" y="325" width="1646" height="1002"/></clipPath></defs><g clip-path="url(#clip0)" transform="translate(-2108 -326)"><rect x="2108" y="326" width="1691" height="1001" fill="#FFFFFF"/><g clip-path="url(#clip1)"><path d="M2347.5 1119.54 3498.5 1119.54M2347.5 1106.54 3498.5 1106.54M2347.5 1093.54 3498.5 1093.54M2347.5 1080.54 3498.5 1080.54M2347.5 1055.53 3498.5 1055.53M2347.5 1042.53 3498.5 1042.53M2347.5 1029.53 3498.5 1029.53M2347.5 1016.53 3498.5 1016.53M2347.5 991.533 3498.5 991.533M2347.5 978.532 3498.5 978.532M2347.5 965.532 3498.5 965.532M2347.5 952.531 3498.5 952.531M2347.5 927.531 3498.5 927.531M2347.5 914.53 3498.5 914.53M2347.5 901.53 3498.5 901.53M2347.5 888.529 3498.5 888.529M2347.5 863.529 3498.5 863.529M2347.5 850.528 3498.5 850.528M2347.5 837.528 3498.5 837.528M2347.5 824.527 3498.5 824.527M2347.5 799.526 3498.5 799.526M2347.5 786.526 3498.5 786.526M2347.5 773.526 3498.5 773.526M2347.5 760.525 3498.5 760.525M2347.5 735.524 3498.5 735.524M2347.5 722.524 3498.5 722.524M2347.5 709.523 3498.5 709.523M2347.5 696.523 3498.5 696.523M2347.5 671.522 3498.5 671.522M2347.5 658.522 3498.5 658.522M2347.5 645.521 3498.5 645.521M2347.5 632.521 3498.5 632.521M2347.5 607.52 3498.5 607.52M2347.5 594.52 3498.5 594.52M2347.5 581.519 3498.5 581.519M2347.5 568.519 3498.5 568.519M2347.5 543.518 3498.5 543.518M2347.5 530.518 3498.5 530.518M2347.5 517.517 3498.5 517.517M2347.5 504.517 3498.5 504.517" stroke="#F2F2F2" stroke-width="3.4375" stroke-linejoin="round" stroke-miterlimit="10" fill="none"/></g><g clip-path="url(#clip2)"><path d="M2347.5 1067.54 3498.5 1067.54M2347.5 1003.53 3498.5 1003.53M2347.5 939.531 3498.5 939.531M2347.5 875.529 3498.5 875.529M2347.5 811.527 3498.5 811.527M2347.5 747.525 3498.5 747.525M2347.5 683.523 3498.5 683.523M2347.5 619.521 3498.5 619.521M2347.5 555.518 3498.5 555.518M2347.5 491.5 3498.5 491.5" stroke="#D9D9D9" stroke-width="3.4375" stroke-linejoin="round" stroke-miterlimit="10" fill="none"/></g><g clip-path="url(#clip3)"><path d="M2409.08 674.022 2491.08 674.022 2491.08 1132 2409.08 1132ZM2697.09 695.023 2779.09 695.023 2779.09 1132 2697.09 1132ZM2985.1 735.024 3067.1 735.024 3067.1 1132 2985.1 1132ZM3272.11 747.025 3355.11 747.025 3355.11 1132 3272.11 1132Z" fill="#4472C4"/></g><g clip-path="url(#clip4)"><path d="M2491.08 551.018 2573.08 551.018 2573.08 1132 2491.08 1132ZM2779.09 560.018 2861.09 560.018 2861.09 1132 2779.09 1132ZM3067.1 573.019 3149.1 573.019 3149.1 1132 3067.1 1132ZM3355.11 581.019 3437.11 581.019 3437.11 1132 3355.11 1132Z" fill="#ED7D31"/></g><g clip-path="url(#clip5)"><path d="M2449.58 674.522 2449.58 755.5M2449.58 674.522 2449.58 592.5M2439.5 755.5 2460.5 755.5M2439.5 592.5 2460.5 592.5" stroke="#595959" stroke-width="3.4375" stroke-linejoin="round" stroke-miterlimit="10" fill="none"/></g><g clip-path="url(#clip6)"><path d="M2737.59 695.523 2737.59 783.5M2737.59 695.523 2737.59 606.5M2727.5 783.5 2748.5 783.5M2727.5 606.5 2748.5 606.5" stroke="#595959" stroke-width="3.4375" stroke-linejoin="round" stroke-miterlimit="10" fill="none"/></g><g clip-path="url(#clip7)"><path d="M3025.6 734.524 3025.6 777.5M3025.6 734.524 3025.6 691.5M3015.5 777.5 3036.5 777.5M3015.5 691.5 3036.5 691.5" stroke="#595959" stroke-width="3.4375" stroke-linejoin="round" stroke-miterlimit="10" fill="none"/></g><g clip-path="url(#clip8)"><path d="M3313.61 746.525 3313.61 788.5M3313.61 746.525 3313.61 704.5M3303.5 788.5 3324.5 788.5M3303.5 704.5 3324.5 704.5" stroke="#595959" stroke-width="3.4375" stroke-linejoin="round" stroke-miterlimit="10" fill="none"/></g><g clip-path="url(#clip9)"><path d="M2532.58 551.518 2532.58 583.5M2532.58 551.518 2532.58 518.5M2521.5 583.5 2542.5 583.5M2521.5 518.5 2542.5 518.5" stroke="#595959" stroke-width="3.4375" stroke-linejoin="round" stroke-miterlimit="10" fill="none"/></g><g clip-path="url(#clip10)"><path d="M2819.59 560.519 2819.59 594.5M2819.59 560.519 2819.59 525.5M2809.5 594.5 2830.5 594.5M2809.5 525.5 2830.5 525.5" stroke="#595959" stroke-width="3.4375" stroke-linejoin="round" stroke-miterlimit="10" fill="none"/></g><g clip-path="url(#clip11)"><path d="M3107.6 572.519 3107.6 609.5M3107.6 572.519 3107.6 535.5M3097.5 609.5 3118.5 609.5M3097.5 535.5 3118.5 535.5" stroke="#595959" stroke-width="3.4375" stroke-linejoin="round" stroke-miterlimit="10" fill="none"/></g><g clip-path="url(#clip12)"><path d="M3395.61 580.519 3395.61 627.5M3395.61 580.519 3395.61 533.5M3385.5 627.5 3406.5 627.5M3385.5 533.5 3406.5 533.5" stroke="#595959" stroke-width="3.4375" stroke-linejoin="round" stroke-miterlimit="10" fill="none"/></g><g clip-path="url(#clip13)"><path d="M2347.5 1131.5 3498.5 1131.5" stroke="#D9D9D9" stroke-width="3.4375" stroke-linejoin="round" stroke-miterlimit="10" fill="none" fill-rule="evenodd"/></g><g clip-path="url(#clip14)"><path d="M2490.5 551.5 2493.58 551.518 2496.58 551.518 2498.58 551.518 2501.58 551.518 2503.58 551.518 2506.58 551.518 2508.58 551.518 2511.58 551.518 2514.58 551.518 2516.58 551.518 2519.58 551.518 2521.58 551.518 2524.58 551.518 2527.58 551.518 2529.58 551.518 2532.58 551.518 2534.58 551.518 2537.58 551.518 2539.58 552.518 2542.58 552.518 2545.58 552.518 2547.58 552.518 2550.58 552.518 2552.58 552.518 2555.58 552.518 2557.58 552.518 2560.58 552.518 2563.58 552.518 2565.58 552.518 2568.58 552.518 2570.58 552.518 2573.58 552.518 2575.58 553.518 2578.58 553.518 2581.58 553.518 2583.58 553.518 2586.58 553.518 2588.59 553.518 2591.59 553.518 2594.59 553.518 2596.59 553.518 2599.59 553.518 2601.59 553.518 2604.59 553.518 2606.59 553.518 2609.59 553.518 2612.59 554.518 2614.59 554.518 2617.59 554.518 2619.59 554.518 2622.59 554.518 2624.59 554.518 2627.59 554.518 2630.59 554.518 2632.59 554.518 2635.59 554.518 2637.59 554.518 2640.59 555.518 2643.59 555.518 2645.59 555.518 2648.59 555.518 2650.59 555.518 2653.59 555.518 2655.59 555.518 2658.59 555.518 2661.59 555.518 2663.59 555.518 2666.59 555.518 2668.59 555.518 2671.59 556.518 2673.59 556.518 2676.59 556.518 2679.59 556.518 2681.59 556.518 2684.59 556.518 2686.59 556.518 2689.59 556.518 2692.59 556.518 2694.59 556.518 2697.59 557.518 2699.59 557.518 2702.59 557.518 2704.59 557.518 2707.59 557.518 2710.59 557.518 2712.59 557.518 2715.59 557.518 2717.59 557.518 2720.59 557.518 2722.59 558.518 2725.59 558.518 2728.59 558.518 2730.59 558.518 2733.59 558.518 2735.59 558.518 2738.59 558.518 2741.59 558.518 2743.59 558.518 2746.59 558.518 2748.59 559.519 2751.59 559.519 2753.59 559.519 2756.59 559.519 2759.59 559.519 2761.59 559.519 2764.59 559.519 2766.59 559.519 2769.59 559.519 2771.59 560.519 2774.59 560.519 2777.59 560.519 2779.59 560.519 2782.59 560.519 2784.59 560.519 2787.59 560.519 2790.59 560.519 2792.59 560.519 2795.59 560.519 2797.59 561.519 2800.59 561.519 2802.59 561.519 2805.59 561.519 2808.59 561.519 2810.59 561.519 2813.59 561.519 2815.59 561.519 2818.59 561.519 2820.59 562.519 2823.59 562.519 2826.59 562.519 2828.59 562.519 2831.59 562.519 2833.59 562.519 2836.59 562.519 2839.59 562.519 2841.59 562.519 2844.59 563.519 2846.59 563.519 2849.59 563.519 2851.59 563.519 2854.59 563.519 2857.59 563.519 2859.59 563.519 2862.59 563.519 2864.59 564.519 2867.59 564.519 2869.59 564.519 2872.59 564.519 2875.59 564.519 2877.59 564.519 2880.59 564.519 2882.59 564.519 2885.59 564.519 2888.59 565.519 2890.59 565.519 2893.6 565.519 2895.6 565.519 2898.6 565.519 2900.6 565.519 2903.6 565.519 2906.6 565.519 2908.6 565.519 2911.6 566.519 2913.6 566.519 2916.6 566.519 2918.6 566.519 2921.6 566.519 2924.6 566.519 2926.6 566.519 2929.6 566.519 2931.6 566.519 2934.6 567.519 2936.6 567.519 2939.6 567.519 2942.6 567.519 2944.6 567.519 2947.6 567.519 2949.6 567.519 2952.6 567.519 2955.6 567.519 2957.6 568.519 2960.6 568.519 2962.6 568.519 2965.6 568.519 2967.6 568.519 2970.6 568.519 2973.6 568.519 2975.6 568.519 2978.6 568.519 2980.6 569.519 2983.6 569.519 2985.6 569.519 2988.6 569.519 2991.6 569.519 2993.6 569.519 2996.6 569.519 2998.6 569.519 3001.6 569.519 3004.6 570.519 3006.6 570.519 3009.6 570.519 3011.6 570.519 3014.6 570.519 3016.6 570.519 3019.6 570.519 3022.6 570.519 3024.6 570.519 3027.6 571.519 3029.6 571.519 3032.6 571.519 3034.6 571.519 3037.6 571.519 3040.6 571.519 3042.6 571.519 3045.6 571.519 3047.6 571.519 3050.6 571.519 3053.6 572.519 3055.6 572.519 3058.6 572.519 3060.6 572.519 3063.6 572.519 3065.6 572.519 3068.6 572.519 3071.6 572.519 3073.6 572.519 3076.6 573.519 3078.6 573.519 3081.6 573.519 3083.6 573.519 3086.6 573.519 3089.6 573.519 3091.6 573.519 3094.6 573.519 3096.6 573.519 3099.6 573.519 3102.6 574.519 3104.6 574.519 3107.6 574.519 3109.6 574.519 3112.6 574.519 3114.6 574.519 3117.6 574.519 3120.6 574.519 3122.6 574.519 3125.6 574.519 3127.6 574.519 3130.6 575.519 3132.6 575.519 3135.6 575.519 3138.6 575.519 3140.6 575.519 3143.6 575.519 3145.6 575.519 3148.6 575.519 3151.6 575.519 3153.6 575.519 3156.6 575.519 3158.6 576.519 3161.6 576.519 3163.6 576.519 3166.6 576.519 3169.6 576.519 3171.6 576.519 3174.6 576.519 3176.6 576.519 3179.6 576.519 3181.6 576.519 3184.6 576.519 3187.6 576.519 3189.6 577.519 3192.6 577.519 3194.6 577.519 3197.6 577.519 3200.61 577.519 3202.61 577.519 3205.61 577.519 3207.61 577.519 3210.61 577.519 3212.61 577.519 3215.61 577.519 3218.61 577.519 3220.61 577.519 3223.61 577.519 3225.61 578.519 3228.61 578.519 3230.61 578.519 3233.61 578.519 3236.61 578.519 3238.61 578.519 3241.61 578.519 3243.61 578.519 3246.61 578.519 3249.61 578.519 3251.61 578.519 3254.61 578.519 3256.61 578.519 3259.61 578.519 3261.61 578.519 3264.61 579.519 3267.61 579.519 3269.61 579.519 3272.61 579.519 3274.61 579.519 3277.61 579.519 3279.61 579.519 3282.61 579.519 3285.61 579.519 3287.61 579.519 3290.61 579.519 3292.61 579.519 3295.61 579.519 3297.61 579.519 3300.61 579.519 3303.61 579.519 3305.61 579.519 3308.61 579.519 3310.61 579.519 3313.61 580.519 3316.61 580.519 3318.61 580.519 3321.61 580.519 3323.61 580.519 3326.61 580.519 3328.61 580.519 3331.61 580.519 3334.61 580.519 3336.61 580.519 3339.61 580.519 3341.61 580.519 3344.61 580.519 3346.61 580.519 3349.61 580.519 3352.61 580.519 3354.5 580.5" stroke="#ED7D31" stroke-width="6.875" stroke-linecap="round" stroke-linejoin="round" stroke-miterlimit="10" stroke-dasharray="0 13.75" fill="none"/></g><g clip-path="url(#clip15)"><text fill="#595959" font-family="Arial,Arial_MSFontService,sans-serif" font-weight="400" font-size="41" transform="matrix(1 0 0 1 2254.2 1145)">0.4</text></g><g clip-path="url(#clip16)"><text fill="#595959" font-family="Arial,Arial_MSFontService,sans-serif" font-weight="400" font-size="41" transform="matrix(1 0 0 1 2231.26 1081)">0.45</text></g><g clip-path="url(#clip17)"><text fill="#595959" font-family="Arial,Arial_MSFontService,sans-serif" font-weight="400" font-size="41" transform="matrix(1 0 0 1 2254.2 1017)">0.5</text></g><g clip-path="url(#clip18)"><text fill="#595959" font-family="Arial,Arial_MSFontService,sans-serif" font-weight="400" font-size="41" transform="matrix(1 0 0 1 2231.26 953)">0.55</text></g><g clip-path="url(#clip19)"><text fill="#595959" font-family="Arial,Arial_MSFontService,sans-serif" font-weight="400" font-size="41" transform="matrix(1 0 0 1 2254.2 889)">0.6</text></g><g clip-path="url(#clip20)"><text fill="#595959" font-family="Arial,Arial_MSFontService,sans-serif" font-weight="400" font-size="41" transform="matrix(1 0 0 1 2231.26 825)">0.65</text></g><g clip-path="url(#clip21)"><text fill="#595959" font-family="Arial,Arial_MSFontService,sans-serif" font-weight="400" font-size="41" transform="matrix(1 0 0 1 2254.2 761)">0.7</text></g><g clip-path="url(#clip22)"><text fill="#595959" font-family="Arial,Arial_MSFontService,sans-serif" font-weight="400" font-size="41" transform="matrix(1 0 0 1 2231.26 697)">0.75</text></g><g clip-path="url(#clip23)"><text fill="#595959" font-family="Arial,Arial_MSFontService,sans-serif" font-weight="400" font-size="41" transform="matrix(1 0 0 1 2254.2 633)">0.8</text></g><g clip-path="url(#clip24)"><text fill="#595959" font-family="Arial,Arial_MSFontService,sans-serif" font-weight="400" font-size="41" transform="matrix(1 0 0 1 2231.26 569)">0.85</text></g><g clip-path="url(#clip25)"><text fill="#595959" font-family="Arial,Arial_MSFontService,sans-serif" font-weight="400" font-size="41" transform="matrix(1 0 0 1 2254.2 505)">0.9</text></g><g clip-path="url(#clip26)"><text fill="#595959" font-family="Arial,Arial_MSFontService,sans-serif" font-weight="400" font-size="41" transform="matrix(1 0 0 1 2468.05 1194)">10</text></g><g clip-path="url(#clip27)"><text fill="#595959" font-family="Arial,Arial_MSFontService,sans-serif" font-weight="400" font-size="41" transform="matrix(1 0 0 1 2756 1194)">15</text></g><g clip-path="url(#clip28)"><text fill="#595959" font-family="Arial,Arial_MSFontService,sans-serif" font-weight="400" font-size="41" transform="matrix(1 0 0 1 3043.95 1194)">25</text></g><g clip-path="url(#clip29)"><text fill="#595959" font-family="Arial,Arial_MSFontService,sans-serif" font-weight="400" font-size="41" transform="matrix(1 0 0 1 3331.9 1194)">50</text></g><g clip-path="url(#clip30)"><text fill="#595959" font-family="Arial,Arial_MSFontService,sans-serif" font-weight="400" font-size="46" transform="matrix(6.12323e-17 -1 1 6.12323e-17 2207.79 1032)">Pearson's Correlation</text></g><g clip-path="url(#clip31)"><text fill="#595959" font-family="Arial,Arial_MSFontService,sans-serif" font-weight="400" font-size="46" transform="matrix(1 0 0 1 2622.34 1260)">Kernal lengthscale upper limit</text></g><g clip-path="url(#clip32)"><text fill="#595959" font-family="Arial,Arial_MSFontService,sans-serif" font-weight="400" font-size="64" transform="matrix(1 0 0 1 2772.74 421)">Train Scores</text></g><g clip-path="url(#clip33)"><rect x="3570" y="837" width="21.0002" height="20.9999" fill="#4472C4"/></g><g clip-path="url(#clip34)"><text fill="#595959" font-family="Arial,Arial_MSFontService,sans-serif" font-weight="400" font-size="41" transform="matrix(1 0 0 1 3599.28 860)">Model H</text></g><g clip-path="url(#clip35)"><rect x="3570" y="910" width="21.0002" height="20.9999" fill="#ED7D31"/></g><g clip-path="url(#clip36)"><text fill="#595959" font-family="Arial,Arial_MSFontService,sans-serif" font-weight="400" font-size="41" transform="matrix(1 0 0 1 3599.28 933)">Model A</text></g><rect x="3790" y="326" width="1646" height="1001" fill="#FFFFFF"/><g clip-path="url(#clip37)"><path d="M4029.5 1119.54 5135.5 1119.54M4029.5 1106.54 5135.5 1106.54M4029.5 1093.54 5135.5 1093.54M4029.5 1081.54 5135.5 1081.54M4029.5 1055.53 5135.5 1055.53M4029.5 1042.53 5135.5 1042.53M4029.5 1029.53 5135.5 1029.53M4029.5 1016.53 5135.5 1016.53M4029.5 991.533 5135.5 991.533M4029.5 978.532 5135.5 978.532M4029.5 965.532 5135.5 965.532M4029.5 952.531 5135.5 952.531M4029.5 927.531 5135.5 927.531M4029.5 914.53 5135.5 914.53M4029.5 901.53 5135.5 901.53M4029.5 888.529 5135.5 888.529M4029.5 863.529 5135.5 863.529M4029.5 850.528 5135.5 850.528M4029.5 837.528 5135.5 837.528M4029.5 824.527 5135.5 824.527M4029.5 798.526 5135.5 798.526M4029.5 786.526 5135.5 786.526M4029.5 773.526 5135.5 773.526M4029.5 760.525 5135.5 760.525M4029.5 734.524 5135.5 734.524M4029.5 722.524 5135.5 722.524M4029.5 709.523 5135.5 709.523M4029.5 696.523 5135.5 696.523M4029.5 670.522 5135.5 670.522M4029.5 657.522 5135.5 657.522M4029.5 645.521 5135.5 645.521M4029.5 632.521 5135.5 632.521M4029.5 606.52 5135.5 606.52M4029.5 593.52 5135.5 593.52M4029.5 581.519 5135.5 581.519M4029.5 568.519 5135.5 568.519M4029.5 542.518 5135.5 542.518M4029.5 529.518 5135.5 529.518M4029.5 516.517 5135.5 516.517M4029.5 504.517 5135.5 504.517" stroke="#F2F2F2" stroke-width="3.4375" stroke-linejoin="round" stroke-miterlimit="10" fill="none"/></g><g clip-path="url(#clip38)"><path d="M4029.5 1068.54 5135.5 1068.54M4029.5 1004.53 5135.5 1004.53M4029.5 939.531 5135.5 939.531M4029.5 875.529 5135.5 875.529M4029.5 811.527 5135.5 811.527M4029.5 747.525 5135.5 747.525M4029.5 683.523 5135.5 683.523M4029.5 619.521 5135.5 619.521M4029.5 555.518 5135.5 555.518M4029.5 491.5 5135.5 491.5" stroke="#D9D9D9" stroke-width="3.4375" stroke-linejoin="round" stroke-miterlimit="10" fill="none"/></g><g clip-path="url(#clip39)"><path d="M4089.13 804.026 4168.14 804.026 4168.14 1132 4089.13 1132ZM4366.14 810.027 4445.15 810.027 4445.15 1132 4366.14 1132ZM4642.15 793.026 4721.16 793.026 4721.16 1132 4642.15 1132ZM4918.16 778.026 4997.16 778.026 4997.16 1132 4918.16 1132Z" fill="#4472C4"/></g><g clip-path="url(#clip40)"><path d="M4168.14 590.019 4247.14 590.019 4247.14 1132 4168.14 1132ZM4445.15 597.02 4524.15 597.02 4524.15 1132 4445.15 1132ZM4721.16 608.02 4800.16 608.02 4800.16 1132 4721.16 1132ZM4997.16 635.021 5076.17 635.021 5076.17 1132 4997.16 1132Z" fill="#ED7D31"/></g><g clip-path="url(#clip41)"><path d="M4128.64 803.527 4128.64 907.5M4128.64 803.527 4128.64 699.5M4118.5 907.5 4139.5 907.5M4118.5 699.5 4139.5 699.5" stroke="#595959" stroke-width="3.4375" stroke-linejoin="round" stroke-miterlimit="10" fill="none"/></g><g clip-path="url(#clip42)"><path d="M4405.64 810.527 4405.64 908.5M4405.64 810.527 4405.64 711.5M4394.5 908.5 4415.5 908.5M4394.5 711.5 4415.5 711.5" stroke="#595959" stroke-width="3.4375" stroke-linejoin="round" stroke-miterlimit="10" fill="none"/></g><g clip-path="url(#clip43)"><path d="M4681.65 792.526 4681.65 896.5M4681.65 792.526 4681.65 688.5M4671.5 896.5 4691.5 896.5M4671.5 688.5 4691.5 688.5" stroke="#595959" stroke-width="3.4375" stroke-linejoin="round" stroke-miterlimit="10" fill="none"/></g><g clip-path="url(#clip44)"><path d="M4957.66 777.526 4957.66 908.5M4957.66 777.526 4957.66 647.5M4947.5 908.5 4968.5 908.5M4947.5 647.5 4968.5 647.5" stroke="#595959" stroke-width="3.4375" stroke-linejoin="round" stroke-miterlimit="10" fill="none"/></g><g clip-path="url(#clip45)"><path d="M4207.64 590.52 4207.64 648.5M4207.64 590.52 4207.64 531.5M4197.5 648.5 4218.5 648.5M4197.5 531.5 4218.5 531.5" stroke="#595959" stroke-width="3.4375" stroke-linejoin="round" stroke-miterlimit="10" fill="none"/></g><g clip-path="url(#clip46)"><path d="M4484.65 596.52 4484.65 654.5M4484.65 596.52 4484.65 539.5M4473.5 654.5 4494.5 654.5M4473.5 539.5 4494.5 539.5" stroke="#595959" stroke-width="3.4375" stroke-linejoin="round" stroke-miterlimit="10" fill="none"/></g><g clip-path="url(#clip47)"><path d="M4760.66 607.52 4760.66 654.5M4760.66 607.52 4760.66 561.5M4750.5 654.5 4770.5 654.5M4750.5 561.5 4770.5 561.5" stroke="#595959" stroke-width="3.4375" stroke-linejoin="round" stroke-miterlimit="10" fill="none"/></g><g clip-path="url(#clip48)"><path d="M5036.67 634.521 5036.67 665.5M5036.67 634.521 5036.67 604.5M5026.5 665.5 5047.5 665.5M5026.5 604.5 5047.5 604.5" stroke="#595959" stroke-width="3.4375" stroke-linejoin="round" stroke-miterlimit="10" fill="none"/></g><g clip-path="url(#clip49)"><path d="M4029.5 1132.5 5135.5 1132.5" stroke="#D9D9D9" stroke-width="3.4375" stroke-linejoin="round" stroke-miterlimit="10" fill="none" fill-rule="evenodd"/></g><g clip-path="url(#clip50)"><path d="M4168.5 590.5 4170.64 590.52 4173.64 590.52 4175.64 590.52 4178.64 590.52 4180.64 590.52 4183.64 590.52 4186.64 590.52 4188.64 590.52 4191.64 590.52 4193.64 590.52 4196.64 590.52 4199.64 590.52 4201.64 591.52 4204.64 591.52 4206.64 591.52 4209.64 591.52 4211.64 591.52 4214.64 591.52 4217.64 591.52 4219.64 591.52 4222.64 591.52 4224.64 591.52 4227.64 591.52 4230.64 591.52 4232.64 591.52 4235.64 591.52 4237.64 591.52 4240.64 592.52 4243.64 592.52 4245.64 592.52 4248.64 592.52 4250.64 592.52 4253.64 592.52 4255.64 592.52 4258.64 592.52 4261.64 592.52 4263.64 592.52 4266.64 592.52 4268.64 592.52 4271.64 592.52 4274.64 592.52 4276.64 592.52 4279.64 593.52 4281.64 593.52 4284.64 593.52 4286.64 593.52 4289.64 593.52 4292.64 593.52 4294.64 593.52 4297.64 593.52 4299.64 593.52 4302.64 593.52 4305.64 593.52 4307.64 593.52 4310.64 593.52 4312.64 593.52 4315.64 593.52 4317.64 593.52 4320.64 593.52 4323.64 594.52 4325.64 594.52 4328.64 594.52 4330.64 594.52 4333.64 594.52 4336.64 594.52 4338.64 594.52 4341.64 594.52 4343.64 594.52 4346.64 594.52 4348.64 594.52 4351.64 594.52 4354.64 594.52 4356.64 594.52 4359.64 594.52 4361.64 594.52 4364.64 594.52 4367.64 595.52 4369.64 595.52 4372.64 595.52 4374.64 595.52 4377.64 595.52 4379.64 595.52 4382.64 595.52 4385.64 595.52 4387.64 595.52 4390.64 595.52 4392.64 595.52 4395.64 595.52 4398.64 595.52 4400.64 595.52 4403.64 595.52 4405.64 595.52 4408.64 595.52 4410.64 596.52 4413.65 596.52 4416.65 596.52 4418.65 596.52 4421.65 596.52 4423.65 596.52 4426.65 596.52 4429.65 596.52 4431.65 596.52 4434.65 596.52 4436.65 596.52 4439.65 596.52 4441.65 596.52 4444.65 596.52 4447.65 596.52 4449.65 596.52 4452.65 597.52 4454.65 597.52 4457.65 597.52 4460.65 597.52 4462.65 597.52 4465.65 597.52 4467.65 597.52 4470.65 597.52 4472.65 597.52 4475.65 597.52 4478.65 597.52 4480.65 597.52 4483.65 597.52 4485.65 597.52 4488.65 598.52 4491.65 598.52 4493.65 598.52 4496.65 598.52 4498.65 598.52 4501.65 598.52 4503.65 598.52 4506.65 598.52 4509.65 598.52 4511.65 598.52 4514.65 598.52 4516.65 598.52 4519.65 598.52 4522.65 599.52 4524.65 599.52 4527.65 599.52 4529.65 599.52 4532.65 599.52 4534.65 599.52 4537.65 599.52 4540.65 599.52 4542.65 599.52 4545.65 599.52 4547.65 599.52 4550.65 599.52 4553.65 600.52 4555.65 600.52 4558.65 600.52 4560.65 600.52 4563.65 600.52 4565.65 600.52 4568.65 600.52 4571.65 600.52 4573.65 600.52 4576.65 600.52 4578.65 600.52 4581.65 601.52 4584.65 601.52 4586.65 601.52 4589.65 601.52 4591.65 601.52 4594.65 601.52 4596.65 601.52 4599.65 601.52 4602.65 601.52 4604.65 601.52 4607.65 602.52 4609.65 602.52 4612.65 602.52 4615.65 602.52 4617.65 602.52 4620.65 602.52 4622.65 602.52 4625.65 602.52 4627.65 602.52 4630.65 603.52 4633.65 603.52 4635.65 603.52 4638.65 603.52 4640.65 603.52 4643.65 603.52 4646.65 603.52 4648.65 603.52 4651.65 604.52 4653.65 604.52 4656.65 604.52 4658.65 604.52 4661.65 604.52 4664.65 604.52 4666.65 604.52 4669.65 604.52 4671.65 605.52 4674.65 605.52 4677.65 605.52 4679.65 605.52 4682.65 605.52 4684.65 605.52 4687.65 605.52 4689.65 606.52 4692.65 606.52 4695.65 606.52 4697.65 606.52 4700.65 606.52 4702.65 606.52 4705.65 606.52 4708.65 607.52 4710.65 607.52 4713.65 607.52 4715.65 607.52 4718.65 607.52 4720.65 607.52 4723.65 608.52 4726.66 608.52 4728.66 608.52 4731.66 608.52 4733.66 608.52 4736.66 608.52 4739.66 609.52 4741.66 609.52 4744.66 609.52 4746.66 609.52 4749.66 609.52 4751.66 609.52 4754.66 610.52 4757.66 610.52 4759.66 610.52 4762.66 610.52 4764.66 610.52 4767.66 611.52 4770.66 611.52 4772.66 611.52 4775.66 611.52 4777.66 611.52 4780.66 611.52 4782.66 612.52 4785.66 612.52 4788.66 612.52 4790.66 612.52 4793.66 612.52 4795.66 613.52 4798.66 613.52 4801.66 613.52 4803.66 613.52 4806.66 614.52 4808.66 614.52 4811.66 614.52 4813.66 614.52 4816.66 614.52 4819.66 615.52 4821.66 615.52 4824.66 615.52 4826.66 615.52 4829.66 615.52 4832.66 616.52 4834.66 616.52 4837.66 616.52 4839.66 616.52 4842.66 617.52 4845.66 617.52 4847.66 617.52 4850.66 617.52 4852.66 618.52 4855.66 618.52 4857.66 618.52 4860.66 618.52 4863.66 619.521 4865.66 619.521 4868.66 619.521 4870.66 619.521 4873.66 620.521 4876.66 620.521 4878.66 620.521 4881.66 620.521 4883.66 621.521 4886.66 621.521 4888.66 621.521 4891.66 621.521 4894.66 622.521 4896.66 622.521 4899.66 622.521 4901.66 623.521 4904.66 623.521 4907.66 623.521 4909.66 623.521 4912.66 624.521 4914.66 624.521 4917.66 624.521 4919.66 625.521 4922.66 625.521 4925.66 625.521 4927.66 625.521 4930.66 626.521 4932.66 626.521 4935.66 626.521 4938.66 627.521 4940.66 627.521 4943.66 627.521 4945.66 628.521 4948.66 628.521 4950.66 628.521 4953.66 629.521 4956.66 629.521 4958.66 629.521 4961.66 630.521 4963.66 630.521 4966.66 630.521 4969.66 631.521 4971.66 631.521 4974.66 631.521 4976.66 632.521 4979.66 632.521 4981.66 632.521 4984.66 633.521 4987.66 633.521 4989.66 633.521 4992.66 634.521 4994.66 634.521 4997.5 634.5" stroke="#ED7D31" stroke-width="6.875" stroke-linecap="round" stroke-linejoin="round" stroke-miterlimit="10" stroke-dasharray="0 13.75" fill="none"/></g><g clip-path="url(#clip51)"><text fill="#595959" font-family="Arial,Arial_MSFontService,sans-serif" font-weight="400" font-size="41" transform="matrix(1 0 0 1 3937.17 1145)">0.4</text></g><g clip-path="url(#clip52)"><text fill="#595959" font-family="Arial,Arial_MSFontService,sans-serif" font-weight="400" font-size="41" transform="matrix(1 0 0 1 3914.23 1081)">0.45</text></g><g clip-path="url(#clip53)"><text fill="#595959" font-family="Arial,Arial_MSFontService,sans-serif" font-weight="400" font-size="41" transform="matrix(1 0 0 1 3937.17 1017)">0.5</text></g><g clip-path="url(#clip54)"><text fill="#595959" font-family="Arial,Arial_MSFontService,sans-serif" font-weight="400" font-size="41" transform="matrix(1 0 0 1 3914.23 953)">0.55</text></g><g clip-path="url(#clip55)"><text fill="#595959" font-family="Arial,Arial_MSFontService,sans-serif" font-weight="400" font-size="41" transform="matrix(1 0 0 1 3937.17 889)">0.6</text></g><g clip-path="url(#clip56)"><text fill="#595959" font-family="Arial,Arial_MSFontService,sans-serif" font-weight="400" font-size="41" transform="matrix(1 0 0 1 3914.23 825)">0.65</text></g><g clip-path="url(#clip57)"><text fill="#595959" font-family="Arial,Arial_MSFontService,sans-serif" font-weight="400" font-size="41" transform="matrix(1 0 0 1 3937.17 760)">0.7</text></g><g clip-path="url(#clip58)"><text fill="#595959" font-family="Arial,Arial_MSFontService,sans-serif" font-weight="400" font-size="41" transform="matrix(1 0 0 1 3914.23 696)">0.75</text></g><g clip-path="url(#clip59)"><text fill="#595959" font-family="Arial,Arial_MSFontService,sans-serif" font-weight="400" font-size="41" transform="matrix(1 0 0 1 3937.17 632)">0.8</text></g><g clip-path="url(#clip60)"><text fill="#595959" font-family="Arial,Arial_MSFontService,sans-serif" font-weight="400" font-size="41" transform="matrix(1 0 0 1 3914.23 568)">0.85</text></g><g clip-path="url(#clip61)"><text fill="#595959" font-family="Arial,Arial_MSFontService,sans-serif" font-weight="400" font-size="41" transform="matrix(1 0 0 1 3937.17 504)">0.9</text></g><g clip-path="url(#clip62)"><text fill="#595959" font-family="Arial,Arial_MSFontService,sans-serif" font-weight="400" font-size="41" transform="matrix(1 0 0 1 4145.27 1194)">10</text></g><g clip-path="url(#clip63)"><text fill="#595959" font-family="Arial,Arial_MSFontService,sans-serif" font-weight="400" font-size="41" transform="matrix(1 0 0 1 4421.74 1194)">15</text></g><g clip-path="url(#clip64)"><text fill="#595959" font-family="Arial,Arial_MSFontService,sans-serif" font-weight="400" font-size="41" transform="matrix(1 0 0 1 4698.2 1194)">25</text></g><g clip-path="url(#clip65)"><text fill="#595959" font-family="Arial,Arial_MSFontService,sans-serif" font-weight="400" font-size="41" transform="matrix(1 0 0 1 4974.66 1194)">50</text></g><g clip-path="url(#clip66)"><text fill="#595959" font-family="Arial,Arial_MSFontService,sans-serif" font-weight="400" font-size="46" transform="matrix(6.12323e-17 -1 1 6.12323e-17 3890.76 1031)">Pearson's Correlation</text></g><g clip-path="url(#clip67)"><text fill="#595959" font-family="Arial,Arial_MSFontService,sans-serif" font-weight="400" font-size="46" transform="matrix(1 0 0 1 4282.33 1260)">Kernal lengthscale upper limit</text></g><g clip-path="url(#clip68)"><text fill="#595959" font-family="Arial,Arial_MSFontService,sans-serif" font-weight="400" font-size="64" transform="matrix(1 0 0 1 4445.79 420)">Test Scores</text></g><g clip-path="url(#clip69)"><rect x="5207" y="837" width="21" height="20.9999" fill="#4472C4"/></g><g clip-path="url(#clip70)"><text fill="#595959" font-family="Arial,Arial_MSFontService,sans-serif" font-weight="400" font-size="41" transform="matrix(1 0 0 1 5236.3 860)">Model H</text></g><g clip-path="url(#clip71)"><rect x="5207" y="910" width="21" height="20.9999" fill="#ED7D31"/></g><g clip-path="url(#clip72)"><text fill="#595959" font-family="Arial,Arial_MSFontService,sans-serif" font-weight="400" font-size="41" transform="matrix(1 0 0 1 5236.3 933)">Model A</text></g></g></svg>