<?xml version="1.0" encoding="UTF-8" standalone="no"?>
<!-- Created with Inkscape (http://www.inkscape.org/) -->

<svg
   width="880.53333mm"
   height="264.84793mm"
   viewBox="0 0 880.53333 264.84793"
   version="1.1"
   id="svg5"
   xml:space="preserve"
   xmlns:inkscape="http://www.inkscape.org/namespaces/inkscape"
   xmlns:sodipodi="http://sodipodi.sourceforge.net/DTD/sodipodi-0.dtd"
   xmlns="http://www.w3.org/2000/svg"
   xmlns:svg="http://www.w3.org/2000/svg"><sodipodi:namedview
     id="namedview7"
     pagecolor="#ffffff"
     bordercolor="#000000"
     borderopacity="0.25"
     inkscape:showpageshadow="2"
     inkscape:pageopacity="0.0"
     inkscape:pagecheckerboard="0"
     inkscape:deskcolor="#d1d1d1"
     inkscape:document-units="mm"
     showgrid="false" /><defs
     id="defs2"><style
       type="text/css"
       id="style11">*{stroke-linejoin: round; stroke-linecap: butt}</style><style
       type="text/css"
       id="style1719">*{stroke-linejoin: round; stroke-linecap: butt}</style><clipPath
       id="clip0-80"><rect
         x="2108"
         y="326"
         width="3328"
         height="1001"
         id="rect34197" /></clipPath><clipPath
       id="clip1-4"><rect
         x="2107"
         y="326"
         width="1692"
         height="1000"
         id="rect34200" /></clipPath><clipPath
       id="clip2-4"><rect
         x="2107"
         y="326"
         width="1692"
         height="1000"
         id="rect34203" /></clipPath><clipPath
       id="clip3-52"><rect
         x="2347"
         y="491"
         width="1155"
         height="644"
         id="rect34206" /></clipPath><clipPath
       id="clip4-1"><rect
         x="2347"
         y="491"
         width="1155"
         height="644"
         id="rect34209" /></clipPath><clipPath
       id="clip5-2"><rect
         x="2347"
         y="491"
         width="1155"
         height="640"
         id="rect34212" /></clipPath><clipPath
       id="clip6-19"><rect
         x="2347"
         y="491"
         width="1155"
         height="640"
         id="rect34215" /></clipPath><clipPath
       id="clip7-20"><rect
         x="2347"
         y="491"
         width="1155"
         height="640"
         id="rect34218" /></clipPath><clipPath
       id="clip8-8"><rect
         x="2347"
         y="491"
         width="1155"
         height="640"
         id="rect34221" /></clipPath><clipPath
       id="clip9-9"><rect
         x="2347"
         y="491"
         width="1155"
         height="640"
         id="rect34224" /></clipPath><clipPath
       id="clip10-7"><rect
         x="2347"
         y="491"
         width="1155"
         height="640"
         id="rect34227" /></clipPath><clipPath
       id="clip11-14"><rect
         x="2347"
         y="491"
         width="1155"
         height="640"
         id="rect34230" /></clipPath><clipPath
       id="clip12-8"><rect
         x="2347"
         y="491"
         width="1155"
         height="640"
         id="rect34233" /></clipPath><clipPath
       id="clip13-7"><rect
         x="2107"
         y="326"
         width="1692"
         height="1000"
         id="rect34236" /></clipPath><clipPath
       id="clip14-81"><rect
         x="2347"
         y="491"
         width="1151"
         height="640"
         id="rect34239" /></clipPath><clipPath
       id="clip15-8"><rect
         x="2107"
         y="326"
         width="1692"
         height="1000"
         id="rect34242" /></clipPath><clipPath
       id="clip16-5"><rect
         x="2107"
         y="326"
         width="1692"
         height="1000"
         id="rect34245" /></clipPath><clipPath
       id="clip17-8"><rect
         x="2107"
         y="326"
         width="1692"
         height="1000"
         id="rect34248" /></clipPath><clipPath
       id="clip18-0"><rect
         x="2107"
         y="326"
         width="1692"
         height="1000"
         id="rect34251" /></clipPath><clipPath
       id="clip19-1"><rect
         x="2107"
         y="326"
         width="1692"
         height="1000"
         id="rect34254" /></clipPath><clipPath
       id="clip20-7"><rect
         x="2107"
         y="326"
         width="1692"
         height="1000"
         id="rect34257" /></clipPath><clipPath
       id="clip21-8"><rect
         x="2107"
         y="326"
         width="1692"
         height="1000"
         id="rect34260" /></clipPath><clipPath
       id="clip22-5"><rect
         x="2107"
         y="326"
         width="1692"
         height="1000"
         id="rect34263" /></clipPath><clipPath
       id="clip23-6"><rect
         x="2107"
         y="326"
         width="1692"
         height="1000"
         id="rect34266" /></clipPath><clipPath
       id="clip24-1"><rect
         x="2107"
         y="326"
         width="1692"
         height="1000"
         id="rect34269" /></clipPath><clipPath
       id="clip25-6"><rect
         x="2107"
         y="326"
         width="1692"
         height="1000"
         id="rect34272" /></clipPath><clipPath
       id="clip26-6"><rect
         x="2107"
         y="326"
         width="1692"
         height="1000"
         id="rect34275" /></clipPath><clipPath
       id="clip27-8"><rect
         x="2107"
         y="326"
         width="1692"
         height="1000"
         id="rect34278" /></clipPath><clipPath
       id="clip28-5"><rect
         x="2107"
         y="326"
         width="1692"
         height="1000"
         id="rect34281" /></clipPath><clipPath
       id="clip29-0"><rect
         x="2107"
         y="326"
         width="1692"
         height="1000"
         id="rect34284" /></clipPath><clipPath
       id="clip30-01"><rect
         x="2107"
         y="326"
         width="1692"
         height="1000"
         id="rect34287" /></clipPath><clipPath
       id="clip31-8"><rect
         x="2107"
         y="326"
         width="1692"
         height="1000"
         id="rect34290" /></clipPath><clipPath
       id="clip32-4"><rect
         x="2107"
         y="326"
         width="1692"
         height="1000"
         id="rect34293" /></clipPath><clipPath
       id="clip33-4"><rect
         x="2107"
         y="326"
         width="1692"
         height="1000"
         id="rect34296" /></clipPath><clipPath
       id="clip34-2"><rect
         x="2107"
         y="326"
         width="1692"
         height="1000"
         id="rect34299" /></clipPath><clipPath
       id="clip35-9"><rect
         x="2107"
         y="326"
         width="1692"
         height="1000"
         id="rect34302" /></clipPath><clipPath
       id="clip36-3"><rect
         x="2107"
         y="326"
         width="1692"
         height="1000"
         id="rect34305" /></clipPath><clipPath
       id="clip37-3"><rect
         x="3790"
         y="325"
         width="1646"
         height="1002"
         id="rect34308" /></clipPath><clipPath
       id="clip38-2"><rect
         x="3790"
         y="325"
         width="1646"
         height="1002"
         id="rect34311" /></clipPath><clipPath
       id="clip39-3"><rect
         x="4029"
         y="491"
         width="1110"
         height="644"
         id="rect34314" /></clipPath><clipPath
       id="clip40-89"><rect
         x="4029"
         y="491"
         width="1110"
         height="644"
         id="rect34317" /></clipPath><clipPath
       id="clip41-2"><rect
         x="4029"
         y="491"
         width="1110"
         height="641"
         id="rect34320" /></clipPath><clipPath
       id="clip42-9"><rect
         x="4029"
         y="491"
         width="1110"
         height="641"
         id="rect34323" /></clipPath><clipPath
       id="clip43-9"><rect
         x="4029"
         y="491"
         width="1110"
         height="641"
         id="rect34326" /></clipPath><clipPath
       id="clip44-1"><rect
         x="4029"
         y="491"
         width="1110"
         height="641"
         id="rect34329" /></clipPath><clipPath
       id="clip45-7"><rect
         x="4029"
         y="491"
         width="1110"
         height="641"
         id="rect34332" /></clipPath><clipPath
       id="clip46-1"><rect
         x="4029"
         y="491"
         width="1110"
         height="641"
         id="rect34335" /></clipPath><clipPath
       id="clip47-6"><rect
         x="4029"
         y="491"
         width="1110"
         height="641"
         id="rect34338" /></clipPath><clipPath
       id="clip48-9"><rect
         x="4029"
         y="491"
         width="1110"
         height="641"
         id="rect34341" /></clipPath><clipPath
       id="clip49-6"><rect
         x="3790"
         y="325"
         width="1646"
         height="1002"
         id="rect34344" /></clipPath><clipPath
       id="clip50-82"><rect
         x="4029"
         y="491"
         width="1106"
         height="641"
         id="rect34347" /></clipPath><clipPath
       id="clip51-6"><rect
         x="3790"
         y="325"
         width="1646"
         height="1002"
         id="rect34350" /></clipPath><clipPath
       id="clip52-3"><rect
         x="3790"
         y="325"
         width="1646"
         height="1002"
         id="rect34353" /></clipPath><clipPath
       id="clip53-5"><rect
         x="3790"
         y="325"
         width="1646"
         height="1002"
         id="rect34356" /></clipPath><clipPath
       id="clip54-4"><rect
         x="3790"
         y="325"
         width="1646"
         height="1002"
         id="rect34359" /></clipPath><clipPath
       id="clip55-7"><rect
         x="3790"
         y="325"
         width="1646"
         height="1002"
         id="rect34362" /></clipPath><clipPath
       id="clip56-9"><rect
         x="3790"
         y="325"
         width="1646"
         height="1002"
         id="rect34365" /></clipPath><clipPath
       id="clip57-7"><rect
         x="3790"
         y="325"
         width="1646"
         height="1002"
         id="rect34368" /></clipPath><clipPath
       id="clip58-56"><rect
         x="3790"
         y="325"
         width="1646"
         height="1002"
         id="rect34371" /></clipPath><clipPath
       id="clip59-26"><rect
         x="3790"
         y="325"
         width="1646"
         height="1002"
         id="rect34374" /></clipPath><clipPath
       id="clip60-2"><rect
         x="3790"
         y="325"
         width="1646"
         height="1002"
         id="rect34377" /></clipPath><clipPath
       id="clip61-5"><rect
         x="3790"
         y="325"
         width="1646"
         height="1002"
         id="rect34380" /></clipPath><clipPath
       id="clip62-9"><rect
         x="3790"
         y="325"
         width="1646"
         height="1002"
         id="rect34383" /></clipPath><clipPath
       id="clip63-3"><rect
         x="3790"
         y="325"
         width="1646"
         height="1002"
         id="rect34386" /></clipPath><clipPath
       id="clip64-0"><rect
         x="3790"
         y="325"
         width="1646"
         height="1002"
         id="rect34389" /></clipPath><clipPath
       id="clip65-8"><rect
         x="3790"
         y="325"
         width="1646"
         height="1002"
         id="rect34392" /></clipPath><clipPath
       id="clip66-6"><rect
         x="3790"
         y="325"
         width="1646"
         height="1002"
         id="rect34395" /></clipPath><clipPath
       id="clip67-2"><rect
         x="3790"
         y="325"
         width="1646"
         height="1002"
         id="rect34398" /></clipPath><clipPath
       id="clip68-0"><rect
         x="3790"
         y="325"
         width="1646"
         height="1002"
         id="rect34401" /></clipPath><clipPath
       id="clip69-0"><rect
         x="3790"
         y="325"
         width="1646"
         height="1002"
         id="rect34404" /></clipPath><clipPath
       id="clip70-8"><rect
         x="3790"
         y="325"
         width="1646"
         height="1002"
         id="rect34407" /></clipPath><clipPath
       id="clip71-3"><rect
         x="3790"
         y="325"
         width="1646"
         height="1002"
         id="rect34410" /></clipPath><clipPath
       id="clip72-6"><rect
         x="3790"
         y="325"
         width="1646"
         height="1002"
         id="rect34413" /></clipPath></defs><g
     clip-path="url(#clip0-80)"
     transform="matrix(0.26458333,0,0,0.26458334,-557.74166,-86.254169)"
     id="g34710"><rect
       x="2108"
       y="326"
       width="1691"
       height="1001"
       fill="#ffffff"
       id="rect34418" /><g
       clip-path="url(#clip1-4)"
       id="g34422"><path
         d="m 2347.5,1119.54 h 1151 m -1151,-13 h 1151 m -1151,-13 h 1151 m -1151,-13 h 1151 m -1151,-25.01 h 1151 m -1151,-13 h 1151 m -1151,-13 h 1151 m -1151,-13 h 1151 m -1151,-24.997 h 1151 m -1151,-13.001 h 1151 m -1151,-13 h 1151 m -1151,-13.001 h 1151 m -1151,-25 h 1151 m -1151,-13.001 h 1151 m -1151,-13 h 1151 m -1151,-13.001 h 1151 m -1151,-25 h 1151 m -1151,-13.001 h 1151 m -1151,-13 h 1151 m -1151,-13.001 h 1151 m -1151,-25.001 h 1151 m -1151,-13 h 1151 m -1151,-13 h 1151 m -1151,-13.001 h 1151 m -1151,-25.001 h 1151 m -1151,-13 h 1151 m -1151,-13.001 h 1151 m -1151,-13 h 1151 m -1151,-25.001 h 1151 m -1151,-13 h 1151 m -1151,-13.001 h 1151 m -1151,-13 h 1151 m -1151,-25.001 h 1151 m -1151,-13 h 1151 m -1151,-13.001 h 1151 m -1151,-13 h 1151 m -1151,-25.001 h 1151 m -1151,-13 h 1151 m -1151,-13.001 h 1151 m -1151,-13 h 1151"
         stroke="#f2f2f2"
         stroke-width="3.4375"
         stroke-linejoin="round"
         stroke-miterlimit="10"
         fill="none"
         id="path34420" /></g><g
       clip-path="url(#clip2-4)"
       id="g34426"><path
         d="m 2347.5,1067.54 h 1151 m -1151,-64.01 h 1151 m -1151,-63.999 h 1151 m -1151,-64.002 h 1151 m -1151,-64.002 h 1151 m -1151,-64.002 h 1151 m -1151,-64.002 h 1151 m -1151,-64.002 h 1151 m -1151,-64.003 h 1151 M 2347.5,491.5 h 1151"
         stroke="#d9d9d9"
         stroke-width="3.4375"
         stroke-linejoin="round"
         stroke-miterlimit="10"
         fill="none"
         id="path34424" /></g><g
       clip-path="url(#clip3-52)"
       id="g34430"><path
         d="m 2409.08,674.022 h 82 V 1132 h -82 z m 288.01,21.001 h 82 V 1132 h -82 z m 288.01,40.001 h 82 V 1132 h -82 z m 287.01,12.001 h 83 V 1132 h -83 z"
         fill="#4472c4"
         id="path34428" /></g><g
       clip-path="url(#clip4-1)"
       id="g34434"><path
         d="m 2491.08,551.018 h 82 V 1132 h -82 z m 288.01,9 h 82 V 1132 h -82 z m 288.01,13.001 h 82 V 1132 h -82 z m 288.01,8 h 82 V 1132 h -82 z"
         fill="#ed7d31"
         id="path34432" /></g><g
       clip-path="url(#clip5-2)"
       id="g34438"><path
         d="M 2449.58,674.522 V 755.5 m 0,-80.978 V 592.5 m -10.08,163 h 21 m -21,-163 h 21"
         stroke="#595959"
         stroke-width="3.4375"
         stroke-linejoin="round"
         stroke-miterlimit="10"
         fill="none"
         id="path34436" /></g><g
       clip-path="url(#clip6-19)"
       id="g34442"><path
         d="M 2737.59,695.523 V 783.5 m 0,-87.977 V 606.5 m -10.09,177 h 21 m -21,-177 h 21"
         stroke="#595959"
         stroke-width="3.4375"
         stroke-linejoin="round"
         stroke-miterlimit="10"
         fill="none"
         id="path34440" /></g><g
       clip-path="url(#clip7-20)"
       id="g34446"><path
         d="M 3025.6,734.524 V 777.5 m 0,-42.976 V 691.5 m -10.1,86 h 21 m -21,-86 h 21"
         stroke="#595959"
         stroke-width="3.4375"
         stroke-linejoin="round"
         stroke-miterlimit="10"
         fill="none"
         id="path34444" /></g><g
       clip-path="url(#clip8-8)"
       id="g34450"><path
         d="M 3313.61,746.525 V 788.5 m 0,-41.975 V 704.5 m -10.11,84 h 21 m -21,-84 h 21"
         stroke="#595959"
         stroke-width="3.4375"
         stroke-linejoin="round"
         stroke-miterlimit="10"
         fill="none"
         id="path34448" /></g><g
       clip-path="url(#clip9-9)"
       id="g34454"><path
         d="M 2532.58,551.518 V 583.5 m 0,-31.982 V 518.5 m -11.08,65 h 21 m -21,-65 h 21"
         stroke="#595959"
         stroke-width="3.4375"
         stroke-linejoin="round"
         stroke-miterlimit="10"
         fill="none"
         id="path34452" /></g><g
       clip-path="url(#clip10-7)"
       id="g34458"><path
         d="M 2819.59,560.519 V 594.5 m 0,-33.981 V 525.5 m -10.09,69 h 21 m -21,-69 h 21"
         stroke="#595959"
         stroke-width="3.4375"
         stroke-linejoin="round"
         stroke-miterlimit="10"
         fill="none"
         id="path34456" /></g><g
       clip-path="url(#clip11-14)"
       id="g34462"><path
         d="M 3107.6,572.519 V 609.5 m 0,-36.981 V 535.5 m -10.1,74 h 21 m -21,-74 h 21"
         stroke="#595959"
         stroke-width="3.4375"
         stroke-linejoin="round"
         stroke-miterlimit="10"
         fill="none"
         id="path34460" /></g><g
       clip-path="url(#clip12-8)"
       id="g34466"><path
         d="M 3395.61,580.519 V 627.5 m 0,-46.981 V 533.5 m -10.11,94 h 21 m -21,-94 h 21"
         stroke="#595959"
         stroke-width="3.4375"
         stroke-linejoin="round"
         stroke-miterlimit="10"
         fill="none"
         id="path34464" /></g><g
       clip-path="url(#clip13-7)"
       id="g34470"><path
         d="m 2347.5,1131.5 h 1151"
         stroke="#d9d9d9"
         stroke-width="3.4375"
         stroke-linejoin="round"
         stroke-miterlimit="10"
         fill="none"
         fill-rule="evenodd"
         id="path34468" /></g><g
       clip-path="url(#clip14-81)"
       id="g34474"><path
         d="m 2490.5,551.5 3.08,0.018 h 3 2 3 2 3 2 3 3 2 3 2 3 3 2 3 2 3 l 2,1 h 3 3 2 3 2 3 2 3 3 2 3 2 3 l 2,1 h 3 3 2 3 2.01 3 3 2 3 2 3 2 3 l 3,1 h 2 3 2 3 2 3 3 2 3 2 l 3,1 h 3 2 3 2 3 2 3 3 2 3 2 l 3,1 h 2 3 3 2 3 2 3 3 2 l 3,1 h 2 3 2 3 3 2 3 2 3 l 2,1 h 3 3 2 3 2 3 3 2 3 l 2,1.001 h 3 2 3 3 2 3 2 3 l 2,1 h 3 3 2 3 2 3 3 2 3 l 2,1 h 3 2 3 3 2 3 2 3 l 2,1 h 3 3 2 3 2 3 3 2 l 3,1 h 2 3 2 3 3 2 3 l 2,1 h 3 2 3 3 2 3 2 3 l 3,1 h 2 3.01 2 3 2 3 3 2 l 3,1 h 2 3 2 3 3 2 3 2 l 3,1 h 2 3 3 2 3 2 3 3 l 2,1 h 3 2 3 2 3 3 2 3 l 2,1 h 3 2 3 3 2 3 2 3 l 3,1 h 2 3 2 3 2 3 3 2 l 3,1 h 2 3 2 3 3 2 3 2 3 l 3,1 h 2 3 2 3 2 3 3 2 l 3,1 h 2 3 2 3 3 2 3 2 3 l 3,1 h 2 3 2 3 2 3 3 2 3 2 l 3,1 h 2 3 3 2 3 2 3 3 2 3 l 2,1 h 3 2 3 3 2 3 2 3 2 3 3 l 2,1 h 3 2 3 3.01 2 3 2 3 2 3 3 2 3 l 2,1 h 3 2 3 3 2 3 2 3 3 2 3 2 3 2 l 3,1 h 3 2 3 2 3 2 3 3 2 3 2 3 2 3 3 2 3 2 l 3,1 h 3 2 3 2 3 2 3 3 2 3 2 3 2 3 3 l 1.89,-0.019"
         stroke="#ed7d31"
         stroke-width="6.875"
         stroke-linecap="round"
         stroke-linejoin="round"
         stroke-miterlimit="10"
         stroke-dasharray="0, 13.75"
         fill="none"
         id="path34472" /></g><g
       clip-path="url(#clip15-8)"
       id="g34478"><text
         fill="#595959"
         font-family="Arial, Arial_MSFontService, sans-serif"
         font-weight="400"
         font-size="41px"
         transform="translate(2254.2,1145)"
         id="text34476">0.4</text></g><g
       clip-path="url(#clip16-5)"
       id="g34482"><text
         fill="#595959"
         font-family="Arial, Arial_MSFontService, sans-serif"
         font-weight="400"
         font-size="41px"
         transform="translate(2231.26,1081)"
         id="text34480">0.45</text></g><g
       clip-path="url(#clip17-8)"
       id="g34486"><text
         fill="#595959"
         font-family="Arial, Arial_MSFontService, sans-serif"
         font-weight="400"
         font-size="41px"
         transform="translate(2254.2,1017)"
         id="text34484">0.5</text></g><g
       clip-path="url(#clip18-0)"
       id="g34490"><text
         fill="#595959"
         font-family="Arial, Arial_MSFontService, sans-serif"
         font-weight="400"
         font-size="41px"
         transform="translate(2231.26,953)"
         id="text34488">0.55</text></g><g
       clip-path="url(#clip19-1)"
       id="g34494"><text
         fill="#595959"
         font-family="Arial, Arial_MSFontService, sans-serif"
         font-weight="400"
         font-size="41px"
         transform="translate(2254.2,889)"
         id="text34492">0.6</text></g><g
       clip-path="url(#clip20-7)"
       id="g34498"><text
         fill="#595959"
         font-family="Arial, Arial_MSFontService, sans-serif"
         font-weight="400"
         font-size="41px"
         transform="translate(2231.26,825)"
         id="text34496">0.65</text></g><g
       clip-path="url(#clip21-8)"
       id="g34502"><text
         fill="#595959"
         font-family="Arial, Arial_MSFontService, sans-serif"
         font-weight="400"
         font-size="41px"
         transform="translate(2254.2,761)"
         id="text34500">0.7</text></g><g
       clip-path="url(#clip22-5)"
       id="g34506"><text
         fill="#595959"
         font-family="Arial, Arial_MSFontService, sans-serif"
         font-weight="400"
         font-size="41px"
         transform="translate(2231.26,697)"
         id="text34504">0.75</text></g><g
       clip-path="url(#clip23-6)"
       id="g34510"><text
         fill="#595959"
         font-family="Arial, Arial_MSFontService, sans-serif"
         font-weight="400"
         font-size="41px"
         transform="translate(2254.2,633)"
         id="text34508">0.8</text></g><g
       clip-path="url(#clip24-1)"
       id="g34514"><text
         fill="#595959"
         font-family="Arial, Arial_MSFontService, sans-serif"
         font-weight="400"
         font-size="41px"
         transform="translate(2231.26,569)"
         id="text34512">0.85</text></g><g
       clip-path="url(#clip25-6)"
       id="g34518"><text
         fill="#595959"
         font-family="Arial, Arial_MSFontService, sans-serif"
         font-weight="400"
         font-size="41px"
         transform="translate(2254.2,505)"
         id="text34516">0.9</text></g><g
       clip-path="url(#clip26-6)"
       id="g34522"><text
         fill="#595959"
         font-family="Arial, Arial_MSFontService, sans-serif"
         font-weight="400"
         font-size="41px"
         transform="translate(2468.05,1194)"
         id="text34520">10</text></g><g
       clip-path="url(#clip27-8)"
       id="g34526"><text
         fill="#595959"
         font-family="Arial, Arial_MSFontService, sans-serif"
         font-weight="400"
         font-size="41px"
         transform="translate(2756,1194)"
         id="text34524">15</text></g><g
       clip-path="url(#clip28-5)"
       id="g34530"><text
         fill="#595959"
         font-family="Arial, Arial_MSFontService, sans-serif"
         font-weight="400"
         font-size="41px"
         transform="translate(3043.95,1194)"
         id="text34528">25</text></g><g
       clip-path="url(#clip29-0)"
       id="g34534"><text
         fill="#595959"
         font-family="Arial, Arial_MSFontService, sans-serif"
         font-weight="400"
         font-size="41px"
         transform="translate(3331.9,1194)"
         id="text34532">50</text></g><g
       clip-path="url(#clip30-01)"
       id="g34538"><text
         fill="#595959"
         font-family="Arial, Arial_MSFontService, sans-serif"
         font-weight="400"
         font-size="46px"
         transform="rotate(-90,1619.895,-587.895)"
         id="text34536">Pearson's Correlation</text></g><g
       clip-path="url(#clip31-8)"
       id="g34542"><text
         fill="#595959"
         font-family="Arial, Arial_MSFontService, sans-serif"
         font-weight="400"
         font-size="46px"
         transform="translate(2622.34,1260)"
         id="text34540">Kernel lengthscale upper limit</text></g><g
       clip-path="url(#clip32-4)"
       id="g34546"><text
         fill="#595959"
         font-family="Arial, Arial_MSFontService, sans-serif"
         font-weight="400"
         font-size="64px"
         transform="translate(2772.74,421)"
         id="text34544">Train Scores</text></g><g
       clip-path="url(#clip33-4)"
       id="g34550"><rect
         x="3570"
         y="837"
         width="21.0002"
         height="20.999901"
         fill="#4472c4"
         id="rect34548" /></g><g
       clip-path="url(#clip34-2)"
       id="g34554"><text
         fill="#595959"
         font-family="Arial, Arial_MSFontService, sans-serif"
         font-weight="400"
         font-size="41px"
         transform="translate(3599.28,860)"
         id="text34552">Model H</text></g><g
       clip-path="url(#clip35-9)"
       id="g34558"><rect
         x="3570"
         y="910"
         width="21.0002"
         height="20.999901"
         fill="#ed7d31"
         id="rect34556" /></g><g
       clip-path="url(#clip36-3)"
       id="g34562"><text
         fill="#595959"
         font-family="Arial, Arial_MSFontService, sans-serif"
         font-weight="400"
         font-size="41px"
         transform="translate(3599.28,933)"
         id="text34560">Model A</text></g><rect
       x="3790"
       y="326"
       width="1646"
       height="1001"
       fill="#ffffff"
       id="rect34564" /><g
       clip-path="url(#clip37-3)"
       id="g34568"><path
         d="m 4029.5,1119.54 h 1106 m -1106,-13 h 1106 m -1106,-13 h 1106 m -1106,-12 h 1106 m -1106,-26.01 h 1106 m -1106,-13 h 1106 m -1106,-13 h 1106 m -1106,-13 h 1106 m -1106,-24.997 h 1106 m -1106,-13.001 h 1106 m -1106,-13 h 1106 m -1106,-13.001 h 1106 m -1106,-25 h 1106 m -1106,-13.001 h 1106 m -1106,-13 h 1106 m -1106,-13.001 h 1106 m -1106,-25 h 1106 m -1106,-13.001 h 1106 m -1106,-13 h 1106 m -1106,-13.001 h 1106 m -1106,-26.001 h 1106 m -1106,-12 h 1106 m -1106,-13 h 1106 m -1106,-13.001 h 1106 m -1106,-26.001 h 1106 m -1106,-12 h 1106 m -1106,-13.001 h 1106 m -1106,-13 h 1106 m -1106,-26.001 h 1106 m -1106,-13 h 1106 m -1106,-12.001 h 1106 m -1106,-13 h 1106 m -1106,-26.001 h 1106 m -1106,-13 h 1106 m -1106,-12.001 h 1106 m -1106,-13 h 1106 m -1106,-26.001 h 1106 m -1106,-13 h 1106 m -1106,-13.001 h 1106 m -1106,-12 h 1106"
         stroke="#f2f2f2"
         stroke-width="3.4375"
         stroke-linejoin="round"
         stroke-miterlimit="10"
         fill="none"
         id="path34566" /></g><g
       clip-path="url(#clip38-2)"
       id="g34572"><path
         d="m 4029.5,1068.54 h 1106 m -1106,-64.01 h 1106 m -1106,-64.999 h 1106 m -1106,-64.002 h 1106 m -1106,-64.002 h 1106 m -1106,-64.002 h 1106 m -1106,-64.002 h 1106 m -1106,-64.002 h 1106 m -1106,-64.003 h 1106 M 4029.5,491.5 h 1106"
         stroke="#d9d9d9"
         stroke-width="3.4375"
         stroke-linejoin="round"
         stroke-miterlimit="10"
         fill="none"
         id="path34570" /></g><g
       clip-path="url(#clip39-3)"
       id="g34576"><path
         d="m 4089.13,804.026 h 79.01 V 1132 h -79.01 z m 277.01,6.001 h 79.01 V 1132 h -79.01 z m 276.01,-17.001 h 79.01 V 1132 h -79.01 z m 276.01,-15 h 79 V 1132 h -79 z"
         fill="#4472c4"
         id="path34574" /></g><g
       clip-path="url(#clip40-89)"
       id="g34580"><path
         d="m 4168.14,590.019 h 79 V 1132 h -79 z m 277.01,7.001 h 79 V 1132 h -79 z m 276.01,11 h 79 V 1132 h -79 z m 276,27.001 h 79.01 V 1132 h -79.01 z"
         fill="#ed7d31"
         id="path34578" /></g><g
       clip-path="url(#clip41-2)"
       id="g34584"><path
         d="M 4128.64,803.527 V 907.5 m 0,-103.973 V 699.5 m -10.14,208 h 21 m -21,-208 h 21"
         stroke="#595959"
         stroke-width="3.4375"
         stroke-linejoin="round"
         stroke-miterlimit="10"
         fill="none"
         id="path34582" /></g><g
       clip-path="url(#clip42-9)"
       id="g34588"><path
         d="M 4405.64,810.527 V 908.5 m 0,-97.973 V 711.5 m -11.14,197 h 21 m -21,-197 h 21"
         stroke="#595959"
         stroke-width="3.4375"
         stroke-linejoin="round"
         stroke-miterlimit="10"
         fill="none"
         id="path34586" /></g><g
       clip-path="url(#clip43-9)"
       id="g34592"><path
         d="M 4681.65,792.526 V 896.5 m 0,-103.974 V 688.5 m -10.15,208 h 20 m -20,-208 h 20"
         stroke="#595959"
         stroke-width="3.4375"
         stroke-linejoin="round"
         stroke-miterlimit="10"
         fill="none"
         id="path34590" /></g><g
       clip-path="url(#clip44-1)"
       id="g34596"><path
         d="M 4957.66,777.526 V 908.5 m 0,-130.974 V 647.5 m -10.16,261 h 21 m -21,-261 h 21"
         stroke="#595959"
         stroke-width="3.4375"
         stroke-linejoin="round"
         stroke-miterlimit="10"
         fill="none"
         id="path34594" /></g><g
       clip-path="url(#clip45-7)"
       id="g34600"><path
         d="m 4207.64,590.52 v 57.98 m 0,-57.98 V 531.5 m -10.14,117 h 21 m -21,-117 h 21"
         stroke="#595959"
         stroke-width="3.4375"
         stroke-linejoin="round"
         stroke-miterlimit="10"
         fill="none"
         id="path34598" /></g><g
       clip-path="url(#clip46-1)"
       id="g34604"><path
         d="m 4484.65,596.52 v 57.98 m 0,-57.98 V 539.5 m -11.15,115 h 21 m -21,-115 h 21"
         stroke="#595959"
         stroke-width="3.4375"
         stroke-linejoin="round"
         stroke-miterlimit="10"
         fill="none"
         id="path34602" /></g><g
       clip-path="url(#clip47-6)"
       id="g34608"><path
         d="m 4760.66,607.52 v 46.98 m 0,-46.98 V 561.5 m -10.16,93 h 20 m -20,-93 h 20"
         stroke="#595959"
         stroke-width="3.4375"
         stroke-linejoin="round"
         stroke-miterlimit="10"
         fill="none"
         id="path34606" /></g><g
       clip-path="url(#clip48-9)"
       id="g34612"><path
         d="M 5036.67,634.521 V 665.5 m 0,-30.979 V 604.5 m -10.17,61 h 21 m -21,-61 h 21"
         stroke="#595959"
         stroke-width="3.4375"
         stroke-linejoin="round"
         stroke-miterlimit="10"
         fill="none"
         id="path34610" /></g><g
       clip-path="url(#clip49-6)"
       id="g34616"><path
         d="m 4029.5,1132.5 h 1106"
         stroke="#d9d9d9"
         stroke-width="3.4375"
         stroke-linejoin="round"
         stroke-miterlimit="10"
         fill="none"
         fill-rule="evenodd"
         id="path34614" /></g><g
       clip-path="url(#clip50-82)"
       id="g34620"><path
         d="m 4168.5,590.5 2.14,0.02 h 3 2 3 2 3 3 2 3 2 3 3 l 2,1 h 3 2 3 2 3 3 2 3 2 3 3 2 3 2 l 3,1 h 3 2 3 2 3 2 3 3 2 3 2 3 3 2 l 3,1 h 2 3 2 3 3 2 3 2 3 3 2 3 2 3 2 3 l 3,1 h 2 3 2 3 3 2 3 2 3 2 3 3 2 3 2 3 l 3,1 h 2 3 2 3 2 3 3 2 3 2 3 3 2 3 2 3 l 2,1 h 3.01 3 2 3 2 3 3 2 3 2 3 2 3 3 2 l 3,1 h 2 3 3 2 3 2 3 2 3 3 2 3 2 l 3,1 h 3 2 3 2 3 2 3 3 2 3 2 3 l 3,1 h 2 3 2 3 2 3 3 2 3 2 3 l 3,1 h 2 3 2 3 2 3 3 2 3 2 l 3,1 h 3 2 3 2 3 2 3 3 2 l 3,1 h 2 3 3 2 3 2 3 2 l 3,1 h 3 2 3 2 3 3 2 l 3,1 h 2 3 2 3 3 2 3 l 2,1 h 3 3 2 3 2 3 l 2,1 h 3 3 2 3 2 3 l 3,1 h 2 3 2 3 2 l 3,1 h 3.01 2 3 2 3 l 3,1 h 2 3 2 3 2 l 3,1 h 3 2 3 2 l 3,1 h 3 2 3 2 3 l 2,1 h 3 3 2 3 l 2,1 h 3 3 2 l 3,1 h 2 3 2 3 l 3,1 h 2 3 2 3 l 3,1 h 2 3 2 l 3,1 h 3 2 3 l 2,1 h 3 2 3 l 3,1.001 h 2 3 2 l 3,1 h 3 2 3 l 2,1 h 3 2 3 l 3,1 h 2 3 l 2,1 h 3 3 2 l 3,1 h 2 3 l 2,1 h 3 3 2 l 3,1 h 2 3 l 3,1 h 2 3 l 2,1 h 3 2 l 3,1 h 3 2 l 3,1 h 2 3 l 3,1 h 2 3 l 2,1 h 3 2 l 3,1 h 3 2 l 3,1 h 2 l 2.84,-0.021"
         stroke="#ed7d31"
         stroke-width="6.875"
         stroke-linecap="round"
         stroke-linejoin="round"
         stroke-miterlimit="10"
         stroke-dasharray="0, 13.75"
         fill="none"
         id="path34618" /></g><g
       clip-path="url(#clip51-6)"
       id="g34624"><text
         fill="#595959"
         font-family="Arial, Arial_MSFontService, sans-serif"
         font-weight="400"
         font-size="41px"
         transform="translate(3937.17,1145)"
         id="text34622">0.4</text></g><g
       clip-path="url(#clip52-3)"
       id="g34628"><text
         fill="#595959"
         font-family="Arial, Arial_MSFontService, sans-serif"
         font-weight="400"
         font-size="41px"
         transform="translate(3914.23,1081)"
         id="text34626">0.45</text></g><g
       clip-path="url(#clip53-5)"
       id="g34632"><text
         fill="#595959"
         font-family="Arial, Arial_MSFontService, sans-serif"
         font-weight="400"
         font-size="41px"
         transform="translate(3937.17,1017)"
         id="text34630">0.5</text></g><g
       clip-path="url(#clip54-4)"
       id="g34636"><text
         fill="#595959"
         font-family="Arial, Arial_MSFontService, sans-serif"
         font-weight="400"
         font-size="41px"
         transform="translate(3914.23,953)"
         id="text34634">0.55</text></g><g
       clip-path="url(#clip55-7)"
       id="g34640"><text
         fill="#595959"
         font-family="Arial, Arial_MSFontService, sans-serif"
         font-weight="400"
         font-size="41px"
         transform="translate(3937.17,889)"
         id="text34638">0.6</text></g><g
       clip-path="url(#clip56-9)"
       id="g34644"><text
         fill="#595959"
         font-family="Arial, Arial_MSFontService, sans-serif"
         font-weight="400"
         font-size="41px"
         transform="translate(3914.23,825)"
         id="text34642">0.65</text></g><g
       clip-path="url(#clip57-7)"
       id="g34648"><text
         fill="#595959"
         font-family="Arial, Arial_MSFontService, sans-serif"
         font-weight="400"
         font-size="41px"
         transform="translate(3937.17,760)"
         id="text34646">0.7</text></g><g
       clip-path="url(#clip58-56)"
       id="g34652"><text
         fill="#595959"
         font-family="Arial, Arial_MSFontService, sans-serif"
         font-weight="400"
         font-size="41px"
         transform="translate(3914.23,696)"
         id="text34650">0.75</text></g><g
       clip-path="url(#clip59-26)"
       id="g34656"><text
         fill="#595959"
         font-family="Arial, Arial_MSFontService, sans-serif"
         font-weight="400"
         font-size="41px"
         transform="translate(3937.17,632)"
         id="text34654">0.8</text></g><g
       clip-path="url(#clip60-2)"
       id="g34660"><text
         fill="#595959"
         font-family="Arial, Arial_MSFontService, sans-serif"
         font-weight="400"
         font-size="41px"
         transform="translate(3914.23,568)"
         id="text34658">0.85</text></g><g
       clip-path="url(#clip61-5)"
       id="g34664"><text
         fill="#595959"
         font-family="Arial, Arial_MSFontService, sans-serif"
         font-weight="400"
         font-size="41px"
         transform="translate(3937.17,504)"
         id="text34662">0.9</text></g><g
       clip-path="url(#clip62-9)"
       id="g34668"><text
         fill="#595959"
         font-family="Arial, Arial_MSFontService, sans-serif"
         font-weight="400"
         font-size="41px"
         transform="translate(4145.27,1194)"
         id="text34666">10</text></g><g
       clip-path="url(#clip63-3)"
       id="g34672"><text
         fill="#595959"
         font-family="Arial, Arial_MSFontService, sans-serif"
         font-weight="400"
         font-size="41px"
         transform="translate(4421.74,1194)"
         id="text34670">15</text></g><g
       clip-path="url(#clip64-0)"
       id="g34676"><text
         fill="#595959"
         font-family="Arial, Arial_MSFontService, sans-serif"
         font-weight="400"
         font-size="41px"
         transform="translate(4698.2,1194)"
         id="text34674">25</text></g><g
       clip-path="url(#clip65-8)"
       id="g34680"><text
         fill="#595959"
         font-family="Arial, Arial_MSFontService, sans-serif"
         font-weight="400"
         font-size="41px"
         transform="translate(4974.66,1194)"
         id="text34678">50</text></g><g
       clip-path="url(#clip66-6)"
       id="g34684"><text
         fill="#595959"
         font-family="Arial, Arial_MSFontService, sans-serif"
         font-weight="400"
         font-size="46px"
         transform="rotate(-90,2460.88,-1429.88)"
         id="text34682">Pearson's Correlation</text></g><g
       clip-path="url(#clip67-2)"
       id="g34688"><text
         fill="#595959"
         font-family="Arial, Arial_MSFontService, sans-serif"
         font-weight="400"
         font-size="46px"
         transform="translate(4282.33,1260)"
         id="text34686">Kernel lengthscale upper limit</text></g><g
       clip-path="url(#clip68-0)"
       id="g34692"><text
         fill="#595959"
         font-family="Arial, Arial_MSFontService, sans-serif"
         font-weight="400"
         font-size="64px"
         transform="translate(4445.79,420)"
         id="text34690">Test Scores</text></g><g
       clip-path="url(#clip69-0)"
       id="g34696"><rect
         x="5207"
         y="837"
         width="21"
         height="20.999901"
         fill="#4472c4"
         id="rect34694" /></g><g
       clip-path="url(#clip70-8)"
       id="g34700"><text
         fill="#595959"
         font-family="Arial, Arial_MSFontService, sans-serif"
         font-weight="400"
         font-size="41px"
         transform="translate(5236.3,860)"
         id="text34698">Model H</text></g><g
       clip-path="url(#clip71-3)"
       id="g34704"><rect
         x="5207"
         y="910"
         width="21"
         height="20.999901"
         fill="#ed7d31"
         id="rect34702" /></g><g
       clip-path="url(#clip72-6)"
       id="g34708"><text
         fill="#595959"
         font-family="Arial, Arial_MSFontService, sans-serif"
         font-weight="400"
         font-size="41px"
         transform="translate(5236.3,933)"
         id="text34706">Model A</text></g></g></svg>
