<svg width="3294" height="982" xmlns="http://www.w3.org/2000/svg" xmlns:xlink="http://www.w3.org/1999/xlink" xml:space="preserve" overflow="hidden"><defs><clipPath id="clip0"><rect x="2444" y="2666" width="3294" height="982"/></clipPath><clipPath id="clip1"><rect x="2444" y="2665" width="1650" height="981"/></clipPath><clipPath id="clip2"><rect x="2444" y="2665" width="1650" height="981"/></clipPath><clipPath id="clip3"><rect x="2683" y="2831" width="1114" height="624"/></clipPath><clipPath id="clip4"><rect x="2683" y="2831" width="1114" height="624"/></clipPath><clipPath id="clip5"><rect x="2683" y="2831" width="1114" height="620"/></clipPath><clipPath id="clip6"><rect x="2683" y="2831" width="1114" height="620"/></clipPath><clipPath id="clip7"><rect x="2683" y="2831" width="1114" height="620"/></clipPath><clipPath id="clip8"><rect x="2683" y="2831" width="1114" height="620"/></clipPath><clipPath id="clip9"><rect x="2683" y="2831" width="1114" height="620"/></clipPath><clipPath id="clip10"><rect x="2683" y="2831" width="1114" height="620"/></clipPath><clipPath id="clip11"><rect x="2683" y="2831" width="1114" height="620"/></clipPath><clipPath id="clip12"><rect x="2683" y="2831" width="1114" height="620"/></clipPath><clipPath id="clip13"><rect x="2444" y="2665" width="1650" height="981"/></clipPath><clipPath id="clip14"><rect x="2683" y="2831" width="1110" height="620"/></clipPath><clipPath id="clip15"><rect x="2444" y="2665" width="1650" height="981"/></clipPath><clipPath id="clip16"><rect x="2444" y="2665" width="1650" height="981"/></clipPath><clipPath id="clip17"><rect x="2444" y="2665" width="1650" height="981"/></clipPath><clipPath id="clip18"><rect x="2444" y="2665" width="1650" height="981"/></clipPath><clipPath id="clip19"><rect x="2444" y="2665" width="1650" height="981"/></clipPath><clipPath id="clip20"><rect x="2444" y="2665" width="1650" height="981"/></clipPath><clipPath id="clip21"><rect x="2444" y="2665" width="1650" height="981"/></clipPath><clipPath id="clip22"><rect x="2444" y="2665" width="1650" height="981"/></clipPath><clipPath id="clip23"><rect x="2444" y="2665" width="1650" height="981"/></clipPath><clipPath id="clip24"><rect x="2444" y="2665" width="1650" height="981"/></clipPath><clipPath id="clip25"><rect x="2444" y="2665" width="1650" height="981"/></clipPath><clipPath id="clip26"><rect x="2444" y="2665" width="1650" height="981"/></clipPath><clipPath id="clip27"><rect x="2444" y="2665" width="1650" height="981"/></clipPath><clipPath id="clip28"><rect x="2444" y="2665" width="1650" height="981"/></clipPath><clipPath id="clip29"><rect x="2444" y="2665" width="1650" height="981"/></clipPath><clipPath id="clip30"><rect x="2444" y="2665" width="1650" height="981"/></clipPath><clipPath id="clip31"><rect x="2444" y="2665" width="1650" height="981"/></clipPath><clipPath id="clip32"><rect x="2444" y="2665" width="1650" height="981"/></clipPath><clipPath id="clip33"><rect x="2444" y="2665" width="1650" height="981"/></clipPath><clipPath id="clip34"><rect x="2444" y="2665" width="1650" height="981"/></clipPath><clipPath id="clip35"><rect x="2444" y="2665" width="1650" height="981"/></clipPath><clipPath id="clip36"><rect x="2444" y="2665" width="1650" height="981"/></clipPath><clipPath id="clip37"><rect x="4090" y="2665" width="1648" height="982"/></clipPath><clipPath id="clip38"><rect x="4090" y="2665" width="1648" height="982"/></clipPath><clipPath id="clip39"><rect x="4330" y="2831" width="1111" height="625"/></clipPath><clipPath id="clip40"><rect x="4330" y="2831" width="1111" height="625"/></clipPath><clipPath id="clip41"><rect x="4330" y="2831" width="1111" height="621"/></clipPath><clipPath id="clip42"><rect x="4330" y="2831" width="1111" height="621"/></clipPath><clipPath id="clip43"><rect x="4330" y="2831" width="1111" height="621"/></clipPath><clipPath id="clip44"><rect x="4330" y="2831" width="1111" height="621"/></clipPath><clipPath id="clip45"><rect x="4330" y="2831" width="1111" height="621"/></clipPath><clipPath id="clip46"><rect x="4330" y="2831" width="1111" height="621"/></clipPath><clipPath id="clip47"><rect x="4330" y="2831" width="1111" height="621"/></clipPath><clipPath id="clip48"><rect x="4330" y="2831" width="1111" height="621"/></clipPath><clipPath id="clip49"><rect x="4090" y="2665" width="1648" height="982"/></clipPath><clipPath id="clip50"><rect x="4330" y="2831" width="1108" height="621"/></clipPath><clipPath id="clip51"><rect x="4090" y="2665" width="1648" height="982"/></clipPath><clipPath id="clip52"><rect x="4090" y="2665" width="1648" height="982"/></clipPath><clipPath id="clip53"><rect x="4090" y="2665" width="1648" height="982"/></clipPath><clipPath id="clip54"><rect x="4090" y="2665" width="1648" height="982"/></clipPath><clipPath id="clip55"><rect x="4090" y="2665" width="1648" height="982"/></clipPath><clipPath id="clip56"><rect x="4090" y="2665" width="1648" height="982"/></clipPath><clipPath id="clip57"><rect x="4090" y="2665" width="1648" height="982"/></clipPath><clipPath id="clip58"><rect x="4090" y="2665" width="1648" height="982"/></clipPath><clipPath id="clip59"><rect x="4090" y="2665" width="1648" height="982"/></clipPath><clipPath id="clip60"><rect x="4090" y="2665" width="1648" height="982"/></clipPath><clipPath id="clip61"><rect x="4090" y="2665" width="1648" height="982"/></clipPath><clipPath id="clip62"><rect x="4090" y="2665" width="1648" height="982"/></clipPath><clipPath id="clip63"><rect x="4090" y="2665" width="1648" height="982"/></clipPath><clipPath id="clip64"><rect x="4090" y="2665" width="1648" height="982"/></clipPath><clipPath id="clip65"><rect x="4090" y="2665" width="1648" height="982"/></clipPath><clipPath id="clip66"><rect x="4090" y="2665" width="1648" height="982"/></clipPath><clipPath id="clip67"><rect x="4090" y="2665" width="1648" height="982"/></clipPath><clipPath id="clip68"><rect x="4090" y="2665" width="1648" height="982"/></clipPath><clipPath id="clip69"><rect x="4090" y="2665" width="1648" height="982"/></clipPath><clipPath id="clip70"><rect x="4090" y="2665" width="1648" height="982"/></clipPath><clipPath id="clip71"><rect x="4090" y="2665" width="1648" height="982"/></clipPath><clipPath id="clip72"><rect x="4090" y="2665" width="1648" height="982"/></clipPath></defs><g clip-path="url(#clip0)" transform="translate(-2444 -2666)"><rect x="2444" y="2666" width="1650" height="981" fill="#FFFFFF"/><g clip-path="url(#clip1)"><path d="M2683.5 3439.61 3793.5 3439.61M2683.5 3426.61 3793.5 3426.61M2683.5 3414.61 3793.5 3414.61M2683.5 3402.61 3793.5 3402.61M2683.5 3377.61 3793.5 3377.61M2683.5 3364.61 3793.5 3364.61M2683.5 3352.61 3793.5 3352.61M2683.5 3340.61 3793.5 3340.61M2683.5 3315.61 3793.5 3315.61M2683.5 3302.61 3793.5 3302.61M2683.5 3290.61 3793.5 3290.61M2683.5 3278.61 3793.5 3278.61M2683.5 3253.61 3793.5 3253.61M2683.5 3240.61 3793.5 3240.61M2683.5 3228.61 3793.5 3228.61M2683.5 3215.61 3793.5 3215.61M2683.5 3191.6 3793.5 3191.6M2683.5 3178.6 3793.5 3178.6M2683.5 3166.6 3793.5 3166.6M2683.5 3153.6 3793.5 3153.6M2683.5 3129.6 3793.5 3129.6M2683.5 3116.6 3793.5 3116.6M2683.5 3104.6 3793.5 3104.6M2683.5 3091.6 3793.5 3091.6M2683.5 3067.6 3793.5 3067.6M2683.5 3054.6 3793.5 3054.6M2683.5 3042.6 3793.5 3042.6M2683.5 3029.6 3793.5 3029.6M2683.5 3004.6 3793.5 3004.6M2683.5 2992.6 3793.5 2992.6M2683.5 2980.6 3793.5 2980.6M2683.5 2967.6 3793.5 2967.6M2683.5 2942.6 3793.5 2942.6M2683.5 2930.6 3793.5 2930.6M2683.5 2918.6 3793.5 2918.6M2683.5 2905.6 3793.5 2905.6M2683.5 2880.59 3793.5 2880.59M2683.5 2868.59 3793.5 2868.59M2683.5 2856.59 3793.5 2856.59M2683.5 2843.59 3793.5 2843.59" stroke="#F2F2F2" stroke-width="3.4375" stroke-linejoin="round" stroke-miterlimit="10" fill="none"/></g><g clip-path="url(#clip2)"><path d="M2683.5 3389.61 3793.5 3389.61M2683.5 3327.61 3793.5 3327.61M2683.5 3265.61 3793.5 3265.61M2683.5 3203.61 3793.5 3203.61M2683.5 3141.6 3793.5 3141.6M2683.5 3079.6 3793.5 3079.6M2683.5 3017.6 3793.5 3017.6M2683.5 2955.6 3793.5 2955.6M2683.5 2893.6 3793.5 2893.6M2683.5 2831.5 3793.5 2831.5" stroke="#D9D9D9" stroke-width="3.4375" stroke-linejoin="round" stroke-miterlimit="10" fill="none"/></g><g clip-path="url(#clip3)"><path d="M2743.09 3072.1 2822.09 3072.1 2822.09 3452 2743.09 3452ZM3020.1 3062.1 3100.1 3062.1 3100.1 3452 3020.1 3452ZM3298.11 3028.1 3377.11 3028.1 3377.11 3452 3298.11 3452ZM3576.12 3004.1 3655.12 3004.1 3655.12 3452 3576.12 3452Z" fill="#4472C4"/></g><g clip-path="url(#clip4)"><path d="M2822.09 2919.1 2902.1 2919.1 2902.1 3452 2822.09 3452ZM3100.1 2906.1 3179.1 2906.1 3179.1 3452 3100.1 3452ZM3377.11 2905.1 3457.11 2905.1 3457.11 3452 3377.11 3452ZM3655.12 2903.1 3734.12 2903.1 3734.12 3452 3655.12 3452Z" fill="#ED7D31"/></g><g clip-path="url(#clip5)"><path d="M2782.59 3071.6 2782.59 3133.5M2782.59 3071.6 2782.59 3009.5M2772.5 3133.5 2792.5 3133.5M2772.5 3009.5 2792.5 3009.5" stroke="#595959" stroke-width="3.4375" stroke-linejoin="round" stroke-miterlimit="10" fill="none"/></g><g clip-path="url(#clip6)"><path d="M3060.6 3061.6 3060.6 3138.5M3060.6 3061.6 3060.6 2985.5M3049.5 3138.5 3070.5 3138.5M3049.5 2985.5 3070.5 2985.5" stroke="#595959" stroke-width="3.4375" stroke-linejoin="round" stroke-miterlimit="10" fill="none"/></g><g clip-path="url(#clip7)"><path d="M3337.61 3027.6 3337.61 3056.5M3337.61 3027.6 3337.61 2998.5M3327.5 3056.5 3348.5 3056.5M3327.5 2998.5 3348.5 2998.5" stroke="#595959" stroke-width="3.4375" stroke-linejoin="round" stroke-miterlimit="10" fill="none"/></g><g clip-path="url(#clip8)"><path d="M3615.62 3004.6 3615.62 3052.5M3615.62 3004.6 3615.62 2955.5M3604.5 3052.5 3625.5 3052.5M3604.5 2955.5 3625.5 2955.5" stroke="#595959" stroke-width="3.4375" stroke-linejoin="round" stroke-miterlimit="10" fill="none"/></g><g clip-path="url(#clip9)"><path d="M2861.59 2919.6 2861.59 2941.5M2861.59 2919.6 2861.59 2897.5M2851.5 2941.5 2872.5 2941.5M2851.5 2897.5 2872.5 2897.5" stroke="#595959" stroke-width="3.4375" stroke-linejoin="round" stroke-miterlimit="10" fill="none"/></g><g clip-path="url(#clip10)"><path d="M3139.6 2906.6 3139.6 2925.5M3139.6 2906.6 3139.6 2887.5M3129.5 2925.5 3149.5 2925.5M3129.5 2887.5 3149.5 2887.5" stroke="#595959" stroke-width="3.4375" stroke-linejoin="round" stroke-miterlimit="10" fill="none"/></g><g clip-path="url(#clip11)"><path d="M3416.61 2905.6 3416.61 2925.5M3416.61 2905.6 3416.61 2885.5M3406.5 2925.5 3427.5 2925.5M3406.5 2885.5 3427.5 2885.5" stroke="#595959" stroke-width="3.4375" stroke-linejoin="round" stroke-miterlimit="10" fill="none"/></g><g clip-path="url(#clip12)"><path d="M3694.62 2902.6 3694.62 2936.5M3694.62 2902.6 3694.62 2869.5M3684.5 2936.5 3704.5 2936.5M3684.5 2869.5 3704.5 2869.5" stroke="#595959" stroke-width="3.4375" stroke-linejoin="round" stroke-miterlimit="10" fill="none"/></g><g clip-path="url(#clip13)"><path d="M2683.5 3451.5 3793.5 3451.5" stroke="#D9D9D9" stroke-width="3.4375" stroke-linejoin="round" stroke-miterlimit="10" fill="none" fill-rule="evenodd"/></g><g clip-path="url(#clip14)"><path d="M2822.5 2919.5 2824.59 2918.6 2827.59 2918.6 2829.59 2918.6 2832.59 2918.6 2835.59 2918.6 2837.59 2917.6 2840.59 2917.6 2842.59 2917.6 2845.59 2917.6 2848.59 2917.6 2850.59 2916.6 2853.59 2916.6 2855.59 2916.6 2858.59 2916.6 2860.59 2916.6 2863.59 2915.6 2866.59 2915.6 2868.59 2915.6 2871.59 2915.6 2873.59 2915.6 2876.59 2915.6 2879.59 2914.6 2881.59 2914.6 2884.59 2914.6 2886.59 2914.6 2889.59 2914.6 2892.59 2914.6 2894.6 2913.6 2897.6 2913.6 2899.6 2913.6 2902.6 2913.6 2904.6 2913.6 2907.6 2913.6 2910.6 2913.6 2912.6 2912.6 2915.6 2912.6 2917.6 2912.6 2920.6 2912.6 2923.6 2912.6 2925.6 2912.6 2928.6 2912.6 2930.6 2911.6 2933.6 2911.6 2935.6 2911.6 2938.6 2911.6 2941.6 2911.6 2943.6 2911.6 2946.6 2911.6 2948.6 2910.6 2951.6 2910.6 2954.6 2910.6 2956.6 2910.6 2959.6 2910.6 2961.6 2910.6 2964.6 2910.6 2967.6 2910.6 2969.6 2910.6 2972.6 2909.6 2974.6 2909.6 2977.6 2909.6 2979.6 2909.6 2982.6 2909.6 2985.6 2909.6 2987.6 2909.6 2990.6 2909.6 2992.6 2909.6 2995.6 2909.6 2998.6 2908.6 3000.6 2908.6 3003.6 2908.6 3005.6 2908.6 3008.6 2908.6 3010.6 2908.6 3013.6 2908.6 3016.6 2908.6 3018.6 2908.6 3021.6 2908.6 3023.6 2908.6 3026.6 2907.6 3029.6 2907.6 3031.6 2907.6 3034.6 2907.6 3036.6 2907.6 3039.6 2907.6 3042.6 2907.6 3044.6 2907.6 3047.6 2907.6 3049.6 2907.6 3052.6 2907.6 3054.6 2907.6 3057.6 2907.6 3060.6 2907.6 3062.6 2907.6 3065.6 2906.6 3067.6 2906.6 3070.6 2906.6 3073.6 2906.6 3075.6 2906.6 3078.6 2906.6 3080.6 2906.6 3083.6 2906.6 3085.6 2906.6 3088.6 2906.6 3091.6 2906.6 3093.6 2906.6 3096.6 2906.6 3098.6 2906.6 3101.6 2906.6 3104.6 2906.6 3106.6 2906.6 3109.6 2906.6 3111.6 2906.6 3114.6 2906.6 3116.6 2906.6 3119.6 2906.6 3122.6 2905.6 3124.6 2905.6 3127.6 2905.6 3129.6 2905.6 3132.6 2905.6 3135.6 2905.6 3137.6 2905.6 3140.6 2905.6 3142.6 2905.6 3145.6 2905.6 3148.6 2905.6 3150.6 2905.6 3153.6 2905.6 3155.6 2905.6 3158.6 2905.6 3160.6 2905.6 3163.6 2905.6 3166.6 2905.6 3168.6 2905.6 3171.6 2905.6 3173.6 2905.6 3176.6 2905.6 3179.6 2905.6 3181.6 2905.6 3184.6 2905.6 3186.6 2905.6 3189.6 2905.6 3191.6 2905.6 3194.6 2905.6 3197.6 2905.6 3199.6 2905.6 3202.61 2905.6 3204.61 2905.6 3207.61 2905.6 3210.61 2905.6 3212.61 2905.6 3215.61 2905.6 3217.61 2905.6 3220.61 2905.6 3223.61 2905.6 3225.61 2905.6 3228.61 2905.6 3230.61 2905.6 3233.61 2905.6 3235.61 2905.6 3238.61 2905.6 3241.61 2905.6 3243.61 2905.6 3246.61 2905.6 3248.61 2905.6 3251.61 2905.6 3254.61 2905.6 3256.61 2905.6 3259.61 2905.6 3261.61 2905.6 3266.61 2905.6 3269.61 2905.6 3272.61 2905.6 3274.61 2905.6 3277.61 2905.6 3279.61 2905.6 3282.61 2905.6 3285.61 2905.6 3287.61 2905.6 3290.61 2905.6 3292.61 2905.6 3295.61 2905.6 3297.61 2905.6 3300.61 2905.6 3303.61 2905.6 3305.61 2905.6 3308.61 2905.6 3310.61 2905.6 3313.61 2905.6 3316.61 2905.6 3318.61 2905.6 3321.61 2905.6 3323.61 2905.6 3326.61 2905.6 3329.61 2905.6 3331.61 2905.6 3334.61 2905.6 3336.61 2905.6 3339.61 2905.6 3341.61 2905.6 3344.61 2905.6 3347.61 2905.6 3349.61 2905.6 3352.61 2905.6 3354.61 2905.6 3357.61 2905.6 3360.61 2905.6 3362.61 2905.6 3365.61 2905.6 3367.61 2905.6 3370.61 2905.6 3372.61 2905.6 3375.61 2905.6 3378.61 2905.6 3380.61 2905.6 3383.61 2905.6 3385.61 2905.6 3388.61 2905.6 3391.61 2905.6 3393.61 2905.6 3396.61 2905.6 3398.61 2905.6 3401.61 2905.6 3404.61 2905.6 3406.61 2905.6 3409.61 2905.6 3411.61 2905.6 3414.61 2905.6 3416.61 2905.6 3419.61 2905.6 3422.61 2905.6 3424.61 2905.6 3427.61 2905.6 3429.61 2905.6 3432.61 2905.6 3435.61 2905.6 3437.61 2905.6 3440.61 2905.6 3442.61 2905.6 3445.61 2905.6 3447.61 2905.6 3450.61 2905.6 3453.61 2905.6 3455.61 2905.6 3458.61 2905.6 3460.61 2905.6 3463.61 2905.6 3466.61 2905.6 3468.61 2905.6 3471.61 2905.6 3473.61 2905.6 3476.61 2905.6 3478.61 2905.6 3481.61 2905.6 3484.61 2905.6 3486.61 2905.6 3489.61 2905.6 3491.61 2905.6 3494.61 2905.6 3497.61 2905.6 3499.61 2905.6 3502.61 2905.6 3504.62 2905.6 3507.62 2905.6 3510.62 2905.6 3512.62 2905.6 3515.62 2905.6 3517.62 2905.6 3520.62 2905.6 3522.62 2905.6 3525.62 2905.6 3528.62 2905.6 3530.62 2905.6 3533.62 2904.6 3535.62 2904.6 3538.62 2904.6 3541.62 2904.6 3543.62 2904.6 3546.62 2904.6 3548.62 2904.6 3551.62 2904.6 3553.62 2904.6 3556.62 2904.6 3559.62 2904.6 3561.62 2904.6 3564.62 2904.6 3566.62 2904.6 3569.62 2904.6 3572.62 2904.6 3574.62 2904.6 3577.62 2904.6 3579.62 2904.6 3582.62 2904.6 3585.62 2904.6 3587.62 2904.6 3590.62 2904.6 3592.62 2904.6 3595.62 2904.6 3597.62 2904.6 3600.62 2904.6 3603.62 2904.6 3605.62 2903.6 3608.62 2903.6 3610.62 2903.6 3613.62 2903.6 3616.62 2903.6 3618.62 2903.6 3621.62 2903.6 3623.62 2903.6 3626.62 2903.6 3628.62 2903.6 3631.62 2903.6 3634.62 2903.6 3636.62 2903.6 3639.62 2903.6 3641.62 2903.6 3644.62 2903.6 3647.62 2903.6 3649.62 2902.6 3652.62 2902.6 3654.5 2902.5" stroke="#ED7D31" stroke-width="6.875" stroke-linecap="round" stroke-linejoin="round" stroke-miterlimit="10" stroke-dasharray="0 13.75" fill="none"/></g><g clip-path="url(#clip15)"><text fill="#595959" font-family="Arial,Arial_MSFontService,sans-serif" font-weight="400" font-size="41" transform="matrix(1 0 0 1 2590.71 3465)">0.4</text></g><g clip-path="url(#clip16)"><text fill="#595959" font-family="Arial,Arial_MSFontService,sans-serif" font-weight="400" font-size="41" transform="matrix(1 0 0 1 2567.77 3403)">0.45</text></g><g clip-path="url(#clip17)"><text fill="#595959" font-family="Arial,Arial_MSFontService,sans-serif" font-weight="400" font-size="41" transform="matrix(1 0 0 1 2590.71 3341)">0.5</text></g><g clip-path="url(#clip18)"><text fill="#595959" font-family="Arial,Arial_MSFontService,sans-serif" font-weight="400" font-size="41" transform="matrix(1 0 0 1 2567.77 3278)">0.55</text></g><g clip-path="url(#clip19)"><text fill="#595959" font-family="Arial,Arial_MSFontService,sans-serif" font-weight="400" font-size="41" transform="matrix(1 0 0 1 2590.71 3216)">0.6</text></g><g clip-path="url(#clip20)"><text fill="#595959" font-family="Arial,Arial_MSFontService,sans-serif" font-weight="400" font-size="41" transform="matrix(1 0 0 1 2567.77 3154)">0.65</text></g><g clip-path="url(#clip21)"><text fill="#595959" font-family="Arial,Arial_MSFontService,sans-serif" font-weight="400" font-size="41" transform="matrix(1 0 0 1 2590.71 3092)">0.7</text></g><g clip-path="url(#clip22)"><text fill="#595959" font-family="Arial,Arial_MSFontService,sans-serif" font-weight="400" font-size="41" transform="matrix(1 0 0 1 2567.77 3030)">0.75</text></g><g clip-path="url(#clip23)"><text fill="#595959" font-family="Arial,Arial_MSFontService,sans-serif" font-weight="400" font-size="41" transform="matrix(1 0 0 1 2590.71 2968)">0.8</text></g><g clip-path="url(#clip24)"><text fill="#595959" font-family="Arial,Arial_MSFontService,sans-serif" font-weight="400" font-size="41" transform="matrix(1 0 0 1 2567.77 2906)">0.85</text></g><g clip-path="url(#clip25)"><text fill="#595959" font-family="Arial,Arial_MSFontService,sans-serif" font-weight="400" font-size="41" transform="matrix(1 0 0 1 2590.71 2844)">0.9</text></g><g clip-path="url(#clip26)"><text fill="#595959" font-family="Arial,Arial_MSFontService,sans-serif" font-weight="400" font-size="41" transform="matrix(1 0 0 1 2799.36 3514)">10</text></g><g clip-path="url(#clip27)"><text fill="#595959" font-family="Arial,Arial_MSFontService,sans-serif" font-weight="400" font-size="41" transform="matrix(1 0 0 1 3076.91 3514)">15</text></g><g clip-path="url(#clip28)"><text fill="#595959" font-family="Arial,Arial_MSFontService,sans-serif" font-weight="400" font-size="41" transform="matrix(1 0 0 1 3354.46 3514)">25</text></g><g clip-path="url(#clip29)"><text fill="#595959" font-family="Arial,Arial_MSFontService,sans-serif" font-weight="400" font-size="41" transform="matrix(1 0 0 1 3632.01 3514)">50</text></g><g clip-path="url(#clip30)"><text fill="#595959" font-family="Arial,Arial_MSFontService,sans-serif" font-weight="400" font-size="46" transform="matrix(6.12323e-17 -1 1 6.12323e-17 2544.31 3382)">Spearman’s Correlation</text></g><g clip-path="url(#clip31)"><text fill="#595959" font-family="Arial,Arial_MSFontService,sans-serif" font-weight="400" font-size="46" transform="matrix(1 0 0 1 2938.05 3580)">Kernal lengthscale upper limit</text></g><g clip-path="url(#clip32)"><text fill="#595959" font-family="Arial,Arial_MSFontService,sans-serif" font-weight="400" font-size="64" transform="matrix(1 0 0 1 3088.45 2760)">Train Scores</text></g><g clip-path="url(#clip33)"><rect x="3865" y="3167" width="21" height="21" fill="#4472C4"/></g><g clip-path="url(#clip34)"><text fill="#595959" font-family="Arial,Arial_MSFontService,sans-serif" font-weight="400" font-size="41" transform="matrix(1 0 0 1 3894.19 3190)">Model H</text></g><g clip-path="url(#clip35)"><rect x="3865" y="3240" width="21" height="21.0002" fill="#ED7D31"/></g><g clip-path="url(#clip36)"><text fill="#595959" font-family="Arial,Arial_MSFontService,sans-serif" font-weight="400" font-size="41" transform="matrix(1 0 0 1 3894.19 3263)">Model A</text></g><rect x="4091" y="2666" width="1647" height="982" fill="#FFFFFF"/><g clip-path="url(#clip37)"><path d="M4330.5 3440.61 5438.5 3440.61M4330.5 3427.61 5438.5 3427.61M4330.5 3415.61 5438.5 3415.61M4330.5 3403.61 5438.5 3403.61M4330.5 3378.61 5438.5 3378.61M4330.5 3365.61 5438.5 3365.61M4330.5 3353.61 5438.5 3353.61M4330.5 3340.61 5438.5 3340.61M4330.5 3315.61 5438.5 3315.61M4330.5 3303.61 5438.5 3303.61M4330.5 3291.61 5438.5 3291.61M4330.5 3278.61 5438.5 3278.61M4330.5 3253.61 5438.5 3253.61M4330.5 3241.61 5438.5 3241.61M4330.5 3228.61 5438.5 3228.61M4330.5 3216.61 5438.5 3216.61M4330.5 3191.6 5438.5 3191.6M4330.5 3179.6 5438.5 3179.6M4330.5 3166.6 5438.5 3166.6M4330.5 3154.6 5438.5 3154.6M4330.5 3129.6 5438.5 3129.6M4330.5 3117.6 5438.5 3117.6M4330.5 3104.6 5438.5 3104.6M4330.5 3092.6 5438.5 3092.6M4330.5 3067.6 5438.5 3067.6M4330.5 3054.6 5438.5 3054.6M4330.5 3042.6 5438.5 3042.6M4330.5 3029.6 5438.5 3029.6M4330.5 3005.6 5438.5 3005.6M4330.5 2992.6 5438.5 2992.6M4330.5 2980.6 5438.5 2980.6M4330.5 2967.6 5438.5 2967.6M4330.5 2942.6 5438.5 2942.6M4330.5 2930.6 5438.5 2930.6M4330.5 2918.6 5438.5 2918.6M4330.5 2905.6 5438.5 2905.6M4330.5 2880.59 5438.5 2880.59M4330.5 2868.59 5438.5 2868.59M4330.5 2855.59 5438.5 2855.59M4330.5 2843.59 5438.5 2843.59" stroke="#F2F2F2" stroke-width="3.4375" stroke-linejoin="round" stroke-miterlimit="10" fill="none"/></g><g clip-path="url(#clip38)"><path d="M4330.5 3390.61 5438.5 3390.61M4330.5 3328.61 5438.5 3328.61M4330.5 3266.61 5438.5 3266.61M4330.5 3204.61 5438.5 3204.61M4330.5 3141.6 5438.5 3141.6M4330.5 3079.6 5438.5 3079.6M4330.5 3017.6 5438.5 3017.6M4330.5 2955.6 5438.5 2955.6M4330.5 2893.6 5438.5 2893.6M4330.5 2831.5 5438.5 2831.5" stroke="#D9D9D9" stroke-width="3.4375" stroke-linejoin="round" stroke-miterlimit="10" fill="none"/></g><g clip-path="url(#clip39)"><path d="M4390.14 3181.1 4469.15 3181.1 4469.15 3453 4390.14 3453ZM4666.15 3145.1 4746.16 3145.1 4746.16 3453 4666.15 3453ZM4943.16 3181.1 5022.17 3181.1 5022.17 3453 4943.16 3453ZM5220.17 3163.1 5299.17 3163.1 5299.17 3453 5220.17 3453Z" fill="#4472C4"/></g><g clip-path="url(#clip40)"><path d="M4469.15 3012.1 4548.15 3012.1 4548.15 3453 4469.15 3453ZM4746.16 2989.1 4825.16 2989.1 4825.16 3453 4746.16 3453ZM5022.17 3025.1 5102.17 3025.1 5102.17 3453 5022.17 3453ZM5299.17 3025.1 5379.18 3025.1 5379.18 3453 5299.17 3453Z" fill="#ED7D31"/></g><g clip-path="url(#clip41)"><path d="M4429.65 3181.6 4429.65 3314.5M4429.65 3181.6 4429.65 3048.5M4418.5 3314.5 4439.5 3314.5M4418.5 3048.5 4439.5 3048.5" stroke="#595959" stroke-width="3.4375" stroke-linejoin="round" stroke-miterlimit="10" fill="none"/></g><g clip-path="url(#clip42)"><path d="M4706.65 3145.6 4706.65 3303.5M4706.65 3145.6 4706.65 2987.5M4695.5 3303.5 4716.5 3303.5M4695.5 2987.5 4716.5 2987.5" stroke="#595959" stroke-width="3.4375" stroke-linejoin="round" stroke-miterlimit="10" fill="none"/></g><g clip-path="url(#clip43)"><path d="M4982.66 3181.6 4982.66 3337.5M4982.66 3181.6 4982.66 3025.5M4972.5 3337.5 4993.5 3337.5M4972.5 3025.5 4993.5 3025.5" stroke="#595959" stroke-width="3.4375" stroke-linejoin="round" stroke-miterlimit="10" fill="none"/></g><g clip-path="url(#clip44)"><path d="M5259.67 3163.6 5259.67 3336.5M5259.67 3163.6 5259.67 2990.5M5249.5 3336.5 5270.5 3336.5M5249.5 2990.5 5270.5 2990.5" stroke="#595959" stroke-width="3.4375" stroke-linejoin="round" stroke-miterlimit="10" fill="none"/></g><g clip-path="url(#clip45)"><path d="M4508.65 3011.6 4508.65 3115.5M4508.65 3011.6 4508.65 2908.5M4498.5 3115.5 4518.5 3115.5M4498.5 2908.5 4518.5 2908.5" stroke="#595959" stroke-width="3.4375" stroke-linejoin="round" stroke-miterlimit="10" fill="none"/></g><g clip-path="url(#clip46)"><path d="M4785.66 2989.6 4785.66 3092.5M4785.66 2989.6 4785.66 2885.5M4774.5 3092.5 4795.5 3092.5M4774.5 2885.5 4795.5 2885.5" stroke="#595959" stroke-width="3.4375" stroke-linejoin="round" stroke-miterlimit="10" fill="none"/></g><g clip-path="url(#clip47)"><path d="M5062.67 3025.6 5062.67 3073.5M5062.67 3025.6 5062.67 2976.5M5051.5 3073.5 5072.5 3073.5M5051.5 2976.5 5072.5 2976.5" stroke="#595959" stroke-width="3.4375" stroke-linejoin="round" stroke-miterlimit="10" fill="none"/></g><g clip-path="url(#clip48)"><path d="M5338.68 3025.6 5338.68 3056.5M5338.68 3025.6 5338.68 2993.5M5328.5 3056.5 5349.5 3056.5M5328.5 2993.5 5349.5 2993.5" stroke="#595959" stroke-width="3.4375" stroke-linejoin="round" stroke-miterlimit="10" fill="none"/></g><g clip-path="url(#clip49)"><path d="M4330.5 3452.5 5438.5 3452.5" stroke="#D9D9D9" stroke-width="3.4375" stroke-linejoin="round" stroke-miterlimit="10" fill="none" fill-rule="evenodd"/></g><g clip-path="url(#clip50)"><path d="M4468.5 3011.6 4471.65 3010.6 4473.65 3010.6 4476.65 3009.6 4478.65 3008.6 4481.65 3007.6 4484.65 3007.6 4486.65 3006.6 4489.65 3005.6 4491.65 3005.6 4494.65 3004.6 4497.65 3003.6 4499.65 3003.6 4502.65 3002.6 4504.65 3002.6 4507.65 3001.6 4509.65 3000.6 4512.65 3000.6 4515.65 2999.6 4517.65 2999.6 4520.65 2998.6 4522.65 2998.6 4525.65 2997.6 4528.65 2997.6 4530.65 2996.6 4533.65 2996.6 4535.65 2995.6 4538.65 2995.6 4540.65 2994.6 4543.65 2994.6 4546.65 2994.6 4548.65 2993.6 4551.65 2993.6 4553.65 2992.6 4556.65 2992.6 4558.65 2992.6 4561.65 2991.6 4564.65 2991.6 4566.65 2991.6 4569.65 2990.6 4571.65 2990.6 4574.65 2990.6 4577.65 2989.6 4579.65 2989.6 4582.65 2989.6 4584.65 2989.6 4587.65 2988.6 4589.65 2988.6 4592.65 2988.6 4595.65 2988.6 4597.65 2987.6 4600.65 2987.6 4602.65 2987.6 4605.65 2987.6 4607.65 2987.6 4610.65 2987.6 4613.65 2986.6 4615.65 2986.6 4618.65 2986.6 4620.65 2986.6 4623.65 2986.6 4626.65 2986.6 4628.65 2986.6 4631.65 2986.6 4633.65 2985.6 4636.65 2985.6 4638.65 2985.6 4641.65 2985.6 4644.65 2985.6 4646.65 2985.6 4649.65 2985.6 4651.65 2985.6 4654.65 2985.6 4656.65 2985.6 4659.65 2985.5 4662.65 2985.6 4664.65 2985.6 4667.65 2985.6 4669.65 2985.6 4672.65 2985.6 4675.65 2985.6 4677.65 2985.6 4680.65 2985.6 4682.65 2985.6 4685.65 2985.6 4687.65 2985.6 4690.65 2986.6 4693.65 2986.6 4695.65 2986.6 4698.65 2986.6 4700.65 2986.6 4703.65 2986.6 4706.65 2986.6 4708.65 2986.6 4711.65 2986.6 4713.65 2987.6 4716.65 2987.6 4718.66 2987.6 4721.66 2987.6 4724.66 2987.6 4726.66 2987.6 4729.66 2987.6 4731.66 2988.6 4734.66 2988.6 4736.66 2988.6 4739.66 2988.6 4742.66 2988.6 4744.66 2989.6 4747.66 2989.6 4749.66 2989.6 4752.66 2989.6 4755.66 2990.6 4757.66 2990.6 4760.66 2990.6 4762.66 2990.6 4765.66 2990.6 4767.66 2991.6 4770.66 2991.6 4773.66 2991.6 4775.66 2991.6 4778.66 2992.6 4780.66 2992.6 4783.66 2992.6 4785.66 2993.6 4788.66 2993.6 4791.66 2993.6 4793.66 2993.6 4796.66 2994.6 4798.66 2994.6 4801.66 2994.6 4804.66 2995.6 4806.66 2995.6 4809.66 2995.6 4811.66 2996.6 4814.66 2996.6 4816.66 2996.6 4819.66 2996.6 4822.66 2997.6 4824.66 2997.6 4827.66 2997.6 4829.66 2998.6 4832.66 2998.6 4835.66 2998.6 4837.66 2999.6 4840.66 2999.6 4842.66 2999.6 4845.66 3000.6 4847.66 3000.6 4850.66 3001.6 4853.66 3001.6 4855.66 3001.6 4858.66 3002.6 4860.66 3002.6 4863.66 3002.6 4865.66 3003.6 4868.66 3003.6 4871.66 3003.6 4873.66 3004.6 4876.66 3004.6 4878.66 3004.6 4881.66 3005.6 4884.66 3005.6 4886.66 3006.6 4889.66 3006.6 4891.66 3006.6 4894.66 3007.6 4896.66 3007.6 4899.66 3007.6 4902.66 3008.6 4904.66 3008.6 4907.66 3009.6 4909.66 3009.6 4912.66 3009.6 4914.66 3010.6 4917.66 3010.6 4920.66 3010.6 4922.66 3011.6 4925.66 3011.6 4927.66 3012.6 4930.66 3012.6 4933.66 3012.6 4935.66 3013.6 4938.66 3013.6 4940.66 3013.6 4943.66 3014.6 4945.66 3014.6 4948.66 3015.6 4951.66 3015.6 4953.66 3015.6 4956.66 3016.6 4958.66 3016.6 4961.66 3016.6 4964.66 3017.6 4966.66 3017.6 4969.66 3018.6 4971.66 3018.6 4974.66 3018.6 4976.66 3019.6 4979.66 3019.6 4982.66 3019.6 4984.66 3020.6 4987.66 3020.6 4989.66 3020.6 4992.66 3021.6 4994.66 3021.6 4997.66 3021.6 5000.66 3022.6 5002.66 3022.6 5005.66 3022.6 5007.66 3023.6 5010.66 3023.6 5013.66 3023.6 5015.67 3024.6 5018.67 3024.6 5020.67 3024.6 5023.67 3025.6 5025.67 3025.6 5028.67 3025.6 5031.67 3026.6 5033.67 3026.6 5036.67 3026.6 5038.67 3026.6 5041.67 3027.6 5043.67 3027.6 5046.67 3027.6 5049.67 3028.6 5051.67 3028.6 5054.67 3028.6 5056.67 3028.6 5059.67 3029.6 5062.67 3029.6 5064.67 3029.6 5067.67 3029.6 5069.67 3030.6 5072.67 3030.6 5074.67 3030.6 5077.67 3030.6 5080.67 3031.6 5082.67 3031.6 5085.67 3031.6 5087.67 3031.6 5090.67 3031.6 5093.67 3032.6 5095.67 3032.6 5098.67 3032.6 5100.67 3032.6 5103.67 3032.6 5105.67 3033.6 5108.67 3033.6 5111.67 3033.6 5113.67 3033.6 5116.67 3033.6 5118.67 3033.6 5121.67 3034.6 5123.67 3034.6 5126.67 3034.6 5129.67 3034.6 5131.67 3034.6 5134.67 3034.6 5136.67 3034.6 5139.67 3034.6 5142.67 3034.6 5144.67 3035.6 5147.67 3035.6 5149.67 3035.6 5152.67 3035.6 5154.67 3035.6 5157.67 3035.6 5160.67 3035.6 5162.67 3035.6 5165.67 3035.6 5167.67 3035.6 5170.67 3035.6 5172.67 3035.5 5175.67 3035.6 5178.67 3035.6 5180.67 3035.6 5183.67 3035.6 5185.67 3035.6 5188.67 3035.6 5191.67 3035.6 5193.67 3035.6 5196.67 3035.6 5198.67 3035.6 5201.67 3035.6 5203.67 3034.6 5206.67 3034.6 5209.67 3034.6 5211.67 3034.6 5214.67 3034.6 5216.67 3034.6 5219.67 3034.6 5221.67 3034.6 5224.67 3033.6 5227.67 3033.6 5229.67 3033.6 5232.67 3033.6 5234.67 3033.6 5237.67 3033.6 5240.67 3032.6 5242.67 3032.6 5245.67 3032.6 5247.67 3032.6 5250.67 3031.6 5252.67 3031.6 5255.67 3031.6 5258.67 3031.6 5260.67 3030.6 5263.67 3030.6 5265.67 3030.6 5268.67 3029.6 5271.67 3029.6 5273.67 3029.6 5276.67 3028.6 5278.67 3028.6 5281.67 3028.6 5283.67 3027.6 5286.67 3027.6 5289.67 3026.6 5291.67 3026.6 5294.67 3025.6 5296.67 3025.6 5299.5 3025.6" stroke="#ED7D31" stroke-width="6.875" stroke-linecap="round" stroke-linejoin="round" stroke-miterlimit="10" stroke-dasharray="0 13.75" fill="none"/></g><g clip-path="url(#clip51)"><text fill="#595959" font-family="Arial,Arial_MSFontService,sans-serif" font-weight="400" font-size="41" transform="matrix(1 0 0 1 4237.54 3466)">0.4</text></g><g clip-path="url(#clip52)"><text fill="#595959" font-family="Arial,Arial_MSFontService,sans-serif" font-weight="400" font-size="41" transform="matrix(1 0 0 1 4214.6 3403)">0.45</text></g><g clip-path="url(#clip53)"><text fill="#595959" font-family="Arial,Arial_MSFontService,sans-serif" font-weight="400" font-size="41" transform="matrix(1 0 0 1 4237.54 3341)">0.5</text></g><g clip-path="url(#clip54)"><text fill="#595959" font-family="Arial,Arial_MSFontService,sans-serif" font-weight="400" font-size="41" transform="matrix(1 0 0 1 4214.6 3279)">0.55</text></g><g clip-path="url(#clip55)"><text fill="#595959" font-family="Arial,Arial_MSFontService,sans-serif" font-weight="400" font-size="41" transform="matrix(1 0 0 1 4237.54 3217)">0.6</text></g><g clip-path="url(#clip56)"><text fill="#595959" font-family="Arial,Arial_MSFontService,sans-serif" font-weight="400" font-size="41" transform="matrix(1 0 0 1 4214.6 3155)">0.65</text></g><g clip-path="url(#clip57)"><text fill="#595959" font-family="Arial,Arial_MSFontService,sans-serif" font-weight="400" font-size="41" transform="matrix(1 0 0 1 4237.54 3093)">0.7</text></g><g clip-path="url(#clip58)"><text fill="#595959" font-family="Arial,Arial_MSFontService,sans-serif" font-weight="400" font-size="41" transform="matrix(1 0 0 1 4214.6 3030)">0.75</text></g><g clip-path="url(#clip59)"><text fill="#595959" font-family="Arial,Arial_MSFontService,sans-serif" font-weight="400" font-size="41" transform="matrix(1 0 0 1 4237.54 2968)">0.8</text></g><g clip-path="url(#clip60)"><text fill="#595959" font-family="Arial,Arial_MSFontService,sans-serif" font-weight="400" font-size="41" transform="matrix(1 0 0 1 4214.6 2906)">0.85</text></g><g clip-path="url(#clip61)"><text fill="#595959" font-family="Arial,Arial_MSFontService,sans-serif" font-weight="400" font-size="41" transform="matrix(1 0 0 1 4237.54 2844)">0.9</text></g><g clip-path="url(#clip62)"><text fill="#595959" font-family="Arial,Arial_MSFontService,sans-serif" font-weight="400" font-size="41" transform="matrix(1 0 0 1 4445.87 3515)">10</text></g><g clip-path="url(#clip63)"><text fill="#595959" font-family="Arial,Arial_MSFontService,sans-serif" font-weight="400" font-size="41" transform="matrix(1 0 0 1 4722.79 3515)">15</text></g><g clip-path="url(#clip64)"><text fill="#595959" font-family="Arial,Arial_MSFontService,sans-serif" font-weight="400" font-size="41" transform="matrix(1 0 0 1 4999.71 3515)">25</text></g><g clip-path="url(#clip65)"><text fill="#595959" font-family="Arial,Arial_MSFontService,sans-serif" font-weight="400" font-size="41" transform="matrix(1 0 0 1 5276.63 3515)">50</text></g><g clip-path="url(#clip66)"><text fill="#595959" font-family="Arial,Arial_MSFontService,sans-serif" font-weight="400" font-size="46" transform="matrix(6.12323e-17 -1 1 6.12323e-17 4191.14 3383)">Spearman’s Correlation</text></g><g clip-path="url(#clip67)"><text fill="#595959" font-family="Arial,Arial_MSFontService,sans-serif" font-weight="400" font-size="46" transform="matrix(1 0 0 1 4583.61 3581)">Kernal lengthscale upper limit</text></g><g clip-path="url(#clip68)"><text fill="#595959" font-family="Arial,Arial_MSFontService,sans-serif" font-weight="400" font-size="64" transform="matrix(1 0 0 1 4747.07 2760)">Test Scores</text></g><g clip-path="url(#clip69)"><rect x="5509" y="3167" width="21" height="21" fill="#4472C4"/></g><g clip-path="url(#clip70)"><text fill="#595959" font-family="Arial,Arial_MSFontService,sans-serif" font-weight="400" font-size="41" transform="matrix(1 0 0 1 5538.49 3190)">Model H</text></g><g clip-path="url(#clip71)"><rect x="5509" y="3240" width="21" height="21.0002" fill="#ED7D31"/></g><g clip-path="url(#clip72)"><text fill="#595959" font-family="Arial,Arial_MSFontService,sans-serif" font-weight="400" font-size="41" transform="matrix(1 0 0 1 5538.49 3263)">Model A</text></g></g></svg>