<?xml version="1.0" encoding="UTF-8" standalone="no"?>
<!-- Created with Inkscape (http://www.inkscape.org/) -->

<svg
   width="871.53748mm"
   height="259.82086mm"
   viewBox="0 0 871.53748 259.82086"
   version="1.1"
   id="svg5"
   xml:space="preserve"
   xmlns:inkscape="http://www.inkscape.org/namespaces/inkscape"
   xmlns:sodipodi="http://sodipodi.sourceforge.net/DTD/sodipodi-0.dtd"
   xmlns="http://www.w3.org/2000/svg"
   xmlns:svg="http://www.w3.org/2000/svg"><sodipodi:namedview
     id="namedview7"
     pagecolor="#ffffff"
     bordercolor="#000000"
     borderopacity="0.25"
     inkscape:showpageshadow="2"
     inkscape:pageopacity="0.0"
     inkscape:pagecheckerboard="0"
     inkscape:deskcolor="#d1d1d1"
     inkscape:document-units="mm"
     showgrid="false" /><defs
     id="defs2"><style
       type="text/css"
       id="style11">*{stroke-linejoin: round; stroke-linecap: butt}</style><style
       type="text/css"
       id="style1719">*{stroke-linejoin: round; stroke-linecap: butt}</style><clipPath
       id="clip0-0"><rect
         x="2444"
         y="2666"
         width="3294"
         height="982"
         id="rect35015" /></clipPath><clipPath
       id="clip1-0"><rect
         x="2444"
         y="2665"
         width="1650"
         height="981"
         id="rect35018" /></clipPath><clipPath
       id="clip2-40"><rect
         x="2444"
         y="2665"
         width="1650"
         height="981"
         id="rect35021" /></clipPath><clipPath
       id="clip3-3"><rect
         x="2683"
         y="2831"
         width="1114"
         height="624"
         id="rect35024" /></clipPath><clipPath
       id="clip4-5"><rect
         x="2683"
         y="2831"
         width="1114"
         height="624"
         id="rect35027" /></clipPath><clipPath
       id="clip5-4"><rect
         x="2683"
         y="2831"
         width="1114"
         height="620"
         id="rect35030" /></clipPath><clipPath
       id="clip6-9"><rect
         x="2683"
         y="2831"
         width="1114"
         height="620"
         id="rect35033" /></clipPath><clipPath
       id="clip7-7"><rect
         x="2683"
         y="2831"
         width="1114"
         height="620"
         id="rect35036" /></clipPath><clipPath
       id="clip8-5"><rect
         x="2683"
         y="2831"
         width="1114"
         height="620"
         id="rect35039" /></clipPath><clipPath
       id="clip9-6"><rect
         x="2683"
         y="2831"
         width="1114"
         height="620"
         id="rect35042" /></clipPath><clipPath
       id="clip10-9"><rect
         x="2683"
         y="2831"
         width="1114"
         height="620"
         id="rect35045" /></clipPath><clipPath
       id="clip11-4"><rect
         x="2683"
         y="2831"
         width="1114"
         height="620"
         id="rect35048" /></clipPath><clipPath
       id="clip12-4"><rect
         x="2683"
         y="2831"
         width="1114"
         height="620"
         id="rect35051" /></clipPath><clipPath
       id="clip13-73"><rect
         x="2444"
         y="2665"
         width="1650"
         height="981"
         id="rect35054" /></clipPath><clipPath
       id="clip14-0"><rect
         x="2683"
         y="2831"
         width="1110"
         height="620"
         id="rect35057" /></clipPath><clipPath
       id="clip15-4"><rect
         x="2444"
         y="2665"
         width="1650"
         height="981"
         id="rect35060" /></clipPath><clipPath
       id="clip16-54"><rect
         x="2444"
         y="2665"
         width="1650"
         height="981"
         id="rect35063" /></clipPath><clipPath
       id="clip17-4"><rect
         x="2444"
         y="2665"
         width="1650"
         height="981"
         id="rect35066" /></clipPath><clipPath
       id="clip18-27"><rect
         x="2444"
         y="2665"
         width="1650"
         height="981"
         id="rect35069" /></clipPath><clipPath
       id="clip19-0"><rect
         x="2444"
         y="2665"
         width="1650"
         height="981"
         id="rect35072" /></clipPath><clipPath
       id="clip20-9"><rect
         x="2444"
         y="2665"
         width="1650"
         height="981"
         id="rect35075" /></clipPath><clipPath
       id="clip21-5"><rect
         x="2444"
         y="2665"
         width="1650"
         height="981"
         id="rect35078" /></clipPath><clipPath
       id="clip22-58"><rect
         x="2444"
         y="2665"
         width="1650"
         height="981"
         id="rect35081" /></clipPath><clipPath
       id="clip23-4"><rect
         x="2444"
         y="2665"
         width="1650"
         height="981"
         id="rect35084" /></clipPath><clipPath
       id="clip24-16"><rect
         x="2444"
         y="2665"
         width="1650"
         height="981"
         id="rect35087" /></clipPath><clipPath
       id="clip25-3"><rect
         x="2444"
         y="2665"
         width="1650"
         height="981"
         id="rect35090" /></clipPath><clipPath
       id="clip26-8"><rect
         x="2444"
         y="2665"
         width="1650"
         height="981"
         id="rect35093" /></clipPath><clipPath
       id="clip27-0"><rect
         x="2444"
         y="2665"
         width="1650"
         height="981"
         id="rect35096" /></clipPath><clipPath
       id="clip28-2"><rect
         x="2444"
         y="2665"
         width="1650"
         height="981"
         id="rect35099" /></clipPath><clipPath
       id="clip29-4"><rect
         x="2444"
         y="2665"
         width="1650"
         height="981"
         id="rect35102" /></clipPath><clipPath
       id="clip30-7"><rect
         x="2444"
         y="2665"
         width="1650"
         height="981"
         id="rect35105" /></clipPath><clipPath
       id="clip31-9"><rect
         x="2444"
         y="2665"
         width="1650"
         height="981"
         id="rect35108" /></clipPath><clipPath
       id="clip32-8"><rect
         x="2444"
         y="2665"
         width="1650"
         height="981"
         id="rect35111" /></clipPath><clipPath
       id="clip33-5"><rect
         x="2444"
         y="2665"
         width="1650"
         height="981"
         id="rect35114" /></clipPath><clipPath
       id="clip34-9"><rect
         x="2444"
         y="2665"
         width="1650"
         height="981"
         id="rect35117" /></clipPath><clipPath
       id="clip35-97"><rect
         x="2444"
         y="2665"
         width="1650"
         height="981"
         id="rect35120" /></clipPath><clipPath
       id="clip36-39"><rect
         x="2444"
         y="2665"
         width="1650"
         height="981"
         id="rect35123" /></clipPath><clipPath
       id="clip37-2"><rect
         x="4090"
         y="2665"
         width="1648"
         height="982"
         id="rect35126" /></clipPath><clipPath
       id="clip38-9"><rect
         x="4090"
         y="2665"
         width="1648"
         height="982"
         id="rect35129" /></clipPath><clipPath
       id="clip39-14"><rect
         x="4330"
         y="2831"
         width="1111"
         height="625"
         id="rect35132" /></clipPath><clipPath
       id="clip40-6"><rect
         x="4330"
         y="2831"
         width="1111"
         height="625"
         id="rect35135" /></clipPath><clipPath
       id="clip41-8"><rect
         x="4330"
         y="2831"
         width="1111"
         height="621"
         id="rect35138" /></clipPath><clipPath
       id="clip42-96"><rect
         x="4330"
         y="2831"
         width="1111"
         height="621"
         id="rect35141" /></clipPath><clipPath
       id="clip43-97"><rect
         x="4330"
         y="2831"
         width="1111"
         height="621"
         id="rect35144" /></clipPath><clipPath
       id="clip44-6"><rect
         x="4330"
         y="2831"
         width="1111"
         height="621"
         id="rect35147" /></clipPath><clipPath
       id="clip45-6"><rect
         x="4330"
         y="2831"
         width="1111"
         height="621"
         id="rect35150" /></clipPath><clipPath
       id="clip46-0"><rect
         x="4330"
         y="2831"
         width="1111"
         height="621"
         id="rect35153" /></clipPath><clipPath
       id="clip47-3"><rect
         x="4330"
         y="2831"
         width="1111"
         height="621"
         id="rect35156" /></clipPath><clipPath
       id="clip48-6"><rect
         x="4330"
         y="2831"
         width="1111"
         height="621"
         id="rect35159" /></clipPath><clipPath
       id="clip49-88"><rect
         x="4090"
         y="2665"
         width="1648"
         height="982"
         id="rect35162" /></clipPath><clipPath
       id="clip50-7"><rect
         x="4330"
         y="2831"
         width="1108"
         height="621"
         id="rect35165" /></clipPath><clipPath
       id="clip51-9"><rect
         x="4090"
         y="2665"
         width="1648"
         height="982"
         id="rect35168" /></clipPath><clipPath
       id="clip52-6"><rect
         x="4090"
         y="2665"
         width="1648"
         height="982"
         id="rect35171" /></clipPath><clipPath
       id="clip53-82"><rect
         x="4090"
         y="2665"
         width="1648"
         height="982"
         id="rect35174" /></clipPath><clipPath
       id="clip54-47"><rect
         x="4090"
         y="2665"
         width="1648"
         height="982"
         id="rect35177" /></clipPath><clipPath
       id="clip55-55"><rect
         x="4090"
         y="2665"
         width="1648"
         height="982"
         id="rect35180" /></clipPath><clipPath
       id="clip56-01"><rect
         x="4090"
         y="2665"
         width="1648"
         height="982"
         id="rect35183" /></clipPath><clipPath
       id="clip57-6"><rect
         x="4090"
         y="2665"
         width="1648"
         height="982"
         id="rect35186" /></clipPath><clipPath
       id="clip58-4"><rect
         x="4090"
         y="2665"
         width="1648"
         height="982"
         id="rect35189" /></clipPath><clipPath
       id="clip59-9"><rect
         x="4090"
         y="2665"
         width="1648"
         height="982"
         id="rect35192" /></clipPath><clipPath
       id="clip60-0"><rect
         x="4090"
         y="2665"
         width="1648"
         height="982"
         id="rect35195" /></clipPath><clipPath
       id="clip61-4"><rect
         x="4090"
         y="2665"
         width="1648"
         height="982"
         id="rect35198" /></clipPath><clipPath
       id="clip62-4"><rect
         x="4090"
         y="2665"
         width="1648"
         height="982"
         id="rect35201" /></clipPath><clipPath
       id="clip63-1"><rect
         x="4090"
         y="2665"
         width="1648"
         height="982"
         id="rect35204" /></clipPath><clipPath
       id="clip64-4"><rect
         x="4090"
         y="2665"
         width="1648"
         height="982"
         id="rect35207" /></clipPath><clipPath
       id="clip65-5"><rect
         x="4090"
         y="2665"
         width="1648"
         height="982"
         id="rect35210" /></clipPath><clipPath
       id="clip66-4"><rect
         x="4090"
         y="2665"
         width="1648"
         height="982"
         id="rect35213" /></clipPath><clipPath
       id="clip67-0"><rect
         x="4090"
         y="2665"
         width="1648"
         height="982"
         id="rect35216" /></clipPath><clipPath
       id="clip68-9"><rect
         x="4090"
         y="2665"
         width="1648"
         height="982"
         id="rect35219" /></clipPath><clipPath
       id="clip69-2"><rect
         x="4090"
         y="2665"
         width="1648"
         height="982"
         id="rect35222" /></clipPath><clipPath
       id="clip70-1"><rect
         x="4090"
         y="2665"
         width="1648"
         height="982"
         id="rect35225" /></clipPath><clipPath
       id="clip71-4"><rect
         x="4090"
         y="2665"
         width="1648"
         height="982"
         id="rect35228" /></clipPath><clipPath
       id="clip72-7"><rect
         x="4090"
         y="2665"
         width="1648"
         height="982"
         id="rect35231" /></clipPath></defs><g
     clip-path="url(#clip0-0)"
     transform="matrix(0.26458333,0,0,0.26458334,-646.6418,-705.37918)"
     id="g35528"><rect
       x="2444"
       y="2666"
       width="1650"
       height="981"
       fill="#ffffff"
       id="rect35236" /><g
       clip-path="url(#clip1-0)"
       id="g35240"><path
         d="m 2683.5,3439.61 h 1110 m -1110,-13 h 1110 m -1110,-12 h 1110 m -1110,-12 h 1110 m -1110,-25 h 1110 m -1110,-13 h 1110 m -1110,-12 h 1110 m -1110,-12 h 1110 m -1110,-25 h 1110 m -1110,-13 h 1110 m -1110,-12 h 1110 m -1110,-12 h 1110 m -1110,-25 h 1110 m -1110,-13 h 1110 m -1110,-12 h 1110 m -1110,-13 h 1110 m -1110,-24.01 h 1110 m -1110,-13 h 1110 m -1110,-12 h 1110 m -1110,-13 h 1110 m -1110,-24 h 1110 m -1110,-13 h 1110 m -1110,-12 h 1110 m -1110,-13 h 1110 m -1110,-24 h 1110 m -1110,-13 h 1110 m -1110,-12 h 1110 m -1110,-13 h 1110 m -1110,-25 h 1110 m -1110,-12 h 1110 m -1110,-12 h 1110 m -1110,-13 h 1110 m -1110,-25 h 1110 m -1110,-12 h 1110 m -1110,-12 h 1110 m -1110,-13 h 1110 m -1110,-25.01 h 1110 m -1110,-12 h 1110 m -1110,-12 h 1110 m -1110,-13 h 1110"
         stroke="#f2f2f2"
         stroke-width="3.4375"
         stroke-linejoin="round"
         stroke-miterlimit="10"
         fill="none"
         id="path35238" /></g><g
       clip-path="url(#clip2-40)"
       id="g35244"><path
         d="m 2683.5,3389.61 h 1110 m -1110,-62 h 1110 m -1110,-62 h 1110 m -1110,-62 h 1110 m -1110,-62.01 h 1110 m -1110,-62 h 1110 m -1110,-62 h 1110 m -1110,-62 h 1110 m -1110,-62 h 1110 m -1110,-62.1 h 1110"
         stroke="#d9d9d9"
         stroke-width="3.4375"
         stroke-linejoin="round"
         stroke-miterlimit="10"
         fill="none"
         id="path35242" /></g><g
       clip-path="url(#clip3-3)"
       id="g35248"><path
         d="m 2743.09,3072.1 h 79 V 3452 h -79 z m 277.01,-10 h 80 V 3452 h -80 z m 278.01,-34 h 79 V 3452 h -79 z m 278.01,-24 h 79 V 3452 h -79 z"
         fill="#4472c4"
         id="path35246" /></g><g
       clip-path="url(#clip4-5)"
       id="g35252"><path
         d="m 2822.09,2919.1 h 80.01 V 3452 h -80.01 z m 278.01,-13 h 79 V 3452 h -79 z m 277.01,-1 h 80 V 3452 h -80 z m 278.01,-2 h 79 V 3452 h -79 z"
         fill="#ed7d31"
         id="path35250" /></g><g
       clip-path="url(#clip5-4)"
       id="g35256"><path
         d="m 2782.59,3071.6 v 61.9 m 0,-61.9 v -62.1 m -10.09,124 h 20 m -20,-124 h 20"
         stroke="#595959"
         stroke-width="3.4375"
         stroke-linejoin="round"
         stroke-miterlimit="10"
         fill="none"
         id="path35254" /></g><g
       clip-path="url(#clip6-9)"
       id="g35260"><path
         d="m 3060.6,3061.6 v 76.9 m 0,-76.9 v -76.1 m -11.1,153 h 21 m -21,-153 h 21"
         stroke="#595959"
         stroke-width="3.4375"
         stroke-linejoin="round"
         stroke-miterlimit="10"
         fill="none"
         id="path35258" /></g><g
       clip-path="url(#clip7-7)"
       id="g35264"><path
         d="m 3337.61,3027.6 v 28.9 m 0,-28.9 v -29.1 m -10.11,58 h 21 m -21,-58 h 21"
         stroke="#595959"
         stroke-width="3.4375"
         stroke-linejoin="round"
         stroke-miterlimit="10"
         fill="none"
         id="path35262" /></g><g
       clip-path="url(#clip8-5)"
       id="g35268"><path
         d="m 3615.62,3004.6 v 47.9 m 0,-47.9 v -49.1 m -11.12,97 h 21 m -21,-97 h 21"
         stroke="#595959"
         stroke-width="3.4375"
         stroke-linejoin="round"
         stroke-miterlimit="10"
         fill="none"
         id="path35266" /></g><g
       clip-path="url(#clip9-6)"
       id="g35272"><path
         d="m 2861.59,2919.6 v 21.9 m 0,-21.9 v -22.1 m -10.09,44 h 21 m -21,-44 h 21"
         stroke="#595959"
         stroke-width="3.4375"
         stroke-linejoin="round"
         stroke-miterlimit="10"
         fill="none"
         id="path35270" /></g><g
       clip-path="url(#clip10-9)"
       id="g35276"><path
         d="m 3139.6,2906.6 v 18.9 m 0,-18.9 v -19.1 m -10.1,38 h 20 m -20,-38 h 20"
         stroke="#595959"
         stroke-width="3.4375"
         stroke-linejoin="round"
         stroke-miterlimit="10"
         fill="none"
         id="path35274" /></g><g
       clip-path="url(#clip11-4)"
       id="g35280"><path
         d="m 3416.61,2905.6 v 19.9 m 0,-19.9 v -20.1 m -10.11,40 h 21 m -21,-40 h 21"
         stroke="#595959"
         stroke-width="3.4375"
         stroke-linejoin="round"
         stroke-miterlimit="10"
         fill="none"
         id="path35278" /></g><g
       clip-path="url(#clip12-4)"
       id="g35284"><path
         d="m 3694.62,2902.6 v 33.9 m 0,-33.9 v -33.1 m -10.12,67 h 20 m -20,-67 h 20"
         stroke="#595959"
         stroke-width="3.4375"
         stroke-linejoin="round"
         stroke-miterlimit="10"
         fill="none"
         id="path35282" /></g><g
       clip-path="url(#clip13-73)"
       id="g35288"><path
         d="m 2683.5,3451.5 h 1110"
         stroke="#d9d9d9"
         stroke-width="3.4375"
         stroke-linejoin="round"
         stroke-miterlimit="10"
         fill="none"
         fill-rule="evenodd"
         id="path35286" /></g><g
       clip-path="url(#clip14-0)"
       id="g35292"><path
         d="m 2822.5,2919.5 2.09,-0.9 h 3 2 3 3 l 2,-1 h 3 2 3 3 l 2,-1 h 3 2 3 2 l 3,-1 h 3 2 3 2 3 l 3,-1 h 2 3 2 3 3 l 2.01,-1 h 3 2 3 2 3 3 l 2,-1 h 3 2 3 3 2 3 l 2,-1 h 3 2 3 3 2 3 l 2,-1 h 3 3 2 3 2 3 3 2 l 3,-1 h 2 3 2 3 3 2 3 2 3 l 3,-1 h 2 3 2 3 2 3 3 2 3 2 l 3,-1 h 3 2 3 2 3 3 2 3 2 3 2 3 3 2 l 3,-1 h 2 3 3 2 3 2 3 2 3 3 2 3 2 3 3 2 3 2 3 2 3 l 3,-1 h 2 3 2 3 3 2 3 2 3 3 2 3 2 3 2 3 3 2 3 2 3 3 2 3 2 3 2 3 3 2 3.01 2 3 3 2 3 2 3 3 2 3 2 3 2 3 3 2 3 2 3 3 2 3 2 5 3 3 2 3 2 3 3 2 3 2 3 2 3 3 2 3 2 3 3 2 3 2 3 3 2 3 2 3 2 3 3 2 3 2 3 3 2 3 2 3 2 3 3 2 3 2 3 3 2 3 2 3 3 2 3 2 3 2 3 3 2 3 2 3 3 2 3 2 3 2 3 3 2 3 2 3 3 2 3 2 3 2 3 3 2 3 2 3 3 2 3 2.01 3 3 2 3 2 3 2 3 3 2 l 3,-1 h 2 3 3 2 3 2 3 2 3 3 2 3 2 3 3 2 3 2 3 3 2 3 2 3 2 3 3 l 2,-1 h 3 2 3 3 2 3 2 3 2 3 3 2 3 2 3 3 l 2,-1 h 3 l 1.88,-0.1"
         stroke="#ed7d31"
         stroke-width="6.875"
         stroke-linecap="round"
         stroke-linejoin="round"
         stroke-miterlimit="10"
         stroke-dasharray="0, 13.75"
         fill="none"
         id="path35290" /></g><g
       clip-path="url(#clip15-4)"
       id="g35296"><text
         fill="#595959"
         font-family="Arial, Arial_MSFontService, sans-serif"
         font-weight="400"
         font-size="41px"
         transform="translate(2590.71,3465)"
         id="text35294">0.4</text></g><g
       clip-path="url(#clip16-54)"
       id="g35300"><text
         fill="#595959"
         font-family="Arial, Arial_MSFontService, sans-serif"
         font-weight="400"
         font-size="41px"
         transform="translate(2567.77,3403)"
         id="text35298">0.45</text></g><g
       clip-path="url(#clip17-4)"
       id="g35304"><text
         fill="#595959"
         font-family="Arial, Arial_MSFontService, sans-serif"
         font-weight="400"
         font-size="41px"
         transform="translate(2590.71,3341)"
         id="text35302">0.5</text></g><g
       clip-path="url(#clip18-27)"
       id="g35308"><text
         fill="#595959"
         font-family="Arial, Arial_MSFontService, sans-serif"
         font-weight="400"
         font-size="41px"
         transform="translate(2567.77,3278)"
         id="text35306">0.55</text></g><g
       clip-path="url(#clip19-0)"
       id="g35312"><text
         fill="#595959"
         font-family="Arial, Arial_MSFontService, sans-serif"
         font-weight="400"
         font-size="41px"
         transform="translate(2590.71,3216)"
         id="text35310">0.6</text></g><g
       clip-path="url(#clip20-9)"
       id="g35316"><text
         fill="#595959"
         font-family="Arial, Arial_MSFontService, sans-serif"
         font-weight="400"
         font-size="41px"
         transform="translate(2567.77,3154)"
         id="text35314">0.65</text></g><g
       clip-path="url(#clip21-5)"
       id="g35320"><text
         fill="#595959"
         font-family="Arial, Arial_MSFontService, sans-serif"
         font-weight="400"
         font-size="41px"
         transform="translate(2590.71,3092)"
         id="text35318">0.7</text></g><g
       clip-path="url(#clip22-58)"
       id="g35324"><text
         fill="#595959"
         font-family="Arial, Arial_MSFontService, sans-serif"
         font-weight="400"
         font-size="41px"
         transform="translate(2567.77,3030)"
         id="text35322">0.75</text></g><g
       clip-path="url(#clip23-4)"
       id="g35328"><text
         fill="#595959"
         font-family="Arial, Arial_MSFontService, sans-serif"
         font-weight="400"
         font-size="41px"
         transform="translate(2590.71,2968)"
         id="text35326">0.8</text></g><g
       clip-path="url(#clip24-16)"
       id="g35332"><text
         fill="#595959"
         font-family="Arial, Arial_MSFontService, sans-serif"
         font-weight="400"
         font-size="41px"
         transform="translate(2567.77,2906)"
         id="text35330">0.85</text></g><g
       clip-path="url(#clip25-3)"
       id="g35336"><text
         fill="#595959"
         font-family="Arial, Arial_MSFontService, sans-serif"
         font-weight="400"
         font-size="41px"
         transform="translate(2590.71,2844)"
         id="text35334">0.9</text></g><g
       clip-path="url(#clip26-8)"
       id="g35340"><text
         fill="#595959"
         font-family="Arial, Arial_MSFontService, sans-serif"
         font-weight="400"
         font-size="41px"
         transform="translate(2799.36,3514)"
         id="text35338">10</text></g><g
       clip-path="url(#clip27-0)"
       id="g35344"><text
         fill="#595959"
         font-family="Arial, Arial_MSFontService, sans-serif"
         font-weight="400"
         font-size="41px"
         transform="translate(3076.91,3514)"
         id="text35342">15</text></g><g
       clip-path="url(#clip28-2)"
       id="g35348"><text
         fill="#595959"
         font-family="Arial, Arial_MSFontService, sans-serif"
         font-weight="400"
         font-size="41px"
         transform="translate(3354.46,3514)"
         id="text35346">25</text></g><g
       clip-path="url(#clip29-4)"
       id="g35352"><text
         fill="#595959"
         font-family="Arial, Arial_MSFontService, sans-serif"
         font-weight="400"
         font-size="41px"
         transform="translate(3632.01,3514)"
         id="text35350">50</text></g><g
       clip-path="url(#clip30-7)"
       id="g35356"><text
         fill="#595959"
         font-family="Arial, Arial_MSFontService, sans-serif"
         font-weight="400"
         font-size="46px"
         transform="rotate(-90,2963.155,418.845)"
         id="text35354">Spearman’s Correlation</text></g><g
       clip-path="url(#clip31-9)"
       id="g35360"><text
         fill="#595959"
         font-family="Arial, Arial_MSFontService, sans-serif"
         font-weight="400"
         font-size="46px"
         transform="translate(2938.05,3580)"
         id="text35358">Kernel lengthscale upper limit</text></g><g
       clip-path="url(#clip32-8)"
       id="g35364"><text
         fill="#595959"
         font-family="Arial, Arial_MSFontService, sans-serif"
         font-weight="400"
         font-size="64px"
         transform="translate(3088.45,2760)"
         id="text35362">Train Scores</text></g><g
       clip-path="url(#clip33-5)"
       id="g35368"><rect
         x="3865"
         y="3167"
         width="21"
         height="21"
         fill="#4472c4"
         id="rect35366" /></g><g
       clip-path="url(#clip34-9)"
       id="g35372"><text
         fill="#595959"
         font-family="Arial, Arial_MSFontService, sans-serif"
         font-weight="400"
         font-size="41px"
         transform="translate(3894.19,3190)"
         id="text35370">Model H</text></g><g
       clip-path="url(#clip35-97)"
       id="g35376"><rect
         x="3865"
         y="3240"
         width="21"
         height="21.0002"
         fill="#ed7d31"
         id="rect35374" /></g><g
       clip-path="url(#clip36-39)"
       id="g35380"><text
         fill="#595959"
         font-family="Arial, Arial_MSFontService, sans-serif"
         font-weight="400"
         font-size="41px"
         transform="translate(3894.19,3263)"
         id="text35378">Model A</text></g><rect
       x="4091"
       y="2666"
       width="1647"
       height="982"
       fill="#ffffff"
       id="rect35382" /><g
       clip-path="url(#clip37-2)"
       id="g35386"><path
         d="m 4330.5,3440.61 h 1108 m -1108,-13 h 1108 m -1108,-12 h 1108 m -1108,-12 h 1108 m -1108,-25 h 1108 m -1108,-13 h 1108 m -1108,-12 h 1108 m -1108,-13 h 1108 m -1108,-25 h 1108 m -1108,-12 h 1108 m -1108,-12 h 1108 m -1108,-13 h 1108 m -1108,-25 h 1108 m -1108,-12 h 1108 m -1108,-13 h 1108 m -1108,-12 h 1108 m -1108,-25.01 h 1108 m -1108,-12 h 1108 m -1108,-13 h 1108 m -1108,-12 h 1108 m -1108,-25 h 1108 m -1108,-12 h 1108 m -1108,-13 h 1108 m -1108,-12 h 1108 m -1108,-25 h 1108 m -1108,-13 h 1108 m -1108,-12 h 1108 m -1108,-13 h 1108 m -1108,-24 h 1108 m -1108,-13 h 1108 m -1108,-12 h 1108 m -1108,-13 h 1108 m -1108,-25 h 1108 m -1108,-12 h 1108 m -1108,-12 h 1108 m -1108,-13 h 1108 m -1108,-25.01 h 1108 m -1108,-12 h 1108 m -1108,-13 h 1108 m -1108,-12 h 1108"
         stroke="#f2f2f2"
         stroke-width="3.4375"
         stroke-linejoin="round"
         stroke-miterlimit="10"
         fill="none"
         id="path35384" /></g><g
       clip-path="url(#clip38-9)"
       id="g35390"><path
         d="m 4330.5,3390.61 h 1108 m -1108,-62 h 1108 m -1108,-62 h 1108 m -1108,-62 h 1108 m -1108,-63.01 h 1108 m -1108,-62 h 1108 m -1108,-62 h 1108 m -1108,-62 h 1108 m -1108,-62 h 1108 m -1108,-62.1 h 1108"
         stroke="#d9d9d9"
         stroke-width="3.4375"
         stroke-linejoin="round"
         stroke-miterlimit="10"
         fill="none"
         id="path35388" /></g><g
       clip-path="url(#clip39-14)"
       id="g35394"><path
         d="m 4390.14,3181.1 h 79.01 V 3453 h -79.01 z m 276.01,-36 h 80.01 V 3453 h -80.01 z m 277.01,36 h 79.01 V 3453 h -79.01 z m 277.01,-18 h 79 V 3453 h -79 z"
         fill="#4472c4"
         id="path35392" /></g><g
       clip-path="url(#clip40-6)"
       id="g35398"><path
         d="m 4469.15,3012.1 h 79 V 3453 h -79 z m 277.01,-23 h 79 V 3453 h -79 z m 276.01,36 h 80 V 3453 h -80 z m 277,0 h 80.01 V 3453 h -80.01 z"
         fill="#ed7d31"
         id="path35396" /></g><g
       clip-path="url(#clip41-8)"
       id="g35402"><path
         d="m 4429.65,3181.6 v 132.9 m 0,-132.9 v -133.1 m -11.15,266 h 21 m -21,-266 h 21"
         stroke="#595959"
         stroke-width="3.4375"
         stroke-linejoin="round"
         stroke-miterlimit="10"
         fill="none"
         id="path35400" /></g><g
       clip-path="url(#clip42-96)"
       id="g35406"><path
         d="m 4706.65,3145.6 v 157.9 m 0,-157.9 v -158.1 m -11.15,316 h 21 m -21,-316 h 21"
         stroke="#595959"
         stroke-width="3.4375"
         stroke-linejoin="round"
         stroke-miterlimit="10"
         fill="none"
         id="path35404" /></g><g
       clip-path="url(#clip43-97)"
       id="g35410"><path
         d="m 4982.66,3181.6 v 155.9 m 0,-155.9 v -156.1 m -10.16,312 h 21 m -21,-312 h 21"
         stroke="#595959"
         stroke-width="3.4375"
         stroke-linejoin="round"
         stroke-miterlimit="10"
         fill="none"
         id="path35408" /></g><g
       clip-path="url(#clip44-6)"
       id="g35414"><path
         d="m 5259.67,3163.6 v 172.9 m 0,-172.9 v -173.1 m -10.17,346 h 21 m -21,-346 h 21"
         stroke="#595959"
         stroke-width="3.4375"
         stroke-linejoin="round"
         stroke-miterlimit="10"
         fill="none"
         id="path35412" /></g><g
       clip-path="url(#clip45-6)"
       id="g35418"><path
         d="m 4508.65,3011.6 v 103.9 m 0,-103.9 v -103.1 m -10.15,207 h 20 m -20,-207 h 20"
         stroke="#595959"
         stroke-width="3.4375"
         stroke-linejoin="round"
         stroke-miterlimit="10"
         fill="none"
         id="path35416" /></g><g
       clip-path="url(#clip46-0)"
       id="g35422"><path
         d="m 4785.66,2989.6 v 102.9 m 0,-102.9 v -104.1 m -11.16,207 h 21 m -21,-207 h 21"
         stroke="#595959"
         stroke-width="3.4375"
         stroke-linejoin="round"
         stroke-miterlimit="10"
         fill="none"
         id="path35420" /></g><g
       clip-path="url(#clip47-3)"
       id="g35426"><path
         d="m 5062.67,3025.6 v 47.9 m 0,-47.9 v -49.1 m -11.17,97 h 21 m -21,-97 h 21"
         stroke="#595959"
         stroke-width="3.4375"
         stroke-linejoin="round"
         stroke-miterlimit="10"
         fill="none"
         id="path35424" /></g><g
       clip-path="url(#clip48-6)"
       id="g35430"><path
         d="m 5338.68,3025.6 v 30.9 m 0,-30.9 v -32.1 m -10.18,63 h 21 m -21,-63 h 21"
         stroke="#595959"
         stroke-width="3.4375"
         stroke-linejoin="round"
         stroke-miterlimit="10"
         fill="none"
         id="path35428" /></g><g
       clip-path="url(#clip49-88)"
       id="g35434"><path
         d="m 4330.5,3452.5 h 1108"
         stroke="#d9d9d9"
         stroke-width="3.4375"
         stroke-linejoin="round"
         stroke-miterlimit="10"
         fill="none"
         fill-rule="evenodd"
         id="path35432" /></g><g
       clip-path="url(#clip50-7)"
       id="g35438"><path
         d="m 4468.5,3011.6 3.15,-1 h 2 l 3,-1 2,-1 3,-1 h 3 l 2,-1 3,-1 h 2 l 3,-1 3,-1 h 2 l 3,-1 h 2 l 3,-1 2,-1 h 3 l 3,-1 h 2 l 3,-1 h 2 l 3,-1 h 3 l 2,-1 h 3 l 2,-1 h 3 l 2,-1 h 3 3 l 2,-1 h 3 l 2,-1 h 3 2 l 3,-1 h 3 2 l 3,-1 h 2 3 l 3,-1 h 2 3 2 l 3,-1 h 2 3 3 l 2,-1 h 3 2 3 2 3 l 3,-1 h 2 3 2 3 3 2 3 l 2,-1 h 3 2 3 3 2 3 2 3 2 l 3,-0.1 3,0.1 h 2 3 2 3 3 2 3 2 3 2 l 3,1 h 3 2 3 2 3 3 2 3 l 2,1 h 3 2.01 3 3 2 3 l 2,1 h 3 2 3 3 l 2,1 h 3 2 3 l 3,1 h 2 3 2 3 l 2,1 h 3 3 2 l 3,1 h 2 3 l 2,1 h 3 3 2 l 3,1 h 2 3 l 3,1 h 2 3 l 2,1 h 3 2 3 l 3,1 h 2 3 l 2,1 h 3 3 l 2,1 h 3 2 l 3,1 h 2 l 3,1 h 3 2 l 3,1 h 2 3 l 2,1 h 3 3 l 2,1 h 3 2 l 3,1 h 3 l 2,1 h 3 2 l 3,1 h 2 3 l 3,1 h 2 l 3,1 h 2 3 l 2,1 h 3 3 l 2,1 h 3 l 2,1 h 3 3 l 2,1 h 3 2 l 3,1 h 2 l 3,1 h 3 2 l 3,1 h 2 3 l 3,1 h 2 l 3,1 h 2 3 l 2,1 h 3 3 l 2,1 h 3 2 l 3,1 h 2 3 l 3,1 h 2 3 l 2,1 h 3 3 l 2.01,1 h 3 2 l 3,1 h 2 3 l 3,1 h 2 3 2 l 3,1 h 2 3 l 3,1 h 2 3 2 l 3,1 h 3 2 3 l 2,1 h 3 2 3 l 3,1 h 2 3 2 3 l 3,1 h 2 3 2 3 l 2,1 h 3 3 2 3 2 l 3,1 h 2 3 3 2 3 2 3 3 l 2,1 h 3 2 3 2 3 3 2 3 2 3 l 2,-0.1 3,0.1 h 3 2 3 2 3 3 2 3 2 3 l 2,-1 h 3 3 2 3 2 3 2 l 3,-1 h 3 2 3 2 3 l 3,-1 h 2 3 2 l 3,-1 h 2 3 3 l 2,-1 h 3 2 l 3,-1 h 3 2 l 3,-1 h 2 3 l 2,-1 h 3 l 3,-1 h 2 l 3,-1 h 2 2.83"
         stroke="#ed7d31"
         stroke-width="6.875"
         stroke-linecap="round"
         stroke-linejoin="round"
         stroke-miterlimit="10"
         stroke-dasharray="0, 13.75"
         fill="none"
         id="path35436" /></g><g
       clip-path="url(#clip51-9)"
       id="g35442"><text
         fill="#595959"
         font-family="Arial, Arial_MSFontService, sans-serif"
         font-weight="400"
         font-size="41px"
         transform="translate(4237.54,3466)"
         id="text35440">0.4</text></g><g
       clip-path="url(#clip52-6)"
       id="g35446"><text
         fill="#595959"
         font-family="Arial, Arial_MSFontService, sans-serif"
         font-weight="400"
         font-size="41px"
         transform="translate(4214.6,3403)"
         id="text35444">0.45</text></g><g
       clip-path="url(#clip53-82)"
       id="g35450"><text
         fill="#595959"
         font-family="Arial, Arial_MSFontService, sans-serif"
         font-weight="400"
         font-size="41px"
         transform="translate(4237.54,3341)"
         id="text35448">0.5</text></g><g
       clip-path="url(#clip54-47)"
       id="g35454"><text
         fill="#595959"
         font-family="Arial, Arial_MSFontService, sans-serif"
         font-weight="400"
         font-size="41px"
         transform="translate(4214.6,3279)"
         id="text35452">0.55</text></g><g
       clip-path="url(#clip55-55)"
       id="g35458"><text
         fill="#595959"
         font-family="Arial, Arial_MSFontService, sans-serif"
         font-weight="400"
         font-size="41px"
         transform="translate(4237.54,3217)"
         id="text35456">0.6</text></g><g
       clip-path="url(#clip56-01)"
       id="g35462"><text
         fill="#595959"
         font-family="Arial, Arial_MSFontService, sans-serif"
         font-weight="400"
         font-size="41px"
         transform="translate(4214.6,3155)"
         id="text35460">0.65</text></g><g
       clip-path="url(#clip57-6)"
       id="g35466"><text
         fill="#595959"
         font-family="Arial, Arial_MSFontService, sans-serif"
         font-weight="400"
         font-size="41px"
         transform="translate(4237.54,3093)"
         id="text35464">0.7</text></g><g
       clip-path="url(#clip58-4)"
       id="g35470"><text
         fill="#595959"
         font-family="Arial, Arial_MSFontService, sans-serif"
         font-weight="400"
         font-size="41px"
         transform="translate(4214.6,3030)"
         id="text35468">0.75</text></g><g
       clip-path="url(#clip59-9)"
       id="g35474"><text
         fill="#595959"
         font-family="Arial, Arial_MSFontService, sans-serif"
         font-weight="400"
         font-size="41px"
         transform="translate(4237.54,2968)"
         id="text35472">0.8</text></g><g
       clip-path="url(#clip60-0)"
       id="g35478"><text
         fill="#595959"
         font-family="Arial, Arial_MSFontService, sans-serif"
         font-weight="400"
         font-size="41px"
         transform="translate(4214.6,2906)"
         id="text35476">0.85</text></g><g
       clip-path="url(#clip61-4)"
       id="g35482"><text
         fill="#595959"
         font-family="Arial, Arial_MSFontService, sans-serif"
         font-weight="400"
         font-size="41px"
         transform="translate(4237.54,2844)"
         id="text35480">0.9</text></g><g
       clip-path="url(#clip62-4)"
       id="g35486"><text
         fill="#595959"
         font-family="Arial, Arial_MSFontService, sans-serif"
         font-weight="400"
         font-size="41px"
         transform="translate(4445.87,3515)"
         id="text35484">10</text></g><g
       clip-path="url(#clip63-1)"
       id="g35490"><text
         fill="#595959"
         font-family="Arial, Arial_MSFontService, sans-serif"
         font-weight="400"
         font-size="41px"
         transform="translate(4722.79,3515)"
         id="text35488">15</text></g><g
       clip-path="url(#clip64-4)"
       id="g35494"><text
         fill="#595959"
         font-family="Arial, Arial_MSFontService, sans-serif"
         font-weight="400"
         font-size="41px"
         transform="translate(4999.71,3515)"
         id="text35492">25</text></g><g
       clip-path="url(#clip65-5)"
       id="g35498"><text
         fill="#595959"
         font-family="Arial, Arial_MSFontService, sans-serif"
         font-weight="400"
         font-size="41px"
         transform="translate(5276.63,3515)"
         id="text35496">50</text></g><g
       clip-path="url(#clip66-4)"
       id="g35502"><text
         fill="#595959"
         font-family="Arial, Arial_MSFontService, sans-serif"
         font-weight="400"
         font-size="46px"
         transform="rotate(-90,3787.07,-404.07)"
         id="text35500">Spearman’s Correlation</text></g><g
       clip-path="url(#clip67-0)"
       id="g35506"><text
         fill="#595959"
         font-family="Arial, Arial_MSFontService, sans-serif"
         font-weight="400"
         font-size="46px"
         transform="translate(4583.61,3581)"
         id="text35504">Kernel lengthscale upper limit</text></g><g
       clip-path="url(#clip68-9)"
       id="g35510"><text
         fill="#595959"
         font-family="Arial, Arial_MSFontService, sans-serif"
         font-weight="400"
         font-size="64px"
         transform="translate(4747.07,2760)"
         id="text35508">Test Scores</text></g><g
       clip-path="url(#clip69-2)"
       id="g35514"><rect
         x="5509"
         y="3167"
         width="21"
         height="21"
         fill="#4472c4"
         id="rect35512" /></g><g
       clip-path="url(#clip70-1)"
       id="g35518"><text
         fill="#595959"
         font-family="Arial, Arial_MSFontService, sans-serif"
         font-weight="400"
         font-size="41px"
         transform="translate(5538.49,3190)"
         id="text35516">Model H</text></g><g
       clip-path="url(#clip71-4)"
       id="g35522"><rect
         x="5509"
         y="3240"
         width="21"
         height="21.0002"
         fill="#ed7d31"
         id="rect35520" /></g><g
       clip-path="url(#clip72-7)"
       id="g35526"><text
         fill="#595959"
         font-family="Arial, Arial_MSFontService, sans-serif"
         font-weight="400"
         font-size="41px"
         transform="translate(5538.49,3263)"
         id="text35524">Model A</text></g></g></svg>
