<svg width="1646" height="944" xmlns="http://www.w3.org/2000/svg" xmlns:xlink="http://www.w3.org/1999/xlink" xml:space="preserve" overflow="hidden"><defs><clipPath id="clip0"><rect x="2392" y="4367" width="1646" height="944"/></clipPath><clipPath id="clip1"><rect x="2391" y="4366" width="1646" height="945"/></clipPath><clipPath id="clip2"><rect x="2391" y="4366" width="1646" height="945"/></clipPath><clipPath id="clip3"><rect x="2391" y="4366" width="1646" height="945"/></clipPath><clipPath id="clip4"><rect x="2391" y="4366" width="1646" height="945"/></clipPath><clipPath id="clip5"><rect x="2391" y="4366" width="1646" height="945"/></clipPath><clipPath id="clip6"><rect x="2391" y="4366" width="1646" height="945"/></clipPath><clipPath id="clip7"><rect x="2639" y="4417" width="1351" height="694"/></clipPath><clipPath id="clip8"><rect x="2391" y="4366" width="1646" height="945"/></clipPath><clipPath id="clip9"><rect x="2639" y="4417" width="1351" height="694"/></clipPath><clipPath id="clip10"><rect x="2391" y="4366" width="1646" height="945"/></clipPath><clipPath id="clip11"><rect x="2391" y="4366" width="1646" height="945"/></clipPath><clipPath id="clip12"><rect x="2391" y="4366" width="1646" height="945"/></clipPath><clipPath id="clip13"><rect x="2391" y="4366" width="1646" height="945"/></clipPath><clipPath id="clip14"><rect x="2391" y="4366" width="1646" height="945"/></clipPath><clipPath id="clip15"><rect x="2391" y="4366" width="1646" height="945"/></clipPath><clipPath id="clip16"><rect x="2391" y="4366" width="1646" height="945"/></clipPath><clipPath id="clip17"><rect x="2391" y="4366" width="1646" height="945"/></clipPath><clipPath id="clip18"><rect x="2391" y="4366" width="1646" height="945"/></clipPath><clipPath id="clip19"><rect x="2391" y="4366" width="1646" height="945"/></clipPath><clipPath id="clip20"><rect x="2391" y="4366" width="1646" height="945"/></clipPath><clipPath id="clip21"><rect x="2391" y="4366" width="1646" height="945"/></clipPath><clipPath id="clip22"><rect x="2391" y="4366" width="1646" height="945"/></clipPath><clipPath id="clip23"><rect x="2391" y="4366" width="1646" height="945"/></clipPath><clipPath id="clip24"><rect x="2391" y="4366" width="1646" height="945"/></clipPath><clipPath id="clip25"><rect x="2391" y="4366" width="1646" height="945"/></clipPath><clipPath id="clip26"><rect x="2391" y="4366" width="1646" height="945"/></clipPath><clipPath id="clip27"><rect x="2391" y="4366" width="1646" height="945"/></clipPath><clipPath id="clip28"><rect x="2391" y="4366" width="1646" height="945"/></clipPath><clipPath id="clip29"><rect x="2391" y="4366" width="1646" height="945"/></clipPath><clipPath id="clip30"><rect x="2391" y="4366" width="1646" height="945"/></clipPath><clipPath id="clip31"><rect x="2391" y="4366" width="1646" height="945"/></clipPath><clipPath id="clip32"><rect x="2391" y="4366" width="1646" height="945"/></clipPath><clipPath id="clip33"><rect x="2391" y="4366" width="1646" height="945"/></clipPath><clipPath id="clip34"><rect x="2391" y="4366" width="1646" height="945"/></clipPath><clipPath id="clip35"><rect x="2391" y="4366" width="1646" height="945"/></clipPath></defs><g clip-path="url(#clip0)" transform="translate(-2392 -4367)"><rect x="2392" y="4367" width="1646" height="944" fill="#FFFFFF"/><g clip-path="url(#clip1)"><rect x="2639" y="4417" width="1348" height="691" fill="#FFFFFF"/></g><g clip-path="url(#clip2)"><path d="M2639.5 5050.67 3987.5 5050.67M2639.5 4993.66 3987.5 4993.66M2639.5 4935.66 3987.5 4935.66M2639.5 4877.66 3987.5 4877.66M2639.5 4820.66 3987.5 4820.66M2639.5 4762.66 3987.5 4762.66M2639.5 4705.65 3987.5 4705.65M2639.5 4647.65 3987.5 4647.65M2639.5 4589.65 3987.5 4589.65M2639.5 4532.65 3987.5 4532.65M2639.5 4474.65 3987.5 4474.65M2639.5 4417.5 3987.5 4417.5" stroke="#D9D9D9" stroke-width="3.4375" stroke-linejoin="round" stroke-miterlimit="10" fill="none"/></g><g clip-path="url(#clip3)"><path d="M0 0 0.000360892 691" stroke="#898989" stroke-width="2.29167" stroke-linejoin="round" stroke-miterlimit="10" fill="none" fill-rule="evenodd" transform="matrix(1 0 0 -1 2639 5108)"/></g><g clip-path="url(#clip4)"><path d="M2639 5108 2647.09 5108M2639 5097.17 2647.09 5097.17M2639 5085.17 2647.09 5085.17M2639 5074.17 2647.09 5074.17M2639 5062.17 2647.09 5062.17M2639 5051.17 2647.09 5051.17M2639 5039.17 2647.09 5039.17M2639 5028.17 2647.09 5028.17M2639 5016.16 2647.09 5016.16M2639 5005.16 2647.09 5005.16M2639 4993.16 2647.09 4993.16M2639 4982.16 2647.09 4982.16M2639 4970.16 2647.09 4970.16M2639 4959.16 2647.09 4959.16M2639 4947.16 2647.09 4947.16M2639 4935.16 2647.09 4935.16M2639 4924.16 2647.09 4924.16M2639 4912.16 2647.09 4912.16M2639 4901.16 2647.09 4901.16M2639 4889.16 2647.09 4889.16M2639 4878.16 2647.09 4878.16M2639 4866.16 2647.09 4866.16M2639 4855.16 2647.09 4855.16M2639 4843.16 2647.09 4843.16M2639 4832.16 2647.09 4832.16M2639 4820.16 2647.09 4820.16M2639 4809.16 2647.09 4809.16M2639 4797.16 2647.09 4797.16M2639 4786.16 2647.09 4786.16M2639 4774.16 2647.09 4774.16M2639 4763.16 2647.09 4763.16M2639 4751.16 2647.09 4751.16M2639 4740.16 2647.09 4740.16M2639 4728.16 2647.09 4728.16M2639 4717.15 2647.09 4717.15M2639 4705.15 2647.09 4705.15M2639 4694.15 2647.09 4694.15M2639 4682.15 2647.09 4682.15M2639 4671.15 2647.09 4671.15M2639 4659.15 2647.09 4659.15M2639 4648.15 2647.09 4648.15M2639 4636.15 2647.09 4636.15M2639 4624.15 2647.09 4624.15M2639 4613.15 2647.09 4613.15M2639 4601.15 2647.09 4601.15M2639 4590.15 2647.09 4590.15M2639 4578.15 2647.09 4578.15M2639 4567.15 2647.09 4567.15M2639 4555.15 2647.09 4555.15M2639 4544.15 2647.09 4544.15M2639 4532.15 2647.09 4532.15M2639 4521.15 2647.09 4521.15M2639 4509.15 2647.09 4509.15M2639 4498.15 2647.09 4498.15M2639 4486.15 2647.09 4486.15M2639 4475.15 2647.09 4475.15M2639 4463.15 2647.09 4463.15M2639 4452.15 2647.09 4452.15M2639 4440.15 2647.09 4440.15M2639 4429.15 2647.09 4429.15M2639 4417 2647.09 4417M2639 5108 2650 5108M2639 5051.17 2650 5051.17M2639 4993.16 2650 4993.16M2639 4935.16 2650 4935.16M2639 4878.16 2650 4878.16M2639 4820.16 2650 4820.16M2639 4763.16 2650 4763.16M2639 4705.15 2650 4705.15M2639 4648.15 2650 4648.15M2639 4590.15 2650 4590.15M2639 4532.15 2650 4532.15M2639 4475.15 2650 4475.15M2639 4417 2650 4417" stroke="#898989" stroke-width="2.29167" stroke-linejoin="round" stroke-miterlimit="10" fill="none"/></g><g clip-path="url(#clip5)"><path d="M2639.5 5108.5 3987.5 5108.5" stroke="#D9D9D9" stroke-width="3.4375" stroke-linejoin="round" stroke-miterlimit="10" fill="none" fill-rule="evenodd"/></g><g clip-path="url(#clip6)"><path d="M2807.59 5097.67 2807.59 5108.5M3144.6 5097.67 3144.6 5108.5M3481.61 5097.67 3481.61 5108.5M3818.63 5097.67 3818.63 5108.5M3987.5 5097.67 3987.5 5108.5M2639.5 5094.5 2639.5 5108.5M2976.6 5094.5 2976.6 5108.5M3313.61 5094.5 3313.61 5108.5M3650.62 5094.5 3650.62 5108.5M3987.5 5094.5 3987.5 5108.5" stroke="#D9D9D9" stroke-width="3.4375" stroke-linejoin="round" stroke-miterlimit="10" fill="none"/></g><g clip-path="url(#clip7)"><path d="M2808 4836 3145.1 4769 3482.11 4769 3819 4769" stroke="#5089BC" stroke-width="5.72917" stroke-linecap="round" stroke-linejoin="round" stroke-miterlimit="10" stroke-dasharray="11.4583 11.4583" fill="none"/></g><g clip-path="url(#clip8)"><path d="M2818.98 4846.84 2796.98 4824.84M2807.98 4824.84 2807.98 4846.84M2796.98 4846.84 2818.98 4824.84" stroke="#5089BC" stroke-width="2.29167" stroke-linejoin="round" stroke-miterlimit="10" fill="#5089BC"/><path d="M3155.98 4779.84 3133.98 4757.84M3144.98 4757.84 3144.98 4779.84M3133.98 4779.84 3155.98 4757.84" stroke="#5089BC" stroke-width="2.29167" stroke-linejoin="round" stroke-miterlimit="10" fill="#5089BC"/><path d="M3492.98 4779.84 3470.98 4757.84M3481.98 4757.84 3481.98 4779.84M3470.98 4779.84 3492.98 4757.84" stroke="#5089BC" stroke-width="2.29167" stroke-linejoin="round" stroke-miterlimit="10" fill="#5089BC"/><path d="M3829.98 4779.84 3807.98 4757.84M3818.98 4757.84 3818.98 4779.84M3807.98 4779.84 3829.98 4757.84" stroke="#5089BC" stroke-width="2.29167" stroke-linejoin="round" stroke-miterlimit="10" fill="#5089BC"/></g><g clip-path="url(#clip9)"><path d="M2808 4753 3145.1 4480 3482.11 4480 3819 4480" stroke="#7030A0" stroke-width="5.72917" stroke-linecap="round" stroke-linejoin="round" stroke-miterlimit="10" stroke-dasharray="17.1875 22.9167" fill="none"/></g><g clip-path="url(#clip10)"><path d="M2819.98 4753.34C2819.98 4759.69 2814.83 4764.84 2808.48 4764.84 2802.12 4764.84 2796.98 4759.69 2796.98 4753.34 2796.98 4746.99 2802.12 4741.84 2808.48 4741.84 2814.83 4741.84 2819.98 4746.99 2819.98 4753.34Z" stroke="#62993E" stroke-width="2.29167" stroke-linejoin="round" stroke-miterlimit="10" fill="#62993E"/><path d="M3156.98 4480.34C3156.98 4486.69 3151.83 4491.84 3145.48 4491.84 3139.12 4491.84 3133.98 4486.69 3133.98 4480.34 3133.98 4473.99 3139.12 4468.84 3145.48 4468.84 3151.83 4468.84 3156.98 4473.99 3156.98 4480.34Z" stroke="#62993E" stroke-width="2.29167" stroke-linejoin="round" stroke-miterlimit="10" fill="#62993E"/><path d="M3493.98 4480.34C3493.98 4486.69 3488.83 4491.84 3482.48 4491.84 3476.12 4491.84 3470.98 4486.69 3470.98 4480.34 3470.98 4473.99 3476.12 4468.84 3482.48 4468.84 3488.83 4468.84 3493.98 4473.99 3493.98 4480.34Z" stroke="#62993E" stroke-width="2.29167" stroke-linejoin="round" stroke-miterlimit="10" fill="#62993E"/><path d="M3830.98 4480.34C3830.98 4486.69 3825.83 4491.84 3819.48 4491.84 3813.12 4491.84 3807.98 4486.69 3807.98 4480.34 3807.98 4473.99 3813.12 4468.84 3819.48 4468.84 3825.83 4468.84 3830.98 4473.99 3830.98 4480.34Z" stroke="#62993E" stroke-width="2.29167" stroke-linejoin="round" stroke-miterlimit="10" fill="#62993E"/></g><g clip-path="url(#clip11)"><text font-family="Arial,Arial_MSFontService,sans-serif" font-weight="400" font-size="37" transform="matrix(1 0 0 1 2556.52 5120)">0.5</text></g><g clip-path="url(#clip12)"><text font-family="Arial,Arial_MSFontService,sans-serif" font-weight="400" font-size="37" transform="matrix(1 0 0 1 2515.73 5062)">0.525</text></g><g clip-path="url(#clip13)"><text font-family="Arial,Arial_MSFontService,sans-serif" font-weight="400" font-size="37" transform="matrix(1 0 0 1 2536.12 5005)">0.55</text></g><g clip-path="url(#clip14)"><text font-family="Arial,Arial_MSFontService,sans-serif" font-weight="400" font-size="37" transform="matrix(1 0 0 1 2515.73 4947)">0.575</text></g><g clip-path="url(#clip15)"><text font-family="Arial,Arial_MSFontService,sans-serif" font-weight="400" font-size="37" transform="matrix(1 0 0 1 2556.52 4890)">0.6</text></g><g clip-path="url(#clip16)"><text font-family="Arial,Arial_MSFontService,sans-serif" font-weight="400" font-size="37" transform="matrix(1 0 0 1 2515.73 4832)">0.625</text></g><g clip-path="url(#clip17)"><text font-family="Arial,Arial_MSFontService,sans-serif" font-weight="400" font-size="37" transform="matrix(1 0 0 1 2536.12 4774)">0.65</text></g><g clip-path="url(#clip18)"><text font-family="Arial,Arial_MSFontService,sans-serif" font-weight="400" font-size="37" transform="matrix(1 0 0 1 2515.73 4717)">0.675</text></g><g clip-path="url(#clip19)"><text font-family="Arial,Arial_MSFontService,sans-serif" font-weight="400" font-size="37" transform="matrix(1 0 0 1 2556.52 4659)">0.7</text></g><g clip-path="url(#clip20)"><text font-family="Arial,Arial_MSFontService,sans-serif" font-weight="400" font-size="37" transform="matrix(1 0 0 1 2515.73 4602)">0.725</text></g><g clip-path="url(#clip21)"><text font-family="Arial,Arial_MSFontService,sans-serif" font-weight="400" font-size="37" transform="matrix(1 0 0 1 2536.12 4544)">0.75</text></g><g clip-path="url(#clip22)"><text font-family="Arial,Arial_MSFontService,sans-serif" font-weight="400" font-size="37" transform="matrix(1 0 0 1 2515.73 4486)">0.775</text></g><g clip-path="url(#clip23)"><text font-family="Arial,Arial_MSFontService,sans-serif" font-weight="400" font-size="37" transform="matrix(1 0 0 1 2556.52 4429)">0.8</text></g><g clip-path="url(#clip24)"><text font-family="Arial,Arial_MSFontService,sans-serif" font-weight="400" font-size="46" transform="matrix(1 0 0 1 2794.84 5178)">5</text></g><g clip-path="url(#clip25)"><text font-family="Arial,Arial_MSFontService,sans-serif" font-weight="400" font-size="46" transform="matrix(1 0 0 1 3131.91 5178)">8</text></g><g clip-path="url(#clip26)"><text font-family="Arial,Arial_MSFontService,sans-serif" font-weight="400" font-size="46" transform="matrix(1 0 0 1 3456.25 5178)">10</text></g><g clip-path="url(#clip27)"><text font-family="Arial,Arial_MSFontService,sans-serif" font-weight="400" font-size="46" transform="matrix(1 0 0 1 3793.32 5178)">15</text></g><g clip-path="url(#clip28)"><text font-family="Arial,Arial_MSFontService,sans-serif" font-weight="400" font-size="46" transform="matrix(6.12323e-17 -1 1 6.12323e-17 2492.26 5004)">Spearman’s Correlation</text></g><g clip-path="url(#clip29)"><text font-family="Arial,Arial_MSFontService,sans-serif" font-weight="400" font-size="46" transform="matrix(1 0 0 1 2943.87 5244)">Dimensions of descriptors after PCA </text></g><g clip-path="url(#clip30)"><path d="M3661 4922 3777 4922" stroke="#5089BC" stroke-width="5.72917" stroke-linecap="round" stroke-linejoin="round" stroke-miterlimit="10" stroke-dasharray="11.4583 11.4583" fill="none" fill-rule="evenodd"/></g><g clip-path="url(#clip31)"><path d="M3729 4933 3707 4911M3718.12 4911 3718.12 4933M3707 4933 3729 4911" stroke="#5089BC" stroke-width="2.29167" stroke-linejoin="round" stroke-miterlimit="10" fill="#5089BC"/></g><g clip-path="url(#clip32)"><text font-family="Arial,Arial_MSFontService,sans-serif" font-weight="400" font-size="46" transform="matrix(1 0 0 1 3789.24 4938)">Model H</text></g><g clip-path="url(#clip33)"><path d="M3661 4997 3777 4997" stroke="#7030A0" stroke-width="5.72917" stroke-linecap="round" stroke-linejoin="round" stroke-miterlimit="10" stroke-dasharray="17.1875 22.9167" fill="none" fill-rule="evenodd"/></g><g clip-path="url(#clip34)"><path d="M3730 4997.5C3730 5003.85 3724.85 5009 3718.5 5009 3712.15 5009 3707 5003.85 3707 4997.5 3707 4991.15 3712.15 4986 3718.5 4986 3724.85 4986 3730 4991.15 3730 4997.5Z" stroke="#62993E" stroke-width="2.29167" stroke-linejoin="round" stroke-miterlimit="10" fill="#62993E"/></g><g clip-path="url(#clip35)"><text font-family="Arial,Arial_MSFontService,sans-serif" font-weight="400" font-size="46" transform="matrix(1 0 0 1 3789.24 5012)">Model A</text></g></g></svg>